<svg id="Layer_1" data-name="Layer 1" xmlns="http://www.w3.org/2000/svg" viewBox="0 0 496.2 361.04"><defs><style>.cls-1{fill:#fff}.cls-2{fill:#e1251b}.cls-3{fill:#1a428a}</style></defs><path class="cls-1" d="M427.34 453.29c-89.35 0-130.41-25.23-172.62-25.23-18.54 0-26.43 7-26.43 7V350.4c0-6.32 7.89-12.67 26.43-12.67 42.21 0 77.19 30.87 172.62 30.87S557.76 337.73 600 337.73c18.55 0 26.44 6.35 26.44 12.67v84.69s-7.89-7-26.44-7c-42.24-.03-83.3 25.2-172.66 25.2z" transform="translate(-179.66 -92.24)"/><path class="cls-1" d="M625.21 434.32s-33.05-8.57-33.72 1.07 11.39 15.28 26.12 16.08 46.28-2.26 55.69.66c0 0-14.06-29.63-27.66-51.14.12-8.5 26.44-32.64 26.44-32.64-14.45-13.78-46.87-13.7-46.87-13.7zM229.63 434.32s33-8.57 33.71 1.07-11.34 15.28-26.13 16.08-46.13-2.26-55.55.66c0 0 13.92-29.63 27.52-51.14-.12-8.5-26.43-32.64-26.43-32.64 14.45-13.78 46.88-13.7 46.88-13.7z" transform="translate(-179.66 -92.24)"/><path class="cls-2" d="M427.69 447c-89.35 0-130.41-25.23-172.62-25.23-18.54 0-26.43 7-26.43 7v-84.66c0-6.33 7.89-12.67 26.43-12.67 42.21 0 77.19 30.86 172.62 30.86s130.42-30.86 172.63-30.86c18.53 0 26.43 6.34 26.43 12.67v84.69s-7.9-7-26.43-7c-42.21-.03-83.27 25.2-172.63 25.2z" transform="translate(-179.66 -92.24)"/><path class="cls-2" d="M629 431.47s-33-8.57-33.71 1.07 11.38 15.28 26.11 16.08 42.77.59 52.18 3.51c0 0-10.54-32.48-24.14-54 .11-8.49 26.42-32.64 26.42-32.64C661.42 351.72 629 351.8 629 351.8zM226.53 431.47s33-8.57 33.72 1.07-11.39 15.28-26.13 16.08-42.77.59-52.17 3.51c0 0 10.55-32.48 24.14-54-.11-8.49-26.43-32.64-26.43-32.64 14.45-13.78 46.87-13.7 46.87-13.7z" transform="translate(-179.66 -92.24)"/><path class="cls-1" d="M277 352.35c-11.48-2.1-18.81 5-18.81 15.33v32.48c5.51.42 8.26.75 13.78 1.54a30.44 30.44 0 01-1.74-8.78v-2c10.25-6.73 24.54-1 25.41-16.65.68-12.37-7.45-19.89-18.64-21.92zm6.07 19.27c-.91 11.6-6.75 8.68-12.85 12.95v-12.25c0-6 .63-16.51 6.94-15.35 3.57.65 6.61 5.75 5.91 14.65zM579.11 364.69a76.7 76.7 0 014.09-12.4c-3.39.65-5.09 1-8.49 1.8-1.61.37-2.42.56-4 1-7.35 1.8-11 2.84-18.45 4.91a13.05 13.05 0 004.9 9.93c1.31 1 3.39.54 3.72-2 .56-4.51 3-6 7.68-7.25-2.33 6.7-5.62 18.73-4.86 29.78.7 10.15 6.79 17.33 19.76 14.91 11.22-2.09 19.48-8.87 19.24-22.23-.31-16.43-13.7-12.81-23.59-18.45zm4.64 35.84c-6.33 1.17-6.62-9.85-6.87-16.44a66.3 66.3 0 011-13.14c5.9 4.66 11.79 2.47 12.4 13.78.46 9.51-2.93 15.14-6.53 15.8zM325.07 367.37c-1.39-1.7-.21-3.31-4-4.59-6.48-2.21-23.24 8.08-23.21 20 0 9.75 7.91 19.29 12.84 25.26 1.39 1.68.21 3.32 3.95 4.52 6.47 2.08 23.32-8.48 23.3-20.14.05-9.53-7.95-19.01-12.88-25.05zm-3.21 36.48c-1.4-.58-11.46-15.41-13.34-22.19-2-7.2 4.51-10.78 5.79-10.22s10.77 14.51 12.93 22.79-3.98 10.2-5.38 9.62zM356.44 372.3c-4-.68-6-1.06-9.93-1.88-1.64-.34-2.46-.52-4.09-.88 0 0 1.76 5.22 1.76 8.85v38.73c6 1.21 9 1.75 15.05 2.67a25.66 25.66 0 01-2.8-10.54v-32.17c.71.13 1.06.19 1.77.3 8.12 1.34 11 5.78 12.44 9.92.8 2.28 2.43 2.47 3.75 1.32 5.14-4.41 5.75-13.5 5.75-13.5a219.42 219.42 0 01-23.7-2.82zM448.14 398.62c-5.57 4.91-14.39 3.89-14.39-6.7v-14.81c-5.74 0-8.61 0-14.35-.09a18 18 0 012 7.66v8.26c0 13.8 14.68 18.28 26.74 12.88v7.91a22.88 22.88 0 01-2.81 10.16c6.06-.14 9.09-.24 15.15-.53v-38.49a31.85 31.85 0 011.76-8.56c-5.64.29-8.46.4-14.1.55zM409.66 376.78c-6-.21-9.05-.34-15.09-.68-10.5 10-27.25 34.76-14 45.61 7.68 6.28 19.88-1.42 25-9.68.43 1.37.74 2.37.88 2.8 1 3.34-1.32 8.73-1.32 8.73 6.55.26 9.83.35 16.39.45l-11.49-37.14c-1.21-3.99-.37-10.09-.37-10.09zm-21.32 34c-5-6.27 1.13-19.56 8.29-27.93 1.84 6 4.57 14.92 6.71 21.85-3.97 7.02-10.4 11.79-15 6.05zM489.85 377.22c5.7-.6 7.21 5.07 7.21 8.83 4.69-.67 7-1.08 11.73-2 .07-4.42-4.67-12.8-18.94-11.34-13.23 1.34-22.73 11.42-22.73 22.95 0 13.28 11.36 16.81 16 23.82 1 1.56.24 4.16 4 4.14 5.5 0 21.6-11.48 21.61-22.58-4.6.82-6.9 1.18-11.52 1.81.58 7.37-2.65 12.92-8 13.41-.17-3.89-6.78-11.38-8.14-19.16 2.34-.66 5.16-1.25 7.07-.84 4.74 1 5.91 3.2 5.91 3.2 1.76-2.76 2.64-4.15 4.4-7 0 0-2-3-9.71-1.79a35.92 35.92 0 00-7.91 2.62c.17-8.21 2.54-15.41 9.02-16.07zM542.41 384.73a20.11 20.11 0 00-2.8.1c4.06-2.82 7.36-6.38 8.09-10.54 1.78-10.15-6.9-12.68-16.17-9.9-11.66 3.49-18.29 12.07-18.31 22.06v22.14a22 22 0 01-2 9.76s26.84 1.29 36.37-10.81c8.12-10.37 4.46-22.39-5.18-22.81zm-10.63-15.27c3.5-.95 5.51 2.26 4.22 8.28-1.19 5.55-6.58 8.34-10.55 9.59v-.48c.01-5.95-.66-15.51 6.33-17.39zm6.8 29.4c-.49 5.56-4.41 12.74-13.2 12.75V392.2c7.89-2.76 13.82-.28 13.2 6.66zM427.76 350.58c-70.88 0-128.55-57.67-128.55-128.56a128.55 128.55 0 11257.1 0c0 70.89-57.67 128.56-128.55 128.56z" transform="translate(-179.66 -92.24)"/><path class="cls-3" d="M427.76 351.8A129.91 129.91 0 01298 222c0-71.56 58.21-129.78 129.77-129.78a129.78 129.78 0 010 259.56zm0-257.1A127.33 127.33 0 10555.09 222 127.47 127.47 0 00427.76 94.7z" transform="translate(-179.66 -92.24)"/><path class="cls-3" d="M427.76 340.78A118.76 118.76 0 11546.51 222a118.89 118.89 0 01-118.75 118.78zm0-231.37A112.61 112.61 0 10540.37 222a112.73 112.73 0 00-112.61-112.59z" transform="translate(-179.66 -92.24)"/><path class="cls-3" d="M351.59 249.26h-20.27V192h20.27zM491.18 192h-20.29v57.31h20.29zm-134.37 42.7a21.35 21.35 0 000-42.7zM426 249.26h34.92V192H453l-27 50zm-5.25-7.26l-27-50.09h-7.91v57.31h34.93zm27.34-68.12c-1.89 5.31-12.23 9.36-24.71 9.36s-22.82-4.05-24.7-9.36h-5.31c0 11.74 13.44 21.24 30 21.24s30-9.5 30-21.24zm74.35 75.34c0-17.25-11.66-31.24-26.06-31.24v31.24zM496.38 192v20.59c14.4 0 26.06-9.22 26.06-20.59z" transform="translate(-179.66 -92.24)"/></svg>