<svg width="30" height="30" viewBox="0 0 30 30" fill="none" xmlns="http://www.w3.org/2000/svg">
<path d="M15 5.625V3.28125" stroke="#4B2613" stroke-width="1.875" stroke-linecap="round" stroke-linejoin="round"/>
<path d="M15 26.7188V24.375" stroke="#4B2613" stroke-width="1.875" stroke-linecap="round" stroke-linejoin="round"/>
<path d="M15 6.5625C13.3312 6.5625 11.6999 7.05735 10.3124 7.98447C8.92484 8.9116 7.84338 10.2294 7.20477 11.7711C6.56616 13.3129 6.39907 15.0094 6.72463 16.6461C7.05019 18.2828 7.85378 19.7862 9.03379 20.9662C10.2138 22.1462 11.7172 22.9498 13.3539 23.2754C14.9906 23.6009 16.6871 23.4338 18.2289 22.7952C19.7706 22.1566 21.0884 21.0752 22.0155 19.6876C22.9427 18.3001 23.4375 16.6688 23.4375 15C23.4375 12.7622 22.5486 10.6161 20.9662 9.03379C19.3839 7.45145 17.2378 6.5625 15 6.5625Z" stroke="#4B2613" stroke-width="1.875" stroke-linecap="round" stroke-linejoin="round"/>
<path d="M15 12C14.4067 12 13.8266 12.1759 13.3333 12.5056C12.8399 12.8352 12.4554 13.3038 12.2284 13.8519C12.0013 14.4001 11.9419 15.0033 12.0576 15.5853C12.1734 16.1672 12.4591 16.7018 12.8787 17.1213C13.2982 17.5409 13.8328 17.8266 14.4147 17.9424C14.9967 18.0581 15.5999 17.9987 16.1481 17.7716C16.6962 17.5446 17.1648 17.1601 17.4944 16.6667C17.8241 16.1734 18 15.5933 18 15C18 14.2043 17.6839 13.4413 17.1213 12.8787C16.5587 12.3161 15.7956 12 15 12Z" fill="#4B2613"/>
<path d="M24.375 15H26.7188" stroke="#4B2613" stroke-width="1.875" stroke-linecap="round" stroke-linejoin="round"/>
<path d="M3.28125 15H5.625" stroke="#4B2613" stroke-width="1.875" stroke-linecap="round" stroke-linejoin="round"/>
</svg>
