<?xml version="1.0" encoding="UTF-8"?>
<svg width="256px" height="116px" viewBox="0 0 256 116" version="1.1" xmlns="http://www.w3.org/2000/svg" xmlns:xlink="http://www.w3.org/1999/xlink">
    <title>Fill 1</title>
    <g id="Page-1" stroke="none" stroke-width="1" fill="none" fill-rule="evenodd">
        <g id="2021-07-14-Bonomi-LOGO-PMS" transform="translate(-293.000000, -126.000000)" fill="#AF2229">
            <path d="M521.1475,171.2755 L510.6225,171.2745 L510.6225,165.1515 L521.1475,165.1525 L521.1475,171.2755 Z M520.9895,202.3245 L510.7775,202.3235 L510.7775,174.4985 L520.9895,174.4995 L520.9895,202.3245 Z M505.7175,202.3235 L495.5055,202.3225 L495.5065,185.5095 C495.5065,183.1455 494.6725,181.5875 492.3805,181.5875 C490.7135,181.5875 488.3685,182.8765 488.2645,186.6355 L488.2635,202.3215 L478.1045,202.3215 L478.1055,185.7225 C478.1055,183.1975 477.3745,181.5865 474.9265,181.5865 C473.2595,181.5855 470.9145,182.9285 470.9145,187.0655 L470.9135,202.3205 L460.7015,202.3205 L460.7025,174.4955 L468.2575,174.4955 L469.6635,180.5645 C471.6445,175.5695 475.7085,173.8515 478.8875,173.8515 C483.2635,173.8515 486.0765,175.7855 487.4315,179.8675 C489.4105,175.3565 493.3195,173.8525 496.3405,173.8525 C502.2815,173.8525 505.7185,177.4525 505.7185,184.2745 L505.7175,202.3235 Z M453.5705,159.2435 C449.0075,159.2435 445.7455,156.2765 445.7455,150.6095 C445.7455,144.9175 449.0095,141.9275 453.5725,141.9275 C458.1615,141.9275 461.4235,144.9185 461.4235,150.6105 C461.4235,156.2775 458.1595,159.2435 453.5705,159.2435 L453.5705,159.2435 Z M440.8475,202.9635 C430.9485,202.9635 425.0605,197.2145 425.0615,188.4055 C425.0615,179.5955 430.9505,173.8495 440.8495,173.8495 C450.7485,173.8505 456.6355,179.5975 456.6355,188.4075 C456.6345,197.2165 450.7465,202.9645 440.8475,202.9635 L440.8475,202.9635 Z M450.4965,227.5885 C447.9995,227.5885 446.2265,225.7875 446.2265,222.3465 C446.2275,218.8915 447.9995,217.0765 450.4975,217.0765 C452.9775,217.0765 454.7665,218.8915 454.7655,222.3465 C454.7655,225.7875 452.9775,227.5885 450.4965,227.5885 L450.4965,227.5885 Z M439.9965,227.4845 C438.3855,227.4845 437.1445,227.0015 435.9855,226.0495 L437.4035,224.4835 C438.4345,225.2595 439.3365,225.4935 440.0935,225.4935 C441.5745,225.4935 442.4445,224.8055 442.4445,223.7365 C442.4445,222.6385 441.5585,222.1845 440.6085,222.1845 C439.7065,222.1845 439.1105,222.3895 438.5305,222.8145 L436.7105,222.1555 L437.2265,217.2655 L443.7505,217.2655 L443.7495,219.2565 L439.0135,219.2565 L438.8365,220.7645 C439.4815,220.4575 440.2375,220.3255 440.9305,220.3255 C442.9765,220.3255 444.6355,221.4235 444.6355,223.7375 C444.6355,226.4905 442.2995,227.4845 439.9965,227.4845 L439.9965,227.4845 Z M430.1255,227.4845 C427.5795,227.4835 425.8065,226.1655 425.8065,224.2335 C425.8065,222.9445 426.4995,222.0375 427.4665,221.7295 C426.9025,221.3635 426.5165,220.7785 426.5165,219.8415 C426.5165,218.0255 428.3055,217.1775 430.1255,217.1775 C431.9295,217.1775 433.7505,218.0265 433.7495,219.7395 C433.7495,220.7935 433.4275,221.3645 432.7825,221.7305 C433.6845,222.0385 434.4425,222.9455 434.4425,224.2345 C434.4425,226.1665 432.6705,227.4845 430.1255,227.4845 L430.1255,227.4845 Z M424.1005,227.3955 L421.9095,227.3955 L421.9095,220.0025 L420.7985,220.0025 L420.7995,218.2305 C421.5885,218.1285 422.0395,217.8065 422.1365,217.2645 L424.1015,217.2645 L424.1005,227.3955 Z M414.4555,227.3955 L407.3515,227.3955 L407.3525,217.2635 L409.5435,217.2635 L409.5425,225.4325 L414.4555,225.4335 L414.4555,227.3955 Z M403.5045,227.3955 L402.8285,225.5505 L399.2195,225.5495 L398.5585,227.3945 L396.1425,227.3945 L400.1225,217.2635 L401.9115,217.2635 L405.9055,227.3955 L403.5045,227.3955 Z M390.2655,227.3945 L387.1245,227.3945 L387.1255,217.2625 L390.2665,217.2625 C393.4405,217.2625 395.9685,219.4595 395.9685,222.3135 C395.9685,225.1545 393.4395,227.3945 390.2655,227.3945 L390.2655,227.3945 Z M372.9525,202.9605 C363.0525,202.9595 357.1655,197.2115 357.1665,188.4025 C357.1665,179.5925 363.0545,173.8455 372.9535,173.8455 C382.8535,173.8455 388.7395,179.5945 388.7395,188.4035 C388.7385,197.2135 382.8515,202.9605 372.9525,202.9605 L372.9525,202.9605 Z M340.8015,202.3135 L320.7425,202.3125 L320.7445,164.7105 L338.3025,164.7115 C349.4525,164.7125 351.7965,170.6205 351.7965,174.3275 C351.7965,177.1205 350.3375,181.0415 345.6485,182.5455 L345.6485,182.5995 C351.5355,183.4585 354.3485,186.9515 354.3475,191.6245 C354.3475,196.7815 350.7535,202.3135 340.8015,202.3135 L340.8015,202.3135 Z M380.4685,142.2365 L391.1055,142.2375 L391.1045,145.5165 L384.0745,145.5155 L384.0745,149.0135 L388.5585,149.0135 L388.5585,152.2945 L384.0745,152.2935 L384.0735,158.9265 L380.4665,158.9265 L380.4685,142.2365 Z M392.8075,174.4915 L400.3625,174.4925 L401.7695,180.6155 C403.8005,175.6735 407.9175,173.8475 411.6165,173.8475 C417.5565,173.8485 421.3595,177.4475 421.3595,183.7315 L421.3585,202.3185 L411.1465,202.3175 L411.1475,185.5045 C411.1475,183.0865 409.9485,181.5825 407.5525,181.5825 C405.5725,181.5825 403.0195,182.9795 403.0195,186.9005 L403.0185,202.3175 L392.8065,202.3165 L392.8075,174.4915 Z M400.9465,141.9245 C405.5355,141.9245 408.7975,144.9155 408.7975,150.6065 C408.7975,156.2745 405.5345,159.2415 400.9445,159.2415 C396.3815,159.2405 393.1195,156.2735 393.1195,150.6055 C393.1195,144.9145 396.3835,141.9235 400.9465,141.9245 L400.9465,141.9245 Z M411.7415,142.2385 L419.2485,142.2385 C422.9625,142.2385 425.4025,144.0235 425.4025,147.3035 C425.4025,150.1495 423.7845,151.6205 421.9275,152.1995 L426.0915,158.9285 L421.8465,158.9285 L418.3465,152.7545 L415.3475,152.7545 L415.3475,158.9285 L411.7395,158.9275 L411.7415,142.2385 Z M429.0095,142.2385 L432.5115,142.2395 L439.2215,152.4655 L439.2225,142.2395 L442.8295,142.2395 L442.8285,158.9295 L439.3275,158.9295 L432.6165,148.7275 L432.6155,158.9295 L429.0085,158.9285 L429.0095,142.2385 Z M548.3975,180.4515 L547.9725,176.6255 L547.1935,173.0115 L546.0955,169.4685 L544.7495,166.0675 L543.0845,162.7725 L541.3135,159.6545 L539.2585,156.7135 L536.9565,153.9855 L534.4405,151.3645 L531.7835,148.9545 L528.8435,146.8995 L525.7965,144.9505 L522.5725,143.2505 L521.4745,142.7895 L521.1915,142.2585 L519.3845,139.8135 L517.4365,137.5815 L515.2395,135.3845 L512.9725,133.4715 L510.4215,131.7705 L507.7645,130.3185 L504.9665,128.9715 L501.9905,128.0145 L498.9435,127.3065 L495.7905,126.8455 L492.7435,126.7035 L350.5705,126.6955 L347.3105,126.8725 L343.9805,127.3675 L340.7925,128.1475 L337.6745,129.3165 L334.6985,130.7685 L331.9345,132.3975 L329.2775,134.3105 L326.8685,136.4365 L324.7075,138.8455 L322.8295,141.3605 L322.4395,141.9635 L321.4125,142.3175 L318.1875,143.8055 L315.1405,145.5765 L312.1295,147.4535 L309.4015,149.6145 L306.8505,151.9885 L304.3705,154.5385 L302.2095,157.2665 L300.2605,160.1365 L298.4885,163.2535 L296.8945,166.4775 L295.6545,169.8075 L294.6615,173.2795 L293.9535,176.7875 L293.4925,180.5075 L293.3855,184.1565 L293.3855,184.4395 L293.4915,188.0175 L293.9525,191.6315 L294.6605,195.2455 L295.6525,198.6465 L296.8925,202.1185 L298.4865,205.2365 L300.2225,208.2475 L302.2055,211.2235 L304.3665,213.9515 L306.8465,216.4675 L309.3975,218.9125 L312.1255,221.0385 L315.1365,222.9155 L318.1835,224.6875 L321.4075,226.1755 L322.4345,226.5305 L322.8245,227.1325 L324.7015,229.6475 L326.8625,232.0215 L329.2715,234.2185 L331.9285,236.0965 L334.7275,237.7615 L337.6675,239.1785 L340.7505,240.2415 L343.9735,241.1275 L347.3045,241.6595 L350.5635,241.8015 L492.7725,241.8095 L495.7835,241.6685 L498.9365,241.2435 L501.9835,240.4995 L504.9595,239.4715 L507.7585,238.2325 L510.4155,236.7445 L512.9665,235.0435 L515.2695,233.1305 L517.4305,230.9695 L519.3795,228.7025 L521.1865,226.2585 L521.4695,225.7265 L522.5685,225.2665 L525.7925,223.5305 L528.8395,221.6535 L531.7795,219.5635 L534.4375,217.1545 L536.9525,214.5325 L539.2555,211.8045 L541.3105,208.8645 L543.0825,205.7465 L544.7475,202.4875 L546.0935,199.0505 L547.1925,195.5435 L547.9725,191.8235 L548.3975,188.1035 L548.5035,184.2425 L548.3975,180.4515 Z M440.8485,180.4025 C437.3065,180.4025 435.4305,183.0345 435.4305,188.4065 C435.4295,193.7775 437.3055,196.4095 440.8475,196.4095 C444.3905,196.4105 446.2655,193.7785 446.2665,188.4075 C446.2665,183.0355 444.3915,180.4035 440.8485,180.4025 L440.8485,180.4025 Z M450.4965,219.0665 C449.2065,219.0665 448.4015,220.1645 448.4015,222.3465 C448.4015,224.5275 449.2065,225.6115 450.4965,225.6115 C451.8015,225.6115 452.5905,224.5275 452.5905,222.3465 C452.5905,220.1645 451.8015,219.0665 450.4965,219.0665 L450.4965,219.0665 Z M453.5715,145.2065 C450.9175,145.2065 449.3535,147.0155 449.3535,150.6095 C449.3535,154.2035 450.9175,155.9885 453.5715,155.9885 C456.2235,155.9885 457.8415,154.2035 457.8415,150.6095 C457.8415,147.0155 456.2235,145.2065 453.5715,145.2065 L453.5715,145.2065 Z M430.1255,222.755499 C428.4815,222.7545 427.9175,223.3545 427.9175,224.1745 C427.9175,224.9205 428.7555,225.5355 430.1255,225.5365 C431.4945,225.5365 432.3315,224.9215 432.3315,224.1755 C432.3315,223.1215 431.6225,222.755499 430.1255,222.755499 L430.1255,222.755499 Z M341.0105,176.3145 C341.0105,174.1665 339.7615,172.5015 336.5835,172.5005 L331.3215,172.5005 L331.3205,180.3425 L336.5315,180.3425 C339.4485,180.3435 341.0105,178.6785 341.0105,176.3145 L341.0105,176.3145 Z M430.1255,221.1155 C431.2685,221.1155 431.6385,220.6465 431.6385,219.9595 C431.6385,219.4025 430.8655,219.1245 430.1255,219.1245 C429.3675,219.1245 428.6265,219.4015 428.6265,219.9585 C428.6265,220.7345 429.0125,221.1145 430.1255,221.1155 L430.1255,221.1155 Z M338.5625,186.4135 L331.3205,186.4135 L331.3205,194.5235 L338.9785,194.5245 C341.6355,194.5245 343.6165,193.5045 343.6165,190.4965 C343.6165,187.9715 342.0535,186.4135 338.5625,186.4135 L338.5625,186.4135 Z M400.9455,155.9855 C403.5985,155.9855 405.2165,154.2005 405.2165,150.6065 C405.2165,147.0135 403.5985,145.2045 400.9455,145.2045 C398.2925,145.2035 396.7275,147.0125 396.7275,150.6065 C396.7275,154.1995 398.2925,155.9845 400.9455,155.9855 L400.9455,155.9855 Z M372.9535,180.3985 C369.4105,180.3985 367.5345,183.0305 367.5345,188.4025 C367.5335,193.7735 369.4095,196.4065 372.9525,196.4065 C376.4955,196.4065 378.3705,193.7745 378.3715,188.4035 C378.3715,183.0315 376.4965,180.3985 372.9535,180.3985 L372.9535,180.3985 Z M390.2815,219.2545 L389.3315,219.2545 L389.3315,225.4175 L390.2815,225.4175 C392.1985,225.4175 393.7455,224.1145 393.7455,222.3285 C393.7455,220.4835 392.1985,219.2545 390.2815,219.2545 L390.2815,219.2545 Z M399.8165,223.6615 L402.2165,223.6615 L401.0085,220.3235 L399.8165,223.6615 Z M422.0065,147.5205 C422.0065,146.0495 420.9455,145.4465 419.3545,145.4465 L415.3475,145.4465 L415.3475,149.6675 L419.3545,149.6675 C420.9455,149.6675 422.0065,149.0645 422.0065,147.5205 L422.0065,147.5205 Z" id="Fill-1"></path>
        </g>
    </g>
</svg>