<svg xmlns="http://www.w3.org/2000/svg" viewBox="0 0 712.99 491.59"><defs><style>.cls-1{fill:#fff;}.cls-2{fill:#fec465;}.cls-2,.cls-3,.cls-4{fill-rule:evenodd;}.cls-3{fill:#ed1c24;}.cls-4{fill:#f18a00;}.cls-5{fill:#782c2a;}</style></defs><title>GastoneLago-logo</title><g id="Livello_2" data-name="Livello 2"><g id="Gastone_Lago" data-name="Gastone Lago"><path id="CORNICE_BIANCA" data-name="CORNICE BIANCA" class="cls-1" d="M120.55,428.17c-38.91-26.49-104-79.32-117.71-166.69-19.32-123,62-213.5,182.28-238.11,44-9,77.1-9.79,105.9-7.08,28.17,2.66,52,8.66,78.41,13.23C420.21,38.32,481,41.78,606,1.35L610.2,0l3.55,2.64C709.55,75.93,722.49,162.71,708,251.2c-5.18,31.64-13.14,53.77-26.53,77.95-33.62,60.74-102.76,115.19-241.54,112-112-2.55-144.4,10-204.08,45.88l-2.33,1.4-5.17,3.12-5.63-3.28-2.41-1.41C189.38,468.87,153.92,450.9,120.55,428.17Z"/><path class="cls-2" d="M201.11,455.72c14.2,10.56,22,17.78,23.48,23.84C163.06,443.69,83.1,408.69,39.86,332.64c-14.63-25.74-23.94-50-28.67-72.77,5.43,19.92,15.69,40.25,31.45,60.42C92.09,383.58,154.48,426.72,201.11,455.72Z"/><path class="cls-2" d="M440.12,432.69c-113.44-2.58-147.42,10.24-208.65,47.1,1.57-6.51,11.73-15.9,25.89-25.39,46.93-27.11,80.65-39.1,175.88-42.49,121.09-4.3,187.7-35.23,238.67-108a222,222,0,0,0,27.66-53.82c-3,27.1-12.55,51.45-25.54,74.91C642.12,382.68,576.13,435.78,440.12,432.69Z"/><path class="cls-3" d="M119.8,386.65c112.85-79.79,211.65-84.87,365.69-72.73,90,7.09,214-44.79,216.58-157.27-6.92-50.76-34.67-103.29-93.59-147C356.29,91.16,359.81-3.55,186.93,31.84,47.4,60.4-45.52,195.85,49.4,315.83c20.37,25.74,45.06,49.6,70.4,70.82Z"/><path class="cls-4" d="M666,299.71a199.49,199.49,0,0,0,36.08-143.06C699.47,269.13,575.44,321,485.49,313.92c-154-12.14-252.84-7.06-365.69,72.73,39.23,32.86,80,59.37,108.66,76.63,63.32-38.35,96.48-56.88,209.07-62.71C543.48,395.08,618,365.21,666,299.71Z"/><path class="cls-5" d="M249.85,401.32a13.84,13.84,0,0,1-5.72-.88c-2.79-1.08-4.38-2.92-4.73-5.48a2.68,2.68,0,0,1,.76-2.23,3.46,3.46,0,0,1,2-1.07l.24,0a2.52,2.52,0,0,1,2.32,1.32,6.15,6.15,0,0,0,1.44,1.78,6.67,6.67,0,0,0,4.24.43,14.88,14.88,0,0,0,4.85-1.51c1.86-1,2.72-2,2.58-3.05,0-.35-.49-1.3-3.64-2.57a24.32,24.32,0,0,0-5.28-1.51c-1.28-.14-2.6-.3-3.91-.49a10,10,0,0,1-4.08-1.28A5,5,0,0,1,238.6,381c-.38-2.87,1-5.52,4-7.86a16.84,16.84,0,0,1,8.19-3.55,17.59,17.59,0,0,1,7.73.59c3.19,1.07,5,2.93,5.32,5.55a2.8,2.8,0,0,1-.39,2.06,2.52,2.52,0,0,1-1.81,1h-.09c-.39,0-.9-.16-2.25-1.09a20,20,0,0,0-3-1.81,7.36,7.36,0,0,0-3.81-.57,11.54,11.54,0,0,0-4.33,1.72,6.06,6.06,0,0,0-2.7,2.71l.09.11c3.33.76,6.71,1.55,10.06,2.34,5.13,1.48,7.79,3.48,8.15,6.16a9.62,9.62,0,0,1-3.57,8.91,16.28,16.28,0,0,1-8.85,3.9c-.51.07-1,.12-1.53.14"/><path class="cls-5" d="M290.15,389.62c-.79.05-2.18-.23-2.55-2.71a7.8,7.8,0,0,1-.08-1.35c0-3.9-.09-7.81-.16-11.65a91.94,91.94,0,0,0-.92-11.5,4.17,4.17,0,0,1,.47-2.64,2.92,2.92,0,0,1,2.17-1.59l.25,0c1-.06,2.37.43,2.79,3.15a70.19,70.19,0,0,1,1,10.66,70.9,70.9,0,0,1,5.74-8.09c4.27-5.2,7.58-7.92,10.15-8.31s3.07,1,3.16,1.54c.28,1.86-.25,5.14-1.64,10-1.3,4.63-1.77,8.25-1.39,10.76.49,3.19,1.95,3.47,3,3.4a2.46,2.46,0,0,0,.37,0,19.46,19.46,0,0,0,3.14-.94l.29-.11,1.21.56-.12.59a5.84,5.84,0,0,1-2.6,3.36,9.36,9.36,0,0,1-3.94,1.8c-3.92.61-6.46-2.63-7.52-9.54a22.2,22.2,0,0,1,.56-9.39c-.88,1.06-2,2.63-3.59,4.94a70.83,70.83,0,0,0-4.93,8.25,38.49,38.49,0,0,0-2,5.37c-.62,2.14-1.48,3.26-2.63,3.44l-.24,0"/><path class="cls-5" d="M354.47,362.44a14,14,0,0,1,9.41-11.21c4.81-1.31,4,1.71,3.46,2.84A15.58,15.58,0,0,1,354.47,362.44Zm17.86-7.64c1.37-4.51-.91-8.4-5.51-8.42-6.68,0-14.68,4.33-18.39,13.73-4.81,12.22,2.44,20.95,13,17.38a20.92,20.92,0,0,0,11.13-9.11c1.12-2-.75-1.73-1.9-.77-5.82,4.83-12.07,6.13-15,3a5.6,5.6,0,0,1-1.09-4.11C367.6,364.76,371.44,357.74,372.33,354.8Z"/><path class="cls-5" d="M341.58,371.66c-5.56,5.13-11.74,6.76-14.85,3.82-1-1-1.2-2.34-1.3-4.05C325,363.57,330,357,334,355.66c4.73-1.56,4.06,1.49,3.6,2.65-.38,1-.61,2.12.27,2.79,2,1.52,4.3-.48,4.76-2.32,1.12-4.58-1.35-8.34-5.95-8.12-6.67.32-14.44,5.1-17.65,14.68-4.16,12.46,3.55,20.79,13.87,16.67a20.83,20.83,0,0,0,10.63-9.68C344.54,370.26,342.68,370.64,341.58,371.66Z"/><path class="cls-5" d="M283.19,353.24c-2.64,2.49-7,1.81-7.73-1.67-1-4.83,4-6,6-8.39,1.24-1.5,2.36-1,2.92.26C285.63,346.36,285.51,351.05,283.19,353.24Z"/><path class="cls-5" d="M273.09,362.69c-3.07,5.23-6.92,21.19-1.2,29.36,1.68,2.4,4.6,3.49,8.24.66a10.85,10.85,0,0,0,3.35-4.48c.45-1.24-.42-2.1-2-.62s-3.81,2.51-5.07,0c-.51-1-1.65-4.11.36-10.82,1.26-4.15,3-9.54,2.51-13.07-.19-1.47-2-3.73-3.71-3.44-1.24.22-1.69,1.13-2.45,2.42"/><path class="cls-5" d="M392.85,349.37a46.3,46.3,0,0,0,13.47-13.52c2.13-3.45,5.77-4.21,4.16,3.31s-5.06,25.41-6.25,32.68c-.58,3.55-7.16,7.47-6.21.13,1-7.72,2.89-18,3.45-22.19a33.49,33.49,0,0,1-6.69,2.78C393.48,352.87,390.58,350.85,392.85,349.37Z"/><path class="cls-5" d="M436.08,331.78c-3.07-.72-15.36.58-20.52,13.9-1.26,3.25-1.35,9.63,4.6,9.66,5.19,0,9.37-2.77,11.37-4.22-1.5,9.07-5.59,16.5-15.32,20.73-5.37,2.33-3,4.48,1.33,3.4,13.89-3.5,20.78-15.39,23.19-30.51C441.65,338.9,442.29,333.25,436.08,331.78ZM434,339.12a15,15,0,0,1-1.13,5.42,12.1,12.1,0,0,1-8.09,5.26c-2.47.41-5.22.54-3.93-3.74a14,14,0,0,1,10.22-9.35C433.38,336.33,434,337,434,339.12Z"/><path class="cls-5" d="M447.76,373.46c3.06.73,15.36-.57,20.52-13.89,1.26-3.26,1.35-9.63-4.6-9.66-5.19,0-9.37,2.77-11.37,4.21,1.51-9.07,5.59-16.5,15.32-20.72,5.36-2.33,3-4.49-1.33-3.41-13.89,3.51-20.78,15.4-23.19,30.52C442.19,366.35,441.56,372,447.76,373.46Zm2.07-7.33A15.12,15.12,0,0,1,451,360.7a12.08,12.08,0,0,1,8.09-5.25c2.47-.41,5.23-.54,3.93,3.74a14,14,0,0,1-10.22,9.35C450.47,368.92,449.84,368.22,449.83,366.13Z"/><path class="cls-5" d="M490.54,348c3.62-1.28,8.52-5.32,8.6-11.26.05-4.23-4.82-7.91-12-6.77s-11.44,5.38-12,10,2.77,7,5.18,8.88c-5.29,3.36-7.07,7.48-7.54,10.84a10.05,10.05,0,0,0,11,11.5c12.11-.7,15.34-9.5,15-14.68A8.89,8.89,0,0,0,490.54,348Zm-9.29-8.38c1-2.84,3.53-4.81,6.91-5.51,2.08-.42,6.14.4,5.73,3.91-.5,4.22-5.21,7.55-8.06,8.22C480.68,345.24,480.44,342,481.25,339.66Zm3.84,26c-4.42.11-6.37-2.47-6.18-6,.22-4.09,3.2-6.6,6.77-8.05,5.59,1.35,6.69,4.52,6.47,6.5C491.78,361.48,489.5,365.6,485.09,365.71Z"/><path class="cls-1" d="M453.14,298.77c12.43-.75,26.85-6.22,34.8-23.62,4.82-10.54,6.2-27,6.59-45.8q-.52-21.3-1-42.35c-.06-5.19-.14-8.3-.26-9.51-1.1-11.46-4.71-17.05-10.79-16.46-4.94.47-9.85,5.52-15,15.43-4.57,8.92-10.06,19.77-13.69,25.69C448.28,211,442.81,215,436,215.59c-7.75.66-17.32-4.34-14.86-20.5a57.53,57.53,0,0,1,15.55-31.63c8.63-9.09,19.4-14.78,30.35-15.37a23.29,23.29,0,0,1,10.69,2c5.65,2.61,10.12,4.49,11.34,4.57.87.07,1.06.07,1.93-.73,1.26-1.17,2.34-4.45,2.07-7.29a18.71,18.71,0,0,0-9.74-15.29c-4.95-2.81-10.92-3.67-17.79-3.24-27.43,1.73-48.32,23.75-55.23,34.24-12.22,18.56-16,33.45-14.65,46.93,2.86,28.9,31.08,29.57,44.5,26.52,10.07-2.28,25.06-9.66,32.92-26.33-2,4.21,0,10.19.3,16.68.65,12.62.34,21.93-.93,27.68-2,9.17-6.23,15.15-13.87,19.87a30.16,30.16,0,0,1-12.82,4.52,16,16,0,0,1-9.27-1.81c-3-1.63-4.67-3.85-4.95-6.74-.31-3.23.36-7,2.94-12.77,3.84-8.59,4.15-10.56,4-12-.31-3.26-2.62-5.23-6.66-5.09s-10.65,4.45-14.9,13A38.32,38.32,0,0,0,412.59,273c.9,9.43,4.37,15.62,12.72,20.42C435.29,299.15,446.23,299.18,453.14,298.77Z"/><path class="cls-1" d="M311.85,256.39c24.63.25,36.18-15.72,39.46-21.71,7.17,14.43,18.7,14.42,24.25,13.49,6.59-1.09,12.7-6.32,13.15-13.15-7.19,1.7-13.41-1.39-16.11-5.69-2.37-3.66-3.23-7.16-3.76-12.7s0-13.94.6-25c.66-11.26.73-19.86.18-25.55-.35-3.61-4.19-6.21-8.11-6.21a11.65,11.65,0,0,0-1.29.07c-7.13.68-11.23,7.65-12.19,20.72-.49,8.45-.91,16.92-1.25,25.18-1.59,6.34-5.53,12.48-11.74,18.26s-12.59,9.72-19,9.67c-11.08-.06-13.37-9-13.62-13.37-.63-11.41,3.49-23.29,13.63-37.56,9.07-12.75,19.86-22.23,29.07-24.79l11.67-2.42.17-.05c7.43-2.23,8.6-6.65,8.28-10S362.44,138,352.66,138c-1.37,0-2.9.08-4.52.24-16.46,1.58-38.43,15-52.68,33.27-18,23-21,44.56-18.63,58.61C279.07,243.45,287.5,256.14,311.85,256.39Z"/><path class="cls-1" d="M521.53,220.4c-20.42-22.42-12-55.87-3.63-70.87,8.23-14.67,23.54-27.68,39.58-29.23,13.33-1.29,23.45,2.37,33.11,11.64s14.73,21.16,16.07,34.52c2.29,22.9-10.64,69.46-52,68.17C547.8,234.42,534.72,234.89,521.53,220.4Zm40.4-78.84c-.89,0-1.8,0-2.73.13-8.78.85-15.31,6-20,15.86a50.87,50.87,0,0,0-4.92,27.59,35.42,35.42,0,0,0,7.47,18.06A18.43,18.43,0,0,0,558,210.49c7.94-.77,14.52-4.72,21.64-14.4A43.63,43.63,0,0,0,587.81,167a28.43,28.43,0,0,0-9.37-18.88,23.66,23.66,0,0,0-16.51-6.53"/><path class="cls-1" d="M199.8,99.85c2.42-8.34,9.47-30-3.4-30.13-11.64-.14-17.55,11.82-23.74,24.31C152.71,134.24,135.18,175,120.84,212.1c-35.27,91.32-2.91,88.11,36.38,85,26-2.06,53.12-9.58,64.72-13.11,26.63-8.08,49.88-17.74,46.4-30.53-2-7.34-13.7-2.57-24.12,0-21.74,5.43-49.82,11.07-66.26,5.09-21.25-7.74-14.35-33.7-6.18-62.52C176.35,180,187.27,143,199.8,99.85Z"/><path class="cls-1" d="M268.68,124.18a21.08,21.08,0,0,1-10.38-2.54,13,13,0,0,1-7.17-10.72,20.08,20.08,0,0,1,.27-5.16,40.53,40.53,0,0,1,7-17A39.07,39.07,0,0,1,272,76.74,20.87,20.87,0,0,1,280,74.27c5.13-.45,8,2.68,8.57,9.22a9,9,0,0,1-.29,3.08c-.46,1.57-1.26,2.41-2.37,2.51h-.07l-1-.11-.11-.56a25.83,25.83,0,0,0-1.35-5.11,3.36,3.36,0,0,0-3.61-2c-5.05.45-9.84,3.33-14.2,8.6a35.39,35.39,0,0,0-7.66,15.51,12.6,12.6,0,0,0-.33,3.79c.29,3.32,2.06,5.72,5.41,7.31a19.22,19.22,0,0,0,9.93,1.55c1.79-.16,4.22-1.13,7.21-2.89,4-2.33,5.1-3.94,5.33-4.88a4.25,4.25,0,0,0,0-1.32c-.4-4.58-2.6-6.5-6.8-6.14a14.21,14.21,0,0,0-4.6,1.61,23.78,23.78,0,0,1-5,2l-.27.06-1.16-.57.18-.63a10.2,10.2,0,0,1,2.64-4,15.71,15.71,0,0,1,3.62-3,12.79,12.79,0,0,1,5.24-1.62,10.75,10.75,0,0,1,9,3,13.85,13.85,0,0,1,3.74,8.81c.39,4.42-2.11,8.24-7.43,11.33a32.38,32.38,0,0,1-13.45,4.23c-.84.07-1.67.11-2.48.11"/><path class="cls-1" d="M305.31,121.29a7.2,7.2,0,0,1-6-2.83,13,13,0,0,1-2.46-7c-.42-4.87,1.46-10.06,5.6-15.42s8.73-8.32,13.58-8.75c.45,0,.86-.06,1.24-.06,3.08,0,3.84,1.32,3.94,2.43.07.85-.17,2.39-2.59,3.1l-3.49.7c-2.59.68-5.39,3.1-8.27,7.17s-4.21,7.49-4,10.17a5.64,5.64,0,0,0,1.08,3,2.64,2.64,0,0,0,2.47,1.19,9.35,9.35,0,0,0,5.45-2.72,10.87,10.87,0,0,0,3.39-5.16c.12-2.4.27-4.86.43-7.31.32-3.92,1.6-6,3.79-6.19,1.51-.14,2.43.57,2.54,1.84a54,54,0,0,1-.11,7.47,50.78,50.78,0,0,0-.12,7.22,8.85,8.85,0,0,0,1.2,4,2.87,2.87,0,0,0,2.85,1.59l2.09-.18-.54,1.23a4.33,4.33,0,0,1-3.68,2.82,7.33,7.33,0,0,1-4.79-1.27,7.23,7.23,0,0,1-2.22-2.33,10.32,10.32,0,0,1-4,3.42,16.56,16.56,0,0,1-6.52,1.9c-.32,0-.63,0-.93,0"/><path class="cls-1" d="M342.06,118.3a14.82,14.82,0,0,1-6-1.21c-2.9-1.28-4.49-3.31-4.73-6a2.84,2.84,0,0,1,.92-2.31,3.52,3.52,0,0,1,2.18-1h.26a2.64,2.64,0,0,1,2.38,1.52,6.83,6.83,0,0,0,1.44,2c.87.61,2.41.84,4.47.67a16.45,16.45,0,0,0,5.21-1.36c2-.93,3-2,2.87-3.11,0-.37-.46-1.39-3.73-2.9a25.86,25.86,0,0,0-5.51-1.85c-1.34-.21-2.74-.45-4.12-.71a10.62,10.62,0,0,1-4.23-1.56,5.34,5.34,0,0,1-2.3-4.07c-.26-3.06,1.29-5.79,4.62-8.12a18,18,0,0,1,8.84-3.35,18.77,18.77,0,0,1,8.15,1c3.31,1.29,5.11,3.35,5.35,6.13a3,3,0,0,1-.51,2.16,2.72,2.72,0,0,1-2,1h-.1c-.41,0-.94-.21-2.32-1.26a21.19,21.19,0,0,0-3-2.06,7.86,7.86,0,0,0-4-.79,12.16,12.16,0,0,0-4.67,1.61,6.43,6.43,0,0,0-3,2.73l.09.12c3.48,1,7,2,10.52,3,5.36,1.81,8.07,4.06,8.32,6.9a10.21,10.21,0,0,1-4.22,9.26,17.27,17.27,0,0,1-9.55,3.69c-.55,0-1.09.07-1.63.07"/><path class="cls-1" d="M376.77,115.42c-3,0-6.75-1.46-7.36-8.39a35.8,35.8,0,0,1,.49-8.4c.61-3.9.93-5.95,1.09-7-.63.16-1.44.39-2.4.7a18.93,18.93,0,0,1-3.84.85,2.56,2.56,0,0,1-3-2.62c-.22-2.55,3.4-3.85,4.59-4.27,1.83-.52,3.63-1,5.44-1.59q.88-4.27,1.77-8.61c1-4.67,2-7.34,3.21-8.41a5.06,5.06,0,0,1,3.07-1.51c1.55-.14,2.49.57,2.61,1.84,0,.44-.06,1.34-1.06,4.56-1.27,4.12-1.4,4.56-1.41,4.61-.07.42-.32,1.7-1.14,6l2.55-.65a24.55,24.55,0,0,1,3.92-.73c2.21-.2,2.49,1.18,2.52,1.59.19,2-1.24,3.74-4.23,5a54.32,54.32,0,0,1-5.82,1.78c-.46,2.41-1,4.86-1.45,7.31a30,30,0,0,0-.51,7.6,9.11,9.11,0,0,0,.89,3.91c.54.91,1.6,1.27,3.15,1.13a10.48,10.48,0,0,0,3.66-1.33l.47-.25.95.8-.27.56a10.73,10.73,0,0,1-2.84,3.53,7.22,7.22,0,0,1-4.13,2c-.32,0-.64,0-.94,0"/><path class="cls-1" d="M426.51,111.47c-.84,0-2.28-.39-2.51-3a9.94,9.94,0,0,1,0-1.44c.23-4.12.44-8.26.63-12.32a99.33,99.33,0,0,0-.19-12.21,4.33,4.33,0,0,1,.68-2.75,3.08,3.08,0,0,1,2.39-1.54h.27c1.1,0,2.48.61,2.73,3.52a76.84,76.84,0,0,1,.3,11.32,72.8,72.8,0,0,1,6.61-8.15c4.86-5.21,8.55-7.85,11.28-8.09S451.89,78,452,78.61c.17,2-.62,5.41-2.41,10.5-1.7,4.81-2.43,8.6-2.2,11.28.3,3.41,1.81,3.8,2.93,3.8l.4,0a19.7,19.7,0,0,0,3.39-.79l.31-.08,1.23.67-.17.61a6.21,6.21,0,0,1-3,3.38,10,10,0,0,1-4.3,1.63c-4.18.37-6.64-3.21-7.29-10.59a23.52,23.52,0,0,1,1.23-9.89c-1,1.06-2.34,2.64-4.13,5a73.43,73.43,0,0,0-5.77,8.39,40.09,40.09,0,0,0-2.43,5.53c-.8,2.22-1.79,3.35-3,3.45h-.26"/><path class="cls-1" d="M401.26,113.4h0c-3.19,0-5.89-1.52-8-4.52a18.69,18.69,0,0,1-3.42-9.53,21.39,21.39,0,0,1,2.49-12.1c2.33-4.39,5.6-6.8,9.72-7.15a12.48,12.48,0,0,1,10.22,3.65A15.55,15.55,0,0,1,417,93.81c.36,4.11-1,8.3-4,12.45-3.14,4.36-6.8,6.74-10.86,7.1-.31,0-.62,0-.92,0m2.46-27.14c-.25,0-.49,0-.75,0-2.61.23-4.57,1.76-6,4.69a15.26,15.26,0,0,0-1.55,8.32,9.48,9.48,0,0,0,2.28,5.3c1.43,1.72,3,2.49,4.66,2.34,2.37-.21,4.57-1.85,6.54-4.88,1.9-2.88,2.75-5.61,2.53-8.14a8.4,8.4,0,0,0-2.75-5.67,7.05,7.05,0,0,0-5-2"/><path class="cls-1" d="M468.11,90.53c.8-6,5.72-10.71,10-11.86,5.1-1.39,4.22,1.81,3.67,3A16.47,16.47,0,0,1,468.11,90.53ZM487,82.45c1.45-4.77-.95-8.9-5.83-8.91-7.07,0-15.55,4.58-19.48,14.54-5.09,12.93,2.6,22.17,13.75,18.39a22.14,22.14,0,0,0,11.77-9.64c1.2-2.13-.79-1.84-2-.82-6.16,5.12-12.78,6.49-15.91,3.21a5.88,5.88,0,0,1-1.15-4.35C482,93,486.08,85.56,487,82.45Z"/></g></g></svg>