<?xml version="1.0" encoding="UTF-8"?>
<svg xmlns="http://www.w3.org/2000/svg" xmlns:xlink="http://www.w3.org/1999/xlink" width="174.828" height="140" viewBox="0 0 174.828 140">
  <defs>
    <filter id="a" x="0" y="0" width="174.828" height="140">
      <feOffset></feOffset>
      <feGaussianBlur stdDeviation="10" result="b"></feGaussianBlur>
      <feFlood flood-color="#fff" flood-opacity="0.329"></feFlood>
      <feComposite operator="in" in2="b"></feComposite>
      <feComposite in="SourceGraphic"></feComposite>
    </filter>
    <clipPath id="c">
      <path d="M173.323,92.769a205.773,205.773,0,0,0-64.382,0V69.611a205.773,205.773,0,0,1,64.382,0Z" transform="translate(-108.941 -67.078)" fill="rgba(0,0,0,0)"></path>
    </clipPath>
  </defs>
  <g transform="translate(-20.335 -33.614)">
    <g transform="matrix(1, 0, 0, 1, 20.33, 33.61)" filter="url(#a)">
      <path d="M163.113,84.381a185.739,185.739,0,0,0-35.348-7.352,21.976,21.976,0,0,0-40.5.049,185.759,185.759,0,0,0-34.881,7.3,3.09,3.09,0,0,0-2.05,2.753v54.38a2.1,2.1,0,0,0,2.1,2.1H163.063a2.1,2.1,0,0,0,2.1-2.1V87.134S164.246,84.738,163.113,84.381Z" transform="translate(-20.33 -33.61)" fill="#00224b"></path>
    </g>
    <g transform="translate(84.708 123.124)">
      <path d="M132.918,208.058c0,.566.089.677.941.687v.465c-.624-.04-1.258-.061-1.932-.061-.832,0-1.228.061-1.684.061h-.019v-.465c.842-.01.931-.121.931-.687v-4.749c0-.566-.089-.677-.931-.687v-.465h.019c.228,0,.446.01.7.03s.565.031.981.031h1.942c1.6,0,2.724.485,2.724,1.869,0,1.273-1.03,1.91-2.972,1.91-.357,0-.535-.01-.7-.02Zm0-2.587h.257c1.03,0,1.437-.384,1.437-1.384,0-1.1-.733-1.344-1.694-1.344Z" transform="translate(-130.223 -202.056)" fill="#fff"></path>
      <path d="M151.8,209.149h-4.775c-.416,0-.723.01-.981.03s-.475.031-.7.031h-.02v-.465c.832-.01.921-.121.921-.687v-4.749c0-.566-.089-.677-.921-.687v-.465c.8.02,1.6.061,2.4.061,1.03,0,2.427-.04,3.646-.061l.08,1.617H150.9c-.258-.92-.654-1.091-2.051-1.091h-.842v2.586h.9c.911,0,1.149-.151,1.209-.889h.456v2.314h-.456c-.059-.748-.3-.9-1.209-.9h-.9v2.829h.832c1.932,0,2.219-.131,2.755-1.344l.5.132Z" transform="translate(-138.827 -202.056)" fill="#fff"></path>
      <path d="M162.369,203.309c0-.566-.09-.677-.932-.687v-.465h.02c.228,0,.446.01.7.03s.565.031.981.031h1.743c1.982,0,2.972.444,2.972,1.919,0,.94-.515,1.435-1.555,1.678,1.694,2.647,1.991,2.788,2.7,2.93v.465h-.02c-.139,0-1.209-.061-2.368-.061-.684-.97-1.357-1.96-2.061-3.092-.129.01-.277.01-.426.02v1.981c0,.566.089.677.941.687v.465c-.624-.04-1.258-.061-1.932-.061-.832,0-1.228.061-1.684.061h-.02v-.465c.842-.01.932-.121.932-.687Zm1.764,2.243h.178c.951,0,1.724-.445,1.724-1.394a1.271,1.271,0,0,0-1.446-1.415h-.456Z" transform="translate(-148.007 -202.056)" fill="#fff"></path>
      <path d="M183.336,202.157c.317.03.753.061,1.189.061a9.13,9.13,0,0,0,1.011-.061v.465c-.734.01-.823.121-.823.687v3.223c0,1.718-.683,2.779-2.684,2.779-1.625,0-2.685-.647-2.685-2.526v-3.476c0-.566-.089-.677-.872-.687v-.465c.347.04,1,.061,1.743.061s1.4-.02,1.763-.061v.465c-.782.01-.871.121-.871.687v3.718a1.383,1.383,0,0,0,1.456,1.576c1.089,0,1.595-.667,1.595-2.041v-3.253c0-.566-.089-.677-.822-.687Z" transform="translate(-157.712 -202.056)" fill="#fff"></path>
      <path d="M201.949,204.1c-.149-.01-.317-.03-.466-.03s-.287.02-.426.03c-.119-.929-.6-1.678-1.605-1.678-1.288,0-2.011,1.152-2.011,2.83,0,2.364.525,3.415,1.882,3.415a2.331,2.331,0,0,0,1.1-.283V207c0-.394-.1-.586-.783-.586v-.465c.505.02,1,.04,1.506.04.525,0,1.06-.02,1.575-.04v.465c-.5,0-.595.192-.595.586V208.4a5.7,5.7,0,0,1-2.843.778c-2.23,0-3.825-1.2-3.825-3.587a3.562,3.562,0,0,1,3.646-3.668,4.728,4.728,0,0,1,2.8.889Z" transform="translate(-167.391 -201.922)" fill="#fff"></path>
      <path d="M212.724,208.744c.892-.01.981-.121.981-.687v-4.749c0-.566-.089-.677-.961-.687v-.465c.436.04,1.09.061,1.833.061s1.4-.02,1.853-.061v.465c-.872.01-.961.121-.961.687v4.749c0,.566.089.677.961.687v.465c-.456-.04-1.109-.061-1.853-.061s-1.4.02-1.853.061Z" transform="translate(-177.226 -202.056)" fill="#fff"></path>
      <path d="M221.357,208.744c.466-.01.6-.263.8-.818l1.734-4.961-.238-.808a6.853,6.853,0,0,0,.793.061c.327,0,.644-.031.971-.061.04.444,1.367,4.254,1.932,5.86.178.505.267.687.773.727v.465a13.342,13.342,0,0,0-1.555-.061,15.817,15.817,0,0,0-1.744.061v-.465c.555,0,.813-.111.813-.343a11.9,11.9,0,0,0-.436-1.354h-2.15c-.258.8-.446,1.233-.446,1.344,0,.263.188.344.594.354v.465a7.029,7.029,0,0,0-1.843,0Zm3.656-2.223-.862-2.728h-.019c-.06.212-.109.424-.238.8l-.664,1.93Z" transform="translate(-182.145 -202.056)" fill="#fff"></path>
    </g>
    <g transform="translate(102.385 133.887)">
      <path d="M171.3,227.635a4.735,4.735,0,0,0,.85-.7,2.882,2.882,0,0,0,.322.034,2.927,2.927,0,0,0,.317-.034c-.034.623-.05,1.717-.05,2.47v.873c0,.363.072.419.522.442v.226a8.951,8.951,0,0,0-1.016-.034,7.385,7.385,0,0,0-.928.034v-.226c.494-.023.567-.079.567-.442v-2.255c0-.295-.022-.352-.083-.352a1.665,1.665,0,0,0-.394.17Z" transform="translate(-171.305 -226.938)" fill="#fff"></path>
      <path d="M177.478,230.757a1.891,1.891,0,0,0,1.61-1.581l-.511.272a.613.613,0,0,1-.294.062,1.118,1.118,0,0,1-1.194-1.179,1.4,1.4,0,0,1,1.394-1.394A1.5,1.5,0,0,1,180,228.592a2.332,2.332,0,0,1-2.46,2.414Zm.966-3.524c-.35,0-.555.385-.555.72,0,.5.239,1.014.794,1.014a.921.921,0,0,0,.455-.158c.006-.114.006-.221.006-.334C179.144,228.031,178.994,227.233,178.444,227.233Z" transform="translate(-174.6 -226.938)" fill="#fff"></path>
      <path d="M186.53,231.006c-.861,0-1.45-.765-1.45-2.034s.589-2.034,1.45-2.034,1.449.765,1.449,2.034S187.391,231.006,186.53,231.006Zm0-3.773c-.394,0-.539.334-.539,1.74s.145,1.74.539,1.74.538-.335.538-1.74S186.925,227.233,186.53,227.233Z" transform="translate(-179.153 -226.938)" fill="#fff"></path>
      <path d="M193.4,227.818a.515.515,0,0,0-.544.351h-.244v-.011c0-.068.156-.6.228-1.167h.011c.022,0,.183.017.411.034s.533.034.828.034c.583,0,1.044-.011,1.4-.011a25.989,25.989,0,0,0-1.189,3.49c0,.17.045.187.173.261l-.039.216h-.012c-.017,0-.072-.017-.178-.034a3.1,3.1,0,0,0-.483-.034c-.244,0-.345.006-.438.012a26.975,26.975,0,0,1,1.444-3.139Z" transform="translate(-183.441 -226.968)" fill="#fff"></path>
    </g>
    <g transform="translate(56.789 99.008)">
      <path d="M71.835,159.4c-3.943,0-6.5-2.695-6.5-6.765s2.557-6.765,6.5-6.765,6.5,2.694,6.5,6.765S75.777,159.4,71.835,159.4Zm0-12.587c-1.8,0-2.9,1.074-2.9,5.822s1.1,5.822,2.9,5.822,2.9-1.074,2.9-5.822S73.635,146.817,71.835,146.817Z" transform="translate(-65.336 -145.875)" fill="#fff"></path>
      <path d="M98.4,148.461c0-1.055-.162-1.262-1.692-1.281v-.867h.036c.414,0,.81.019,1.278.057.468.018,1.026.056,1.782.056h3.168c3.6,0,5.4.829,5.4,3.58,0,1.752-.936,2.676-2.826,3.129,3.079,4.936,3.619,5.2,4.915,5.464v.867h-.036c-.252,0-2.2-.113-4.3-.113-1.242-1.809-2.466-3.656-3.744-5.766-.234.019-.5.019-.774.038v3.693c0,1.055.162,1.262,1.71,1.281v.867c-1.134-.075-2.286-.113-3.51-.113-1.512,0-2.232.113-3.06.113h-.036V158.6c1.53-.019,1.692-.226,1.692-1.281Zm3.2,4.184h.324c1.728,0,3.132-.83,3.132-2.6a2.337,2.337,0,0,0-2.629-2.638h-.828Z" transform="translate(-83.211 -146.125)" fill="#fff"></path>
      <path d="M139.818,159.352h-8.677c-.756,0-1.314.019-1.782.057-.468.019-.864.056-1.278.056h-.036V158.6c1.512-.019,1.674-.226,1.674-1.281v-8.856c0-1.055-.162-1.262-1.674-1.281v-.867c1.458.038,2.916.113,4.356.113,1.872,0,4.411-.075,6.625-.113l.144,3.015h-.99c-.468-1.715-1.188-2.035-3.726-2.035h-1.53v4.823h1.638c1.656,0,2.088-.283,2.2-1.658h.828v4.315h-.828c-.108-1.394-.54-1.677-2.2-1.677h-1.638v5.276h1.512c3.511,0,4.032-.245,5-2.506l.9.245Z" transform="translate(-101.063 -146.125)" fill="#fff"></path>
      <path d="M178.957,159.352h-7.615c-.756,0-1.314.019-1.782.057-.468.019-.864.056-1.278.056h-.036V158.6c1.566-.019,1.728-.226,1.728-1.281v-8.856c0-1.055-.162-1.262-1.728-1.281v-.867c.774.075,1.962.113,3.312.113s2.539-.038,3.385-.113v.867c-1.6.019-1.764.226-1.764,1.281v9.912h1.656c2.052,0,3.061-.452,3.727-2.336l.99.094Z" transform="translate(-123.967 -146.125)" fill="#fff"></path>
      <path d="M196.357,158.6c1.62-.019,1.782-.226,1.782-1.281v-8.856c0-1.055-.162-1.262-1.746-1.281v-.867c.792.075,1.98.113,3.331.113s2.538-.038,3.366-.113v.867c-1.585.019-1.746.226-1.746,1.281v8.856c0,1.055.162,1.262,1.746,1.281v.867c-.828-.075-2.017-.113-3.366-.113s-2.539.038-3.367.113Z" transform="translate(-139.983 -146.125)" fill="#fff"></path>
      <path d="M226.412,159.352h-8.677c-.756,0-1.314.019-1.782.057-.468.019-.864.056-1.278.056h-.036V158.6c1.512-.019,1.674-.226,1.674-1.281v-8.856c0-1.055-.162-1.262-1.674-1.281v-.867c1.458.038,2.916.113,4.357.113,1.872,0,4.411-.075,6.625-.113l.144,3.015h-.99c-.468-1.715-1.188-2.035-3.727-2.035h-1.53v4.823h1.638c1.656,0,2.088-.283,2.2-1.658h.828v4.315h-.828c-.108-1.394-.54-1.677-2.2-1.677h-1.638v5.276h1.512c3.51,0,4.032-.245,5-2.506l.9.245Z" transform="translate(-150.398 -146.125)" fill="#fff"></path>
      <path d="M250.928,157.317c0,1.055.162,1.262,1.764,1.281v.867c-.846-.075-2.034-.113-3.366-.113s-2.521.038-3.366.113V158.6c1.6-.019,1.764-.226,1.764-1.281v-9.911c-2.214,0-2.826.188-3.4,2.3h-.9l.144-3.392c.972.038,2.772.113,5.76.113s4.788-.075,5.761-.113l.144,3.392h-.9c-.576-2.11-1.188-2.3-3.4-2.3Z" transform="translate(-166.796 -146.125)" fill="#fff"></path>
      <path d="M283.138,159.352h-8.677c-.756,0-1.314.019-1.782.057-.468.019-.864.056-1.278.056h-.036V158.6c1.512-.019,1.674-.226,1.674-1.281v-8.856c0-1.055-.162-1.262-1.674-1.281v-.867c1.458.038,2.916.113,4.357.113,1.872,0,4.411-.075,6.625-.113l.144,3.015h-.99c-.468-1.715-1.188-2.035-3.727-2.035h-1.53v4.823h1.638c1.656,0,2.088-.283,2.2-1.658h.828v4.315h-.828c-.108-1.394-.54-1.677-2.2-1.677h-1.638v5.276h1.512c3.51,0,4.032-.245,5-2.506l.9.245Z" transform="translate(-182.717 -146.125)" fill="#fff"></path>
    </g>
    <g transform="translate(61.62 117.138)">
      <path d="M76.911,188.011H168.5a.378.378,0,0,1,0,.754H76.911a.378.378,0,0,1,0-.754Z" transform="translate(-76.562 -188.011)" fill="#ffad3a"></path>
    </g>
    <g transform="translate(84.319 135.475)">
      <path d="M129.674,230.629h14.657a.385.385,0,0,1,0,.768H129.674a.385.385,0,0,1,0-.768Z" transform="translate(-129.319 -230.629)" fill="#ffad3a"></path>
    </g>
    <g transform="translate(115.944 135.475)">
      <path d="M203.174,230.629h14.657a.385.385,0,0,1,0,.768H203.174a.385.385,0,0,1,0-.768Z" transform="translate(-202.819 -230.629)" fill="#ffad3a"></path>
    </g>
    <g transform="translate(65.825 91.636)">
      <path d="M86.615,132.057a272.887,272.887,0,0,1,84.821,0,.407.407,0,0,1,.28.417c0,.206-.125.354-.28.33a272.885,272.885,0,0,0-84.821,0c-.154.024-.28-.124-.28-.33A.407.407,0,0,1,86.615,132.057Z" transform="translate(-86.335 -128.741)" fill="#ffad3a"></path>
    </g>
    <g transform="translate(75.551 65.104)">
      <g transform="translate(49.907 18.023)">
        <g transform="translate(7.399 0.073)">
          <path d="M243.506,109.429a.771.771,0,1,0-.13,1.083A.773.773,0,0,0,243.506,109.429Z" transform="translate(-242.128 -109.135)" fill="#ffeac2"></path>
          <g transform="translate(2.349 0.241)">
            <path d="M248.619,109.914a.578.578,0,1,0-.1.811A.578.578,0,0,0,248.619,109.914Z" transform="translate(-247.586 -109.694)" fill="#ffeac2"></path>
          </g>
          <g transform="translate(4.018 1.107)">
            <path d="M252.3,111.884a.465.465,0,1,0-.077.653A.466.466,0,0,0,252.3,111.884Z" transform="translate(-251.466 -111.707)" fill="#ffeac2"></path>
          </g>
          <g transform="translate(5.073 2.236)">
            <path d="M254.508,114.457a.331.331,0,1,0-.055.465A.333.333,0,0,0,254.508,114.457Z" transform="translate(-253.917 -114.332)" fill="#ffeac2"></path>
          </g>
        </g>
        <path d="M236.762,112.951a2.422,2.422,0,0,0-1.713-1,2.79,2.79,0,0,0-1.754.382.174.174,0,0,0-.021.008,20.849,20.849,0,0,1-3.961,1.969,2.861,2.861,0,0,1-3.618-1.8,2.229,2.229,0,0,1,1.4-2.813,1.716,1.716,0,0,1,2.168,1.08,1.3,1.3,0,0,1-.82,1.651.981.981,0,0,1-1.24-.617.6.6,0,0,1,.037-.545.715.715,0,0,1,.415-.364.513.513,0,0,1,.647.322.324.324,0,1,0,.615-.207,1.163,1.163,0,0,0-1.468-.731,1.361,1.361,0,0,0-.791.691,1.19,1.19,0,0,0-.069,1.04,1.63,1.63,0,0,0,2.061,1.025,1.951,1.951,0,0,0,1.229-2.473,2.364,2.364,0,0,0-2.989-1.488,2.876,2.876,0,0,0-1.808,3.634,3.509,3.509,0,0,0,4.433,2.21,20.353,20.353,0,0,0,3.875-1.9.33.33,0,0,0,.112-.05,2.12,2.12,0,0,1,1.469-.367,1.766,1.766,0,0,1,1.252.721,1.443,1.443,0,0,1-.343,2.013,1.089,1.089,0,0,1-1.518-.258.809.809,0,0,1,.191-1.123.58.58,0,0,1,.434-.1.568.568,0,0,1,.37.234.332.332,0,1,0,.543-.382,1.227,1.227,0,0,0-.8-.507,1.241,1.241,0,0,0-.932.211,1.475,1.475,0,0,0-.348,2.049,1.755,1.755,0,0,0,2.447.415,2.109,2.109,0,0,0,.5-2.94Z" transform="translate(-224.931 -108.966)" fill="#ffad3a"></path>
      </g>
      <g transform="translate(1.27 18.023)">
        <g transform="translate(0 0.073)">
          <g transform="translate(4.192)">
            <path d="M121.8,109.429a.771.771,0,1,1,.13,1.083A.773.773,0,0,1,121.8,109.429Z" transform="translate(-121.635 -109.135)" fill="#ffeac2"></path>
          </g>
          <g transform="translate(2.23 0.241)">
            <path d="M117.2,109.914a.578.578,0,1,1,.1.811A.578.578,0,0,1,117.2,109.914Z" transform="translate(-117.075 -109.694)" fill="#ffeac2"></path>
          </g>
          <g transform="translate(0.785 1.107)">
            <path d="M113.818,111.884a.465.465,0,1,1,.077.653A.466.466,0,0,1,113.818,111.884Z" transform="translate(-113.718 -111.707)" fill="#ffeac2"></path>
          </g>
          <g transform="translate(0 2.236)">
            <path d="M111.963,114.457a.331.331,0,1,1,.056.465A.333.333,0,0,1,111.963,114.457Z" transform="translate(-111.892 -114.332)" fill="#ffeac2"></path>
          </g>
        </g>
        <path d="M125.954,110.577a2.867,2.867,0,0,0-1.676-1.489,2.364,2.364,0,0,0-2.989,1.488,1.952,1.952,0,0,0,1.229,2.473,1.63,1.63,0,0,0,2.061-1.025,1.19,1.19,0,0,0-.069-1.04,1.361,1.361,0,0,0-.791-.691,1.163,1.163,0,0,0-1.468.731.324.324,0,1,0,.615.207.513.513,0,0,1,.647-.322.715.715,0,0,1,.414.364.6.6,0,0,1,.037.545.981.981,0,0,1-1.24.617,1.294,1.294,0,0,1-.752-.655,1.281,1.281,0,0,1-.068-1,1.716,1.716,0,0,1,2.168-1.08,2.229,2.229,0,0,1,1.4,2.813,2.861,2.861,0,0,1-3.618,1.8,20.85,20.85,0,0,1-3.961-1.969.17.17,0,0,0-.021-.008,2.79,2.79,0,0,0-1.754-.382,2.422,2.422,0,0,0-1.713,1,2.108,2.108,0,0,0,.5,2.94,1.755,1.755,0,0,0,2.447-.415,1.475,1.475,0,0,0-.349-2.049,1.241,1.241,0,0,0-.932-.211,1.227,1.227,0,0,0-.8.507.332.332,0,1,0,.543.382.569.569,0,0,1,.37-.234.579.579,0,0,1,.434.1.809.809,0,0,1,.191,1.123,1.089,1.089,0,0,1-1.518.258,1.443,1.443,0,0,1-.343-2.013,1.767,1.767,0,0,1,1.252-.721,2.119,2.119,0,0,1,1.469.367.328.328,0,0,0,.112.05,20.338,20.338,0,0,0,3.875,1.9,3.509,3.509,0,0,0,4.433-2.21A2.862,2.862,0,0,0,125.954,110.577Z" transform="translate(-113.102 -108.966)" fill="#ffad3a"></path>
      </g>
      <g clip-path="url(#c)">
        <g transform="translate(14.177 2.784)">
          <path d="M159.846,109.459A17.956,17.956,0,1,1,177.8,91.5,17.976,17.976,0,0,1,159.846,109.459Zm0-35.2A17.244,17.244,0,1,0,177.089,91.5,17.263,17.263,0,0,0,159.846,74.259Z" transform="translate(-141.89 -73.548)" fill="#ffad3a"></path>
        </g>
        <g transform="translate(16.681 5.295)">
          <g transform="translate(0.054 0.047)">
            <path d="M178.629,94.889a15.4,15.4,0,1,0-15.4,15.4A15.4,15.4,0,0,0,178.629,94.889Z" transform="translate(-147.835 -79.492)" fill="#fff"></path>
          </g>
          <path d="M163.182,79.383a15.473,15.473,0,1,1-10.942,4.532,15.424,15.424,0,0,1,10.942-4.532Zm10.846,4.628a15.338,15.338,0,1,0,4.493,10.846,15.289,15.289,0,0,0-4.493-10.846Z" transform="translate(-147.709 -79.383)" fill="#00224b"></path>
          <path d="M169.967,86.345l-.051.092-.861-.477.051-.092.071.039a.215.215,0,0,0,.249-.022,1.405,1.405,0,0,0,.249-.365l1.213-2.187a2.145,2.145,0,0,0,.169-.35.25.25,0,0,0,0-.141.23.23,0,0,0-.1-.136l-.071-.039.051-.093.861.477-.052.093-.073-.04a.214.214,0,0,0-.247.023,1.352,1.352,0,0,0-.251.364l-1.212,2.187a2.111,2.111,0,0,0-.169.35.246.246,0,0,0,0,.142.226.226,0,0,0,.1.136l.073.04Zm-7.084-3.734.523,1.2a3.83,3.83,0,0,0,.315.629.3.3,0,0,0,.233.134l.007.1-.873.062-.007-.1a.22.22,0,0,0,.126-.044.174.174,0,0,0,.047-.081.312.312,0,0,0,.012-.108.678.678,0,0,0-.022-.13c-.01-.032-.043-.114-.1-.245l-.414-.966-.354,1.066a1.994,1.994,0,0,0-.065.226.453.453,0,0,0-.006.117.265.265,0,0,0,.051.148.194.194,0,0,0,.16.059l.007.1-.722.05-.007-.1a.3.3,0,0,0,.128-.069.865.865,0,0,0,.163-.212,2.306,2.306,0,0,0,.165-.4l.4-1.184-.478-1.086a2.352,2.352,0,0,0-.319-.574.362.362,0,0,0-.273-.132l-.008-.105.941-.066.007.105a.206.206,0,0,0-.159.086.255.255,0,0,0-.034.148,1.026,1.026,0,0,0,.093.3l.374.864.3-.894a1.969,1.969,0,0,0,.063-.216.5.5,0,0,0,.006-.119.272.272,0,0,0-.026-.1.17.17,0,0,0-.062-.08.287.287,0,0,0-.144-.017l-.008-.106.722-.051.008.106a.271.271,0,0,0-.136.06.7.7,0,0,0-.136.187,3.35,3.35,0,0,0-.161.424l-.335,1.008Zm2.075,2.012-.007.1-.872-.061.007-.1.072.006a.193.193,0,0,0,.193-.127,1.586,1.586,0,0,0,.067-.436l.174-2.5a2.389,2.389,0,0,0,.008-.388.262.262,0,0,0-.053-.127.191.191,0,0,0-.134-.077l-.072-.005.007-.106.872.061-.007.105-.074-.005a.192.192,0,0,0-.191.126,1.519,1.519,0,0,0-.068.436l-.175,2.5a2.421,2.421,0,0,0-.007.389.254.254,0,0,0,.054.126.189.189,0,0,0,.132.079l.074.005Zm1.026.108-.012.1-.868-.107.013-.1.072.009a.193.193,0,0,0,.2-.117,1.568,1.568,0,0,0,.089-.432l.305-2.483a2.419,2.419,0,0,0,.028-.388.27.27,0,0,0-.046-.129.194.194,0,0,0-.129-.084l-.071-.009.013-.1.867.106-.013.106-.073-.009a.192.192,0,0,0-.2.116,1.561,1.561,0,0,0-.091.432l-.305,2.483a2.42,2.42,0,0,0-.028.387.258.258,0,0,0,.047.129.187.187,0,0,0,.128.085l.073.009Zm-9.411.047,1.1.74a3.768,3.768,0,0,0,.614.364.332.332,0,0,0,.286-.017l.061.086-.783.548-.06-.086a.266.266,0,0,0,.1-.11.18.18,0,0,0,0-.1.281.281,0,0,0-.044-.1.579.579,0,0,0-.087-.1c-.025-.022-.1-.073-.218-.154l-.879-.6.213,1.118a1.93,1.93,0,0,0,.055.232.425.425,0,0,0,.054.1.254.254,0,0,0,.123.1.221.221,0,0,0,.179-.041l.06.086-.647.453-.061-.086a.334.334,0,0,0,.084-.132.9.9,0,0,0,.044-.275,2.269,2.269,0,0,0-.049-.437l-.231-1.246-1-.663a2.268,2.268,0,0,0-.589-.312.4.4,0,0,0-.322.042l-.061-.087.844-.591.061.087a.234.234,0,0,0-.105.164.243.243,0,0,0,.044.146.948.948,0,0,0,.242.208l.789.531-.176-.941a1.853,1.853,0,0,0-.051-.221.494.494,0,0,0-.055-.105.257.257,0,0,0-.077-.074.168.168,0,0,0-.1-.033.342.342,0,0,0-.143.067l-.061-.086.647-.453.061.086a.3.3,0,0,0-.1.13.7.7,0,0,0-.031.238,3.2,3.2,0,0,0,.065.456l.2,1.058Zm3.036.681.043.1-.872.388-.043-.1.072-.032a.209.209,0,0,0,.126-.21,1.439,1.439,0,0,0-.142-.418L157.776,82.9a2.263,2.263,0,0,0-.177-.346.264.264,0,0,0-.111-.085.224.224,0,0,0-.167,0l-.072.032-.043-.1.872-.389.043.1-.074.033a.207.207,0,0,0-.124.208,1.38,1.38,0,0,0,.141.418l1.018,2.285a2.176,2.176,0,0,0,.177.346.247.247,0,0,0,.113.084.217.217,0,0,0,.165,0l.074-.033Zm-6.96,3.549,1.307.213a3.736,3.736,0,0,0,.707.075.324.324,0,0,0,.25-.132l.091.052-.469.811-.091-.052a.259.259,0,0,0,.039-.138.189.189,0,0,0-.04-.087.287.287,0,0,0-.083-.072.632.632,0,0,0-.12-.053c-.032-.009-.119-.025-.262-.049l-1.045-.176.671.916a2.047,2.047,0,0,0,.148.186.465.465,0,0,0,.093.071.253.253,0,0,0,.152.038.215.215,0,0,0,.143-.109l.091.053-.387.671-.091-.052a.33.33,0,0,0,.019-.153.9.9,0,0,0-.078-.264,2.252,2.252,0,0,0-.231-.371l-.74-1.023-1.182-.186a2.287,2.287,0,0,0-.663-.039.4.4,0,0,0-.271.169l-.092-.053.5-.874.092.053a.224.224,0,0,0-.024.19.243.243,0,0,0,.1.114.957.957,0,0,0,.306.088l.936.154-.56-.771a1.979,1.979,0,0,0-.141-.177.5.5,0,0,0-.095-.072.259.259,0,0,0-.1-.035.172.172,0,0,0-.1.011.33.33,0,0,0-.1.119l-.092-.053.387-.671.092.053a.3.3,0,0,0-.031.155.7.7,0,0,0,.074.227,3.249,3.249,0,0,0,.254.383l.634.866Zm.218,7.3.1-.008.056.813-.1.007,0-.067a.181.181,0,0,0-.151-.16,1.7,1.7,0,0,0-.441,0l-2.5.175a2.524,2.524,0,0,0-.386.045.269.269,0,0,0-.119.066.174.174,0,0,0-.059.133l0,.068-.106.007-.057-.813.106-.007,0,.068c.006.077.056.13.151.16a1.63,1.63,0,0,0,.441,0l2.5-.175a2.647,2.647,0,0,0,.385-.045.263.263,0,0,0,.118-.068.173.173,0,0,0,.06-.132l0-.068Zm-2.041-1.364,1.252-.365a3.988,3.988,0,0,0,.658-.229.279.279,0,0,0,.158-.2l.1,0-.028.815-.105,0a.2.2,0,0,0-.031-.122.182.182,0,0,0-.077-.051.316.316,0,0,0-.106-.023.71.71,0,0,0-.132.008q-.049.008-.254.068l-1,.288,1.024.434a2.033,2.033,0,0,0,.219.083.5.5,0,0,0,.115.017.282.282,0,0,0,.152-.033.177.177,0,0,0,.074-.142l.105,0-.024.674-.1,0a.272.272,0,0,0-.056-.126.842.842,0,0,0-.194-.172,2.387,2.387,0,0,0-.379-.193l-1.136-.488-1.129.335a2.411,2.411,0,0,0-.6.238.335.335,0,0,0-.158.24l-.107,0,.031-.879.106,0a.187.187,0,0,0,.068.156.274.274,0,0,0,.144.046,1.075,1.075,0,0,0,.311-.056l.9-.261-.859-.368a1.973,1.973,0,0,0-.208-.079.539.539,0,0,0-.117-.018.3.3,0,0,0-.106.013.168.168,0,0,0-.085.05.253.253,0,0,0-.032.132l-.106,0,.024-.674.106,0a.235.235,0,0,0,.046.132.667.667,0,0,0,.172.145,3.57,3.57,0,0,0,.4.193l.969.411Zm.572,8.677.087-.061a.259.259,0,0,0,.184.035,1.856,1.856,0,0,0,.417-.151l3.033-1.412.026.037-2.375,2.427a3.1,3.1,0,0,0-.218.236.392.392,0,0,0-.07.141.207.207,0,0,0,.017.136l-.087.061-.392-.559.087-.061a.21.21,0,0,0,.161.071.36.36,0,0,0,.158-.068,2.632,2.632,0,0,0,.332-.3l1.615-1.649-2.061.961a3.16,3.16,0,0,0-.41.216.359.359,0,0,0-.109.12.2.2,0,0,0-.018.16l.005.023-.087.06-.3-.422Zm2.7-2.845.092-.051.347.627-.092.051-.028-.052c-.034-.06-.1-.081-.2-.063a1.89,1.89,0,0,0-.4.187l-2.188,1.213a2.812,2.812,0,0,0-.331.2.278.278,0,0,0-.083.1.148.148,0,0,0,0,.132l.028.052-.093.052-.347-.626.093-.052.029.053c.033.06.1.08.194.063a1.812,1.812,0,0,0,.4-.186l2.188-1.213a2.945,2.945,0,0,0,.331-.2.278.278,0,0,0,.083-.1.148.148,0,0,0,.006-.132l-.029-.053Zm-.365-.8.1-.043.291.654-.1.043-.024-.054q-.042-.095-.19-.08a1.906,1.906,0,0,0-.413.151l-2.285,1.018a2.839,2.839,0,0,0-.348.173.283.283,0,0,0-.092.1.147.147,0,0,0-.016.131l.024.054-.1.043-.292-.654.1-.043.025.055c.028.063.091.089.188.08a1.82,1.82,0,0,0,.414-.15l2.285-1.018a2.91,2.91,0,0,0,.348-.173.278.278,0,0,0,.091-.1.147.147,0,0,0,.018-.131l-.025-.055Zm-.31-.781.1-.037.257.669-.1.037-.021-.055c-.024-.064-.086-.094-.185-.089a1.89,1.89,0,0,0-.421.129l-2.336.9a2.913,2.913,0,0,0-.356.154.288.288,0,0,0-.1.091.152.152,0,0,0-.023.131l.021.055-.1.038-.257-.669.1-.038.022.056c.024.064.086.093.183.089a1.817,1.817,0,0,0,.421-.128l2.335-.9a2.866,2.866,0,0,0,.356-.154.275.275,0,0,0,.1-.093.146.146,0,0,0,.025-.13l-.022-.057Zm3.706,9.627.045-.1a.275.275,0,0,0,.19-.056,1.714,1.714,0,0,0,.3-.334l1.975-2.714.046.021-.784,3.317a2.927,2.927,0,0,0-.064.316.372.372,0,0,0,.017.16.233.233,0,0,0,.094.115l-.045.1-.683-.319.045-.1a.237.237,0,0,0,.189-.012.336.336,0,0,0,.106-.136,2.454,2.454,0,0,0,.131-.43l.533-2.255-1.341,1.846a2.943,2.943,0,0,0-.252.39.33.33,0,0,0-.031.16.219.219,0,0,0,.075.153l.017.018-.045.1-.516-.241Zm.8-3.83.053-.091.685.395-.052.092-.057-.033a.177.177,0,0,0-.214.039,1.717,1.717,0,0,0-.248.364l-1.251,2.167a2.577,2.577,0,0,0-.178.344.268.268,0,0,0-.013.134.169.169,0,0,0,.074.122l.057.033-.053.092-.685-.4.053-.092.058.034a.177.177,0,0,0,.212-.038,1.671,1.671,0,0,0,.25-.364l1.251-2.166a2.636,2.636,0,0,0,.178-.345.261.261,0,0,0,.012-.135.168.168,0,0,0-.073-.122l-.058-.034Zm-.76-.549.062-.085.64.465-.062.085-.052-.038a.177.177,0,0,0-.217.016,1.7,1.7,0,0,0-.285.336l-1.47,2.024a2.585,2.585,0,0,0-.214.324.268.268,0,0,0-.027.132.168.168,0,0,0,.061.129l.053.038-.062.086-.64-.465.062-.086.054.039a.177.177,0,0,0,.215-.016,1.638,1.638,0,0,0,.286-.335l1.47-2.024a2.555,2.555,0,0,0,.213-.324.259.259,0,0,0,.026-.133.167.167,0,0,0-.06-.129l-.054-.039Zm6.778,6.1-.009-.105a.3.3,0,0,0,.151-.145,1.607,1.607,0,0,0,.1-.439l.414-3.343.054-.005,1.043,3.259a2.8,2.8,0,0,0,.109.305.364.364,0,0,0,.1.13.269.269,0,0,0,.151.052l.009.106-.82.072-.009-.106a.26.26,0,0,0,.173-.106.316.316,0,0,0,.027-.172,2.207,2.207,0,0,0-.107-.438l-.708-2.216-.278,2.273a2.745,2.745,0,0,0-.03.464.317.317,0,0,0,.057.155.238.238,0,0,0,.154.093l.026.006.009.106-.619.054Zm-1.345-3.905.009-.1.861.076-.009.1-.071-.006a.189.189,0,0,0-.192.124,1.557,1.557,0,0,0-.074.435l-.218,2.492a2.407,2.407,0,0,0-.015.388.258.258,0,0,0,.05.127.19.19,0,0,0,.131.08l.071.006-.009.106-.861-.075.009-.106.073.006a.188.188,0,0,0,.191-.123,1.542,1.542,0,0,0,.076-.435l.218-2.492a2.456,2.456,0,0,0,.015-.388.255.255,0,0,0-.052-.127.187.187,0,0,0-.129-.081l-.073-.006Zm7.828,2.372-.053-.092a.31.31,0,0,0,.088-.2,1.5,1.5,0,0,0-.083-.447l-.984-3.236.052-.03,2.38,2.479a2.493,2.493,0,0,0,.235.227.369.369,0,0,0,.155.07.3.3,0,0,0,.17-.024l.053.092-.776.448-.053-.092a.3.3,0,0,0,.126-.177.3.3,0,0,0-.046-.169,2.089,2.089,0,0,0-.287-.348l-1.618-1.686.672,2.2a2.545,2.545,0,0,0,.164.437.3.3,0,0,0,.12.114.256.256,0,0,0,.19.012l.028-.006.053.092-.586.338Zm3.156-7.93-.095-.048.384-.753.094.047-.032.062a.186.186,0,0,0,.044.222,1.612,1.612,0,0,0,.376.231l2.229,1.136a2.609,2.609,0,0,0,.354.16.274.274,0,0,0,.137,0,.186.186,0,0,0,.122-.088l.031-.062.095.048-.384.753-.095-.048.033-.063a.186.186,0,0,0-.045-.22,1.535,1.535,0,0,0-.375-.232l-2.229-1.136a2.471,2.471,0,0,0-.354-.159.253.253,0,0,0-.137,0,.183.183,0,0,0-.122.086l-.032.064Zm1.844,3.962-.087-.061a.288.288,0,0,0-.016-.2,1.634,1.634,0,0,0-.273-.358l-2.3-2.453.031-.044,3.158,1.309a2.759,2.759,0,0,0,.3.114.38.38,0,0,0,.164.006.258.258,0,0,0,.135-.08l.087.061-.462.66-.087-.061a.257.257,0,0,0,.028-.2.316.316,0,0,0-.115-.13,2.265,2.265,0,0,0-.4-.2l-2.147-.891,1.568,1.666a2.674,2.674,0,0,0,.337.32.324.324,0,0,0,.154.057.237.237,0,0,0,.169-.056l.021-.015.087.061-.349.5Zm-.447-9.973-.1.009-.076-.87.1-.009.006.072a.192.192,0,0,0,.156.17,1.573,1.573,0,0,0,.441,0L178,94.222a2.43,2.43,0,0,0,.384-.053.263.263,0,0,0,.117-.072.193.193,0,0,0,.056-.144l-.006-.072.106-.009.076.87-.105.009-.007-.074a.19.19,0,0,0-.154-.169,1.507,1.507,0,0,0-.441,0l-2.492.218a2.451,2.451,0,0,0-.385.053.26.26,0,0,0-.117.074.189.189,0,0,0-.057.142l.006.074Zm.022,1-.1,0-.031-.873.105,0,0,.072a.193.193,0,0,0,.146.178,1.571,1.571,0,0,0,.441.021l2.5-.087a2.516,2.516,0,0,0,.387-.033.261.261,0,0,0,.12-.066.19.19,0,0,0,.064-.141l0-.072.106,0,.031.873-.106,0,0-.074a.192.192,0,0,0-.145-.177,1.518,1.518,0,0,0-.441-.022l-2.5.087a2.409,2.409,0,0,0-.387.033.248.248,0,0,0-.12.067A.191.191,0,0,0,175,96l0,.074Zm-.09,1.061-.1-.007.061-.871.1.007,0,.072a.192.192,0,0,0,.127.193,1.555,1.555,0,0,0,.436.067l2.5.175a2.36,2.36,0,0,0,.388.007.258.258,0,0,0,.127-.052.192.192,0,0,0,.078-.133l.005-.072.106.008-.061.871-.106-.007,0-.074a.192.192,0,0,0-.126-.191,1.515,1.515,0,0,0-.436-.069l-2.5-.174a2.384,2.384,0,0,0-.388-.008.254.254,0,0,0-.127.054.188.188,0,0,0-.079.132l-.005.073Zm-1.394-7.02-.088.058-.532-.82.088-.057.044.068a.212.212,0,0,0,.23.1,1.407,1.407,0,0,0,.391-.205l2.1-1.362a2.2,2.2,0,0,0,.313-.229.253.253,0,0,0,.065-.125.225.225,0,0,0-.027-.167l-.044-.067.089-.058.533.819-.089.058-.045-.069a.212.212,0,0,0-.227-.094,1.338,1.338,0,0,0-.392.2l-2.1,1.363a2.19,2.19,0,0,0-.313.229.248.248,0,0,0-.064.126.218.218,0,0,0,.025.166l.045.069Zm.52.99-.093.049-.459-.863.093-.049.038.071a.213.213,0,0,0,.22.115,1.416,1.416,0,0,0,.407-.17l2.208-1.175a2.125,2.125,0,0,0,.332-.2.257.257,0,0,0,.076-.118.226.226,0,0,0-.012-.169l-.038-.071.094-.05.459.863-.094.049-.039-.073a.212.212,0,0,0-.218-.114,1.367,1.367,0,0,0-.408.169L174.4,90.542a2.143,2.143,0,0,0-.332.2.244.244,0,0,0-.076.12.223.223,0,0,0,.011.168l.038.073Z" transform="translate(-148.479 -80.193)" fill="#00224b"></path>
          <path d="M164.6,92.506l-.223-.386q.368-.207.754-.383l.182.407q-.365.167-.713.362Zm4.795-2.212a10.78,10.78,0,1,1-7.622,3.157,10.746,10.746,0,0,1,7.622-3.157Zm7.527,3.252a10.644,10.644,0,1,0,3.118,7.527,10.612,10.612,0,0,0-3.118-7.527Zm-12.779-1.291.223.386q-.343.205-.669.437l-.262-.361q.344-.245.708-.463Zm5.4-1q.4.005.8.043l.046-.444q-.418-.04-.844-.046v.447Zm.99.062q.419.048.828.13l.093-.436q-.43-.087-.874-.138l-.047.444Zm1.017.17q.412.091.809.216l.139-.425q-.421-.132-.855-.228l-.092.437Zm.993.276q.4.134.782.3l.182-.408q-.4-.175-.827-.317l-.137.424Zm.959.379q.364.167.713.362l.223-.386q-.368-.207-.754-.383l-.181.407Zm.947.5q.343.205.669.437l.262-.361q-.344-.245-.708-.463l-.223.386Zm.825.551q.337.25.651.528l.3-.332q-.331-.293-.688-.557l-.262.361Zm.795.657q.154.142.3.29c.1.1.2.2.29.3l.331-.3c-.1-.108-.2-.215-.306-.319s-.211-.207-.32-.306l-.3.331Zm.722.736q.277.314.528.651l.361-.262q-.264-.356-.557-.688l-.331.3Zm.641.807q.232.325.437.669l.387-.224q-.218-.363-.463-.708l-.361.262Zm.573.9c.13.232.251.469.362.713l.408-.182q-.177-.385-.383-.754l-.387.223Zm.441.889q.167.383.3.783l.425-.138c-.1-.281-.2-.556-.318-.826l-.408.181Zm.361.966q.125.4.216.809l.436-.093q-.1-.435-.228-.855l-.424.138Zm.256,1q.082.408.13.827l.444-.046q-.05-.443-.137-.874l-.437.093Zm.15,1.019q.037.395.043.8h.446q-.005-.427-.045-.844l-.444.046Zm.043,1.069q-.006.4-.043.8l.444.046q.039-.418.045-.844Zm-.063.99q-.048.419-.13.828l.437.092q.087-.43.137-.874l-.444-.046Zm-.17,1.017q-.092.411-.216.809l.424.138q.132-.42.228-.855l-.436-.092Zm-.276.993q-.134.4-.3.782l.408.182c.117-.269.222-.545.318-.826l-.425-.138Zm-.379.959c-.111.243-.232.481-.362.713l.387.223q.206-.367.383-.754l-.408-.182Zm-.5.947q-.205.343-.437.669l.361.262q.245-.343.463-.708l-.387-.223Zm-.55.824q-.251.338-.528.651l.331.3q.293-.332.557-.688l-.361-.262Zm-.657.795c-.095.1-.192.2-.29.3s-.2.2-.3.29l.3.331c.109-.1.216-.2.32-.306s.206-.211.306-.32l-.331-.3Zm-.736.722q-.314.277-.651.528l.262.361q.356-.264.688-.557l-.3-.331Zm-.807.642q-.325.232-.669.437l.223.387q.364-.218.708-.463l-.262-.361Zm-.9.573q-.349.195-.713.362l.181.407q.387-.176.754-.383l-.223-.387Zm-.889.44q-.383.167-.782.3l.137.425q.422-.141.827-.317l-.182-.408Zm-.966.361q-.4.125-.809.216l.092.436q.434-.1.855-.228l-.139-.424Zm-1,.256q-.408.082-.828.13l.047.444q.443-.05.874-.138l-.093-.436Zm-1.02.15q-.394.037-.8.043v.446q.427-.005.844-.045l-.046-.444Zm-1.069.043q-.4-.006-.8-.043l-.047.444q.418.039.845.045v-.446Zm-.99-.062q-.42-.048-.828-.13l-.093.436q.43.088.874.138l.047-.444Zm-1.017-.17q-.412-.092-.81-.216l-.138.424q.42.132.855.228l.093-.436Zm-.994-.276q-.4-.134-.783-.3l-.182.408q.4.176.827.317l.138-.425Zm-.959-.379q-.365-.167-.713-.362l-.223.387q.367.206.754.383l.182-.407Zm-.947-.5q-.343-.205-.669-.437l-.262.361q.344.245.708.463l.223-.387Zm-.825-.55q-.337-.251-.651-.528l-.3.331q.332.294.688.557l.262-.361Zm-.794-.657q-.154-.142-.3-.29t-.29-.3l-.331.3q.15.163.305.32c.1.1.211.207.32.306l.3-.331Zm-.722-.736q-.277-.314-.527-.651l-.361.262q.264.356.557.688l.331-.3Zm-.641-.807q-.232-.325-.437-.669l-.387.223q.218.364.463.708l.361-.262Zm-.573-.9c-.13-.231-.251-.47-.361-.713l-.408.182q.177.386.383.754l.386-.223Zm-.44-.889q-.166-.383-.3-.782l-.424.138q.141.421.317.826l.408-.182Zm-.361-.966q-.125-.4-.216-.809l-.436.092q.1.434.229.855l.424-.138Zm-.256-1q-.082-.409-.13-.828l-.444.046c.033.3.08.587.138.874l.436-.092Zm-.15-1.02q-.037-.394-.043-.8h-.447q.006.427.046.844l.444-.046Zm-.043-1.069q.005-.4.043-.8l-.444-.046q-.039.417-.046.844Zm.062-.99q.048-.42.13-.827l-.436-.093c-.058.287-.1.579-.138.874l.444.046Zm.17-1.017q.092-.411.216-.809l-.424-.138q-.132.42-.229.855l.436.093Zm.276-.993q.134-.4.3-.783L159.964,97q-.176.4-.317.826l.424.138Zm.379-.959c.111-.243.232-.481.361-.713l-.386-.223q-.207.368-.383.754l.408.182Zm.5-.947q.205-.345.437-.669l-.361-.262q-.245.344-.463.708l.387.224Zm.551-.825q.25-.337.527-.651l-.331-.3q-.293.331-.557.688l.361.262Zm.657-.794q.142-.155.29-.3t.3-.29l-.3-.331q-.163.149-.32.306t-.305.319l.331.3Zm.736-.722q.314-.277.651-.528l-.262-.361q-.356.264-.688.557l.3.332Zm2.6-1.655q.383-.167.783-.3l-.138-.424q-.422.141-.827.317l.182.408Zm.966-.36q.4-.125.81-.216l-.093-.437q-.434.1-.855.228l.138.425Zm1-.256q.408-.082.828-.13l-.047-.444q-.443.05-.874.138l.093.437Zm1.02-.15q.394-.037.8-.043v-.447q-.427.006-.845.046l.047.444Zm7.834,2.9a9.758,9.758,0,1,0,2.859,6.9,9.729,9.729,0,0,0-2.859-6.9Zm-6.9-3.481a10.381,10.381,0,1,1-7.341,3.04,10.35,10.35,0,0,1,7.341-3.04Z" transform="translate(-153.924 -85.599)" fill="#00224b" fill-rule="evenodd"></path>
          <g transform="translate(7.03 8.232)">
            <path d="M186.937,105.467a.552.552,0,0,1,.309.179.487.487,0,0,1,.584-.348.314.314,0,0,1,.1.481.24.24,0,0,1-.239.114.132.132,0,0,1-.094-.176.159.159,0,0,1,.089-.085,1.079,1.079,0,0,0,.124-.031c.062-.031.035-.114-.058-.138a.337.337,0,0,0-.358.16.414.414,0,0,0-.053.207.589.589,0,0,1-.139.556l.674-.425.355-.506a20.624,20.624,0,0,0,2.944-1.427.048.048,0,1,1,.051.081,20.694,20.694,0,0,0-2.556,2.043l-.609.1-.674.426a.589.589,0,0,1,.562.114.41.41,0,0,0,.21.041.337.337,0,0,0,.3-.254c.018-.095-.044-.154-.1-.112-.032.025-.022.033-.081.1a.159.159,0,0,1-.115.043.131.131,0,0,1-.118-.16.241.241,0,0,1,.205-.167.314.314,0,0,1,.39.3.487.487,0,0,1-.565.377.554.554,0,0,1,.029.356.78.78,0,0,1-.894.515l-.04-.011a.456.456,0,0,1,.046.056.84.84,0,0,1-.32,1.12,1.231,1.231,0,0,1-1.64-.133,1.157,1.157,0,0,1-.239-.688l-1.332.84-.185-.3,1.331-.84a1.157,1.157,0,0,1-.518-.512,1.232,1.232,0,0,1,.586-1.538.84.84,0,0,1,1.148.194.434.434,0,0,1,.031.065c0-.013,0-.027.007-.04a.778.778,0,0,1,.85-.585Zm.05,2.224a.243.243,0,0,1-.028-.161.361.361,0,0,1,.317-.278.2.2,0,0,1,.176.081c.06.119.038.133.077.179.068.078.22-.025.252-.194a.388.388,0,0,0-.359-.463.871.871,0,0,0-.423.075l-1.382.872a.716.716,0,0,0-.177.864.825.825,0,0,0,1.228.029.431.431,0,0,0-.018-.627h0a.449.449,0,0,1-.209.2.335.335,0,0,1-.469-.139.383.383,0,0,1,.229-.463.452.452,0,0,1,.1-.032.97.97,0,0,1,.69.062Zm-.174-1.058a.876.876,0,0,0,.25-.349.387.387,0,0,0-.264-.524c-.165-.044-.324.048-.283.143.024.055.046.041.128.147a.2.2,0,0,1,0,.193.36.36,0,0,1-.388.166.24.24,0,0,1-.133-.095.97.97,0,0,1-.241.649.468.468,0,0,1-.072.074.384.384,0,0,1-.517.008.336.336,0,0,1,.077-.484.442.442,0,0,1,.268-.1h0a.431.431,0,0,0-.559-.287.825.825,0,0,0-.5,1.121.716.716,0,0,0,.856.212l1.382-.872Z" transform="translate(-175.132 -101.653)" fill="#00224b" fill-rule="evenodd"></path>
            <path d="M172.509,105.766h0l-.136.159-.131-.115c-1.166.127-1.738-.69-2.3-1.537-.333-.506-1.145-1.561-1.673-1.592a.528.528,0,0,0-.566.678.589.589,0,0,0,.524.384h0a.307.307,0,0,1-.065-.239.24.24,0,0,1,.334-.171.537.537,0,0,1,.273.417c-.01.1-.01.052-.019.074a.552.552,0,0,1-.636.349,1.077,1.077,0,0,1-.77-.879.736.736,0,0,1,.067-.454.97.97,0,0,1-.988-.944.616.616,0,0,1,.863-.469l-.245-.217-1.48-1.268-.315-.1a9.887,9.887,0,0,0-1.131-1.222l-.012-.011a.105.105,0,0,1-.018-.019l-.028-.028a.026.026,0,1,1,.034-.04l.031.023a.125.125,0,0,1,.023.015l.014.012a9.9,9.9,0,0,0,1.379.928l.147.3,1.48,1.268.251.209a.616.616,0,0,1,.331-.924.969.969,0,0,1,1.085.831.734.734,0,0,1,.438-.136,1.078,1.078,0,0,1,.987.626.552.552,0,0,1-.247.681c-.021.013.021.006-.071.031a.534.534,0,0,1-.455-.206.239.239,0,0,1,.117-.355.306.306,0,0,1,.247.026h0a.589.589,0,0,0-.46-.458.527.527,0,0,0-.583.663c.112.518,1.28,1.158,1.83,1.41.923.422,1.817.862,1.871,2.033l.135.111-.136.159Zm-3.91-4.276a.807.807,0,0,0-.058-.425.642.642,0,0,0-.678-.372c-.192.037-.265.2-.148.269.068.041.077.017.241.078a.3.3,0,0,1,.157.185.277.277,0,0,1-.227.34.353.353,0,0,1-.117,0l.915.759a1.037,1.037,0,0,1-.129-.317.906.906,0,0,1,.043-.516Zm1.4,1.926,2.4,1.992a2.892,2.892,0,0,0-1.831-1.706c-.175-.079-.372-.176-.572-.287Zm2.137,2.3L169.8,103.65c.14.181.266.361.372.521a2.892,2.892,0,0,0,1.967,1.547Zm-3.619-3.2-.89-.788a.357.357,0,0,1,.019.115.277.277,0,0,1-.3.276.3.3,0,0,1-.207-.126c-.085-.152-.063-.165-.114-.225-.088-.1-.238-.009-.244.186a.642.642,0,0,0,.472.613.8.8,0,0,0,.429-.008.91.91,0,0,1,.5-.122,1.035,1.035,0,0,1,.333.079Z" transform="translate(-164.048 -98.516)" fill="#00224b" fill-rule="evenodd"></path>
            <path d="M183.387,114.356a.435.435,0,1,1-.6.114A.435.435,0,0,1,183.387,114.356Z" transform="translate(-174.678 -107.497)" fill="#00224b" fill-rule="evenodd"></path>
          </g>
        </g>
      </g>
    </g>
  </g>
</svg>
