<svg xmlns="http://www.w3.org/2000/svg" xmlns:xlink="http://www.w3.org/1999/xlink" width="219.998" height="127.316" viewBox="0 0 219.998 127.316">
  <defs>
    <clipPath id="clip-path">
      <rect id="Rettangolo_13" data-name="Rettangolo 13" width="219.998" height="127.316" fill="none"/>
    </clipPath>
  </defs>
  <g id="Raggruppa_1508" data-name="Raggruppa 1508" clip-path="url(#clip-path)">
    <path id="Tracciato_18233" data-name="Tracciato 18233" d="M12.4,45.152v41.27h2.822l.41-.4V47.594L12.8,44.755Zm204.347,0V96.269H205.471l-.394.392,2.838,2.839h12.073V47.595l-2.839-2.84Zm-96.644,0h.9V85.83a11.054,11.054,0,0,1-11.04,11.04H99.719A11.023,11.023,0,0,1,92.244,93.9H91.65l2.832,2.837v-.024a11.37,11.37,0,0,0,8.073,3.394H112.8a11.47,11.47,0,0,0,11.436-11.435V47.595l-2.839-2.84Zm-20.968,0h.9l-.005,25.557c0,5.863.076,9.833.225,11.8.165,2.119.527,3.374,1.143,3.956a3.693,3.693,0,0,0,2.219.8c.042,0,.089,0,.135.009a15.08,15.08,0,0,1-.267-1.962q-.227-2.941-.224-11.769c0-.918.005-25.951.005-25.951l-2.836-2.84Zm-56.291,0V96.269H31.568l-.394.392L34.011,99.5H46.082v-51.9l-2.839-2.84Zm153.307,4.706c.154.213.295.433.428.655a10.97,10.97,0,0,1,1.608,5.7V71.262a10.956,10.956,0,0,1-2.036,6.359c-.2.289-.428.567-.658.834a8.369,8.369,0,0,1-1.095,1.107l-.192.158c-.189.158-.374.312-.57.454l-.224.167.053.285,4.716,15.637H186.712l-.3.4,2.839,2.839h12.306L196.685,83.35a.157.157,0,0,1,.026-.018c.2-.15.4-.307.588-.467.035-.031.075-.06.11-.094a.946.946,0,0,0,.081-.067,8.287,8.287,0,0,0,1.14-1.154,10.438,10.438,0,0,0,.683-.862,11.387,11.387,0,0,0,2.107-6.588V59.054a11.337,11.337,0,0,0-1.664-5.911c-.142-.23-.285-.456-.443-.676a11.474,11.474,0,0,0-1.295-1.5l.047.019-2.835-2.837-.661-.07a11.119,11.119,0,0,1,1.585,1.775m-38.313-.6a10.943,10.943,0,0,1,2.035,6.356V85.805a11.075,11.075,0,0,1-11.063,11.064h-10.2a11.054,11.054,0,0,1-7.49-2.972h-.593l2.838,2.837v-.026a11.377,11.377,0,0,0,8.081,3.4h10.2A11.5,11.5,0,0,0,163.11,88.642V58.449A11.374,11.374,0,0,0,161,51.862c-.218-.305-.45-.6-.7-.879l.014.006-.088-.084a10.99,10.99,0,0,0-1.1-1.1l-1.649-1.649-.6-.061a10.676,10.676,0,0,1,.958,1.162m-77.6.019a10.93,10.93,0,0,1,2.007,6.315v6.373H72.99a8.314,8.314,0,0,1-2.567.392l2.838,2.838H85.488V58.426a11.347,11.347,0,0,0-2.081-6.542c-.22-.313-.462-.611-.711-.9l.013.006-.088-.089a11.43,11.43,0,0,0-1.115-1.112l-1.633-1.635-.6-.061a11.058,11.058,0,0,1,.972,1.181m60.025,5.686c-.606.577-.979,1.867-1.14,3.952-.15,1.963-.227,5.93-.227,11.8s.077,9.836.227,11.8c.161,2.085.534,3.376,1.14,3.955a3.716,3.716,0,0,0,2.219.8c.042,0,.093,0,.136.007a14.951,14.951,0,0,1-.265-1.957q-.225-2.945-.226-11.772t.226-11.769q.225-2.941,1.02-3.7a4.678,4.678,0,0,1,3.13-.752,9.479,9.479,0,0,1,1.61.126c-.007-.053-.014-.107-.023-.157a4.271,4.271,0,0,0-.945-2.337c-.61-.582-1.75-.865-3.478-.865-1.68,0-2.793.283-3.4.865m-77.623,0-.091.1c-.568.664-.9,1.913-1.048,3.85-.152,1.958-.228,5.926-.228,11.8s.076,9.843.228,11.8c.148,1.939.481,3.187,1.021,3.816a1.265,1.265,0,0,0,.11.131,3.694,3.694,0,0,0,2.228.813c.041,0,.09.007.137.009a14.606,14.606,0,0,1-.266-1.959q-.228-2.944-.229-11.771t.229-11.77a6.83,6.83,0,0,1,.927-3.587,1.163,1.163,0,0,1,.091-.108,4.666,4.666,0,0,1,3.129-.754,9.667,9.667,0,0,1,1.61.124c-.009-.051-.014-.105-.022-.156a4.657,4.657,0,0,0-.832-2.211.74.74,0,0,0-.12-.13c-.6-.577-1.739-.86-3.471-.86-1.679,0-2.795.283-3.4.865m116.5,18.4h3.234V58.113l3.434.006c.411.005.769.028,1.106.055a.6.6,0,0,1-.007-.073c-.026-.183-.05-.365-.081-.534a3.517,3.517,0,0,0-.8-1.96,3.009,3.009,0,0,0-1.684-.645c-.41-.044-.86-.067-1.371-.075l-3.835-.007Zm-96.9-5.1V85.83a11.052,11.052,0,0,1-11.04,11.04H60.967a10.954,10.954,0,0,1-6.317-2.006,11.265,11.265,0,0,1-1.176-.966h-.583l2.829,2.827.005.006,0,0a11.626,11.626,0,0,0,1.531,1.288A11.35,11.35,0,0,0,63.8,100.1H74.051A11.471,11.471,0,0,0,85.488,88.668V70.709l-2.84-2.838ZM67.986,76.591l-.4.4,2.839,2.84h.37v-.014c.024-.822.046-1.755.061-2.816l.006-.4Zm110.52,5.757V96.264H167.225l-.393.4,2.835,2.839h12.07V85.581H183.9l-.852-3.233ZM24.7,86.423v9.844H1.124l-.4.4L3.566,99.5H27.934V88.863L25.1,86.024Z" transform="translate(0.01 0.616)" fill="#b99455" fill-rule="evenodd"/>
    <path id="Tracciato_18234" data-name="Tracciato 18234" d="M56.977,18.306l5.7-1.235a4.987,4.987,0,0,1,2.869.033,3.154,3.154,0,0,1,1.645,1.557,13.232,13.232,0,0,1,1.03,3.2,13.65,13.65,0,0,1,.385,3.216,3.314,3.314,0,0,1-.819,2.153,4.735,4.735,0,0,1-2.632,1.287l-1.852.4,1.1,5.1-3.85.834Zm6.487,7.16a2.345,2.345,0,0,0,.933-.354.9.9,0,0,0,.227-.7,10.7,10.7,0,0,0-.271-1.707,11.5,11.5,0,0,0-.45-1.663.811.811,0,0,0-.5-.547,2.277,2.277,0,0,0-.982.059l-.889.195L62.6,25.652Z" transform="translate(0.784 0.232)" fill="#002f66"/>
    <path id="Tracciato_18235" data-name="Tracciato 18235" d="M79.292,31.429l-.954-3.049-3.364.48L74.9,32.051l-3.85.543.866-17.229,5.679-.8,5.618,16.309ZM75.3,18.516l-.173.023-.1,7,2.313-.327Z" transform="translate(0.978 0.2)" fill="#002f66"/>
    <path id="Tracciato_18236" data-name="Tracciato 18236" d="M87.043,30.646A19.536,19.536,0,0,1,84.88,30.5l-.245-3.094q2.248-.006,3.426-.1a9.743,9.743,0,0,0,1.2-.157.835.835,0,0,0,.541-.332.8.8,0,0,0,.186-.481,6.675,6.675,0,0,0-.02-.863,5.348,5.348,0,0,0-.179-1.149.752.752,0,0,0-.419-.472,3.877,3.877,0,0,0-1.03-.2l-2.166-.221a2.076,2.076,0,0,1-1.8-1.254,9.657,9.657,0,0,1-.735-3.31,6.831,6.831,0,0,1,.378-3.338,3.162,3.162,0,0,1,1.6-1.647,8.407,8.407,0,0,1,2.719-.6,19.42,19.42,0,0,1,4.01.126l.246,3.091a23.489,23.489,0,0,0-3.009.066,11.705,11.705,0,0,0-1.224.15,1.038,1.038,0,0,0-.569.268.751.751,0,0,0-.233.488,4.421,4.421,0,0,0,0,.938,5.106,5.106,0,0,0,.138.952.626.626,0,0,0,.3.408,2.126,2.126,0,0,0,.719.176l2.039.208a4.4,4.4,0,0,1,1.456.416,2.461,2.461,0,0,1,1.022,1.189,8.418,8.418,0,0,1,.619,2.842,8.518,8.518,0,0,1-.314,3.693A2.949,2.949,0,0,1,92.055,30a7.853,7.853,0,0,1-2.623.582c-.77.06-1.567.083-2.389.065" transform="translate(1.15 0.182)" fill="#002f66"/>
    <path id="Tracciato_18237" data-name="Tracciato 18237" d="M98.672,29.834l-.4-13.463-3.075.092-.1-3.47,10.067-.3.1,3.47-3.053.09.4,13.461Z" transform="translate(1.309 0.175)" fill="#002f66"/>
    <rect id="Rettangolo_6" data-name="Rettangolo 6" width="16.937" height="3.938" transform="translate(109.03 29.833) rotate(-89.355)" fill="#002f66"/>
    <path id="Tracciato_18238" data-name="Tracciato 18238" d="M114.163,29.734l.737-16.919,8.067.349-.147,3.372-4.133-.181-.162,3.738,3.615.158-.145,3.37-3.615-.158-.283,6.444Z" transform="translate(1.571 0.176)" fill="#002f66"/>
    <rect id="Rettangolo_7" data-name="Rettangolo 7" width="16.936" height="3.942" transform="translate(126.034 30.444) rotate(-85.382)" fill="#002f66"/>
    <path id="Tracciato_18239" data-name="Tracciato 18239" d="M137.495,31.678a11.624,11.624,0,0,1-1.6-.068A6.173,6.173,0,0,1,132.5,30.4a3.915,3.915,0,0,1-1.159-2.721,29.45,29.45,0,0,1,.285-5.32,28.39,28.39,0,0,1,1-5.211,4.009,4.009,0,0,1,1.8-2.375,6.084,6.084,0,0,1,3.545-.374,10.861,10.861,0,0,1,1.636.322,7.422,7.422,0,0,1,1.249.446l-.376,3.084a20.742,20.742,0,0,0-2.131-.41,2.72,2.72,0,0,0-1.565.122,1.827,1.827,0,0,0-.667,1.206q-.227.955-.559,3.666t-.334,3.692a1.846,1.846,0,0,0,.358,1.334,2.727,2.727,0,0,0,1.491.49,13.665,13.665,0,0,0,2.217.121l-.371,3.054a7.19,7.19,0,0,1-1.431.148" transform="translate(1.807 0.197)" fill="#002f66"/>
    <rect id="Rettangolo_8" data-name="Rettangolo 8" width="16.937" height="3.94" transform="translate(142.97 32.343) rotate(-80.578)" fill="#002f66"/>
    <path id="Tracciato_18240" data-name="Tracciato 18240" d="M148.976,32.915a3.483,3.483,0,0,1-.808-2.659,38.136,38.136,0,0,1,.95-5.4,38.791,38.791,0,0,1,1.478-5.294,3.454,3.454,0,0,1,1.881-2.049,6.856,6.856,0,0,1,3.817.085,6.966,6.966,0,0,1,3.494,1.574,3.442,3.442,0,0,1,.822,2.662,38.93,38.93,0,0,1-.951,5.413,38.117,38.117,0,0,1-1.48,5.283,3.483,3.483,0,0,1-1.889,2.045,9.463,9.463,0,0,1-7.314-1.663m5.3-1.712a2.057,2.057,0,0,0,.59-1.1q.284-.922.923-3.731c.426-1.868.687-3.124.779-3.76a2.026,2.026,0,0,0-.058-1.251,1.6,1.6,0,0,0-.963-.47,1.513,1.513,0,0,0-1.052.015,2.037,2.037,0,0,0-.592,1.1q-.283.925-.923,3.73c-.425,1.874-.683,3.124-.779,3.762a2.05,2.05,0,0,0,.058,1.25,1.53,1.53,0,0,0,.94.465,1.592,1.592,0,0,0,1.078-.008" transform="translate(2.039 0.238)" fill="#002f66"/>
    <path id="Tracciato_18241" data-name="Tracciato 18241" d="M86.283,107.21l-3.819,1.99v3.791l2.69-1.077V125.7h4.3V107.21Z" transform="translate(1.135 1.475)" fill="#002f66"/>
    <path id="Tracciato_18242" data-name="Tracciato 18242" d="M93.933,107.21v3.683h6.046L94.9,125.7h4.54l5-15.241V107.21Z" transform="translate(1.293 1.475)" fill="#002f66"/>
    <path id="Tracciato_18243" data-name="Tracciato 18243" d="M116.7,107.891a4.113,4.113,0,0,0-2.723-1.033h-2.812a4.154,4.154,0,0,0-4.132,3.924v4.231a4.114,4.114,0,0,0,.83,2.258c.035.048.069.1.109.144a4.125,4.125,0,0,0,3.192,1.521h2.551v1.546a1.551,1.551,0,0,1-.155.676,1.619,1.619,0,0,1-.531.646,1.6,1.6,0,0,1-.936.3h-4.455v3.743h4.723v0h1.616a4.159,4.159,0,0,0,4.145-4.142V111a4.129,4.129,0,0,0-1.422-3.111M111.768,115a.63.63,0,0,1-.139-.249,1.976,1.976,0,0,1-.073-.294c-.02-.117-.035-.251-.049-.4-.018-.245-.033-.615-.042-1.1,0-.018,0-.037,0-.058s0-.052,0-.078c.008-.472.023-.833.042-1.074a2.826,2.826,0,0,1,.12-.7.609.609,0,0,1,.141-.249,1.2,1.2,0,0,1,.8-.194,1.243,1.243,0,0,1,.82.194.6.6,0,0,1,.135.249,1.469,1.469,0,0,1,.075.294c.015.087.027.189.04.3,0,.034.007.068.009.105.019.253.033.641.046,1.158,0,.112-.005.216-.009.317-.007.358-.019.636-.036.835a2.981,2.981,0,0,1-.12.694.642.642,0,0,1-.139.249,1.075,1.075,0,0,1-.67.184c-.046,0-.085.005-.129.005l-.041,0a1.184,1.184,0,0,1-.779-.188" transform="translate(1.473 1.471)" fill="#002f66"/>
    <path id="Tracciato_18244" data-name="Tracciato 18244" d="M131.623,115.235a4.164,4.164,0,0,0-.942-.954c-.06-.045-.12-.085-.184-.125a4.086,4.086,0,0,0-2.257-.683h-2.228v-2.6H131.6v-3.683h-9.488v10.1h4.34c.11.008.21.018.306.032A1.625,1.625,0,0,1,128,118.4v0a6.512,6.512,0,0,1,.084.928v.707c-.008.263-.024.5-.048.693a1.631,1.631,0,0,1-.636.927,1.609,1.609,0,0,1-.934.3h-4.452V125.7h6.231a4.1,4.1,0,0,0,2.074-.567,4.149,4.149,0,0,0,2.069-3.581v-3.939a4.122,4.122,0,0,0-.761-2.381" transform="translate(1.679 1.475)" fill="#002f66"/>
    <path id="Tracciato_18245" data-name="Tracciato 18245" d="M0,36.056V31.4H42.3L38.031,11.195l2.208-.95c.307-.134.643-.285.76-.332C54.82,3.91,81.985.011,110.166,0h.194c27.819.024,53.809,3.823,67.829,9.914.071.03.442.2.771.347.175.082.341.156.409.19l1.749.753-4.268,20.2h41.76v4.652h-47.5l4.668-22.109c-13.665-5.727-38.6-9.273-65.424-9.3h-.191c-27.212.012-53.3,3.658-66.794,9.309L48.04,36.056Z" fill="#002f66"/>
    <rect id="Rettangolo_9" data-name="Rettangolo 9" width="72.951" height="5.799" transform="translate(0.18 115.011)" fill="#002f66"/>
    <rect id="Rettangolo_10" data-name="Rettangolo 10" width="72.954" height="5.799" transform="translate(145.595 115.011)" fill="#002f66"/>
    <path id="Tracciato_18246" data-name="Tracciato 18246" d="M12.8,86.024V44.756H.729V96.661H25.1V86.024Z" transform="translate(0.01 0.616)" fill="#002f66"/>
    <rect id="Rettangolo_11" data-name="Rettangolo 11" width="12.07" height="51.904" transform="translate(31.183 45.374)" fill="#002f66"/>
    <path id="Tracciato_18247" data-name="Tracciato 18247" d="M81.986,85.838V67.88s-12.151.015-12.151.027H66.928v9.087H69.8c-.015,1.06-.034,1.993-.06,2.81v.005c-.034,1.112-.077,2.011-.129,2.677-.141,1.85-.453,3.044-.934,3.594a.956.956,0,0,1-.085.1q-.792.754-3.206.755c-.419,0-.8-.023-1.144-.056a3.409,3.409,0,0,1-1.988-.7c-.031-.031-.061-.072-.091-.108a6.823,6.823,0,0,1-.926-3.587q-.225-2.944-.226-11.77t.226-11.77a6.847,6.847,0,0,1,.926-3.588c.03-.034.06-.079.091-.108a4.682,4.682,0,0,1,3.132-.756q2.413,0,3.206.756a1.069,1.069,0,0,1,.085.1,4.33,4.33,0,0,1,.743,2.017c.081.461.146.982.191,1.577q.094,1.21.147,3.416H81.986V55.6a11.346,11.346,0,0,0-2.079-6.544,11.635,11.635,0,0,0-2.626-2.674,11.335,11.335,0,0,0-6.729-2.218H60.3A11.471,11.471,0,0,0,48.866,55.6V85.838a11.352,11.352,0,0,0,2.063,6.523,11.734,11.734,0,0,0,2.832,2.834A11.354,11.354,0,0,0,60.3,97.272H70.551A11.468,11.468,0,0,0,81.986,85.838" transform="translate(0.673 0.608)" fill="#002f66"/>
    <path id="Tracciato_18248" data-name="Tracciato 18248" d="M120.215,85.83V44.755H108.064s.007,25.047.007,25.954q0,8.829-.23,11.77t-1.017,3.7q-.794.757-3.208.755a10.9,10.9,0,0,1-1.143-.056,3.369,3.369,0,0,1-1.985-.7q-.8-.751-1.02-3.7t-.225-11.77c0-.916,0-25.954,0-25.954H87.1V85.83A11.5,11.5,0,0,0,98.531,97.264h10.248A11.469,11.469,0,0,0,120.215,85.83" transform="translate(1.199 0.616)" fill="#002f66"/>
    <path id="Tracciato_18249" data-name="Tracciato 18249" d="M158.557,85.813V55.619a11.359,11.359,0,0,0-2.109-6.585,11.587,11.587,0,0,0-2.6-2.641,11.361,11.361,0,0,0-6.75-2.231H136.9a11.492,11.492,0,0,0-11.458,11.458V85.813A11.507,11.507,0,0,0,136.9,97.273h10.2a11.493,11.493,0,0,0,11.46-11.46m-17.741,1.068a3.4,3.4,0,0,1-1.988-.7q-.789-.753-1.02-3.7t-.226-11.771q0-8.823.226-11.77t1.02-3.7a4.676,4.676,0,0,1,3.132-.756q2.413,0,3.206.756a3.977,3.977,0,0,1,.826,2.122c.082.458.147.978.195,1.573q.22,2.944.225,11.77t-.225,11.771q-.231,2.942-1.021,3.7t-3.206.754a10.852,10.852,0,0,1-1.144-.056" transform="translate(1.726 0.608)" fill="#002f66"/>
    <path id="Tracciato_18250" data-name="Tracciato 18250" d="M176.646,96.66V82.744H180.5l.747,2.849,2.912,11.067H196.46l-4.865-16.147.025-.019c.2-.149.394-.305.586-.465.038-.032.079-.061.112-.091s.056-.049.084-.071a8.457,8.457,0,0,0,1.139-1.155c.239-.276.472-.563.683-.859a11.372,11.372,0,0,0,2.108-6.59V56.218a11.326,11.326,0,0,0-1.667-5.911c-.139-.228-.285-.456-.441-.677a11.542,11.542,0,0,0-1.831-2.019c-.249-.218-.5-.43-.773-.623a11.642,11.642,0,0,0-2.615-1.437,11.231,11.231,0,0,0-4.134-.792h-20.3v51.9Zm3.5-23.691h-2.848V55.276l3.434.006c.5.008.933.029,1.32.072a2.714,2.714,0,0,1,1.468.541,3.274,3.274,0,0,1,.678,1.74c.027.165.053.341.076.519.031.241.059.5.08.775.016.216.031.459.048.727.056,1.055.093,2.552.117,4.474-.023,1.915-.061,3.405-.117,4.459-.016.269-.031.514-.048.728q-.183,2.413-.834,3.035a2.588,2.588,0,0,1-1.4.531,13.454,13.454,0,0,1-1.353.079c-.106,0-.192.008-.305.008Z" transform="translate(2.265 0.616)" fill="#002f66"/>
    <rect id="Rettangolo_12" data-name="Rettangolo 12" width="12.069" height="51.904" transform="translate(205.086 45.374)" fill="#002f66"/>
  </g>
</svg>
