<svg xmlns="http://www.w3.org/2000/svg" xmlns:xlink="http://www.w3.org/1999/xlink" width="155" height="84" viewBox="0 0 155 84"><defs><polygon id="logo-a" points="0 .099 154.821 .099 154.821 84 0 84"/><polygon id="logo-c" points="0 84 154.821 84 154.821 .099 0 .099"/></defs><g fill="none" fill-rule="evenodd"><mask id="logo-b" fill="#fff"><use xlink:href="#logo-a"/></mask><path fill="#FEFEFE" d="M78.1385157,0.0986778947 C111.856892,0.0986778947 152.772901,21.1833411 154.773709,55.4858463 C155.541613,68.6490884 146.689982,83.5736779 143.7574,83.8687832 C140.824596,84.1638884 10.9228433,83.8687832 10.9228433,83.8687832 C10.9228433,83.8687832 -3.97001788,71.4102568 1.02435265,48.8009937 C6.01850143,26.1919516 34.275068,0.0986778947 78.1385157,0.0986778947" mask="url(#logo-b)"/><path fill="#BE1E2D" d="M78.1194456,2.20679053 C110.955497,2.20679053 150.800919,22.2319484 152.749174,54.8104642 C153.496899,67.3125379 144.876992,81.4870958 142.021134,81.7673905 C139.165275,82.0476853 12.6628791,81.7673905 12.6628791,81.7673905 C12.6628791,81.7673905 -1.84059728,69.9346642 3.02316524,48.4618326 C7.88670601,26.98878 35.4039735,2.20679053 78.1194456,2.20679053"/><path fill="#FEFEFE" d="M124.982221,52.3839032 C127.07084,52.3839032 128.76431,53.9250821 128.76431,55.8259137 C128.76431,57.7269663 127.07084,59.2679242 124.982221,59.2679242 C122.89338,59.2679242 121.200132,57.7269663 121.200132,55.8259137 C121.200132,53.9250821 122.89338,52.3839032 124.982221,52.3839032 M124.475533,42.58884 C130.327171,42.6259768 136.788387,46.8135979 136.788387,55.9709242 L136.788387,67.9040084 C136.788387,67.9040084 135.626663,80.0981558 123.19318,80.3486084 C116.080254,80.4916295 112.50461,74.2968505 112.50461,74.2968505 L119.51642,69.52344 C119.51642,69.52344 120.764846,71.7611558 124.561127,71.6543874 C127.424968,71.5739242 128.237886,68.7400295 128.237886,67.6484716 C128.237886,66.5564716 128.323258,60.5736821 128.323258,60.5736821 L127.382836,60.3181453 L126.100261,68.07444 C126.100261,68.07444 115.754288,69.8253979 112.675798,59.1246821 C110.083373,50.1132505 118.149582,42.5486084 124.475533,42.58884"/><mask id="logo-d" fill="#fff"><use xlink:href="#logo-c"/></mask><path fill="#FEFEFE" d="M108.762768,75.5051684 L109.549521,75.5051684 L109.549521,74.7056211 L108.762768,74.7056211 L108.762768,75.5051684 Z M104.677332,73.2409263 L105.437918,71.1174947 L106.213805,73.2409263 L104.677332,73.2409263 Z M104.850072,69.7823368 L102.656788,75.5051684 L103.862861,75.5051684 L104.327861,74.2053789 L106.578577,74.2053789 L107.070408,75.5051684 L108.307303,75.5051684 L106.052375,69.7823368 L104.850072,69.7823368 Z M101.445393,75.5051684 L102.232146,75.5051684 L102.232146,74.7056211 L101.445393,74.7056211 L101.445393,75.5051684 Z M99.380279,74.4217895 C99.2137482,74.6262632 99.0050858,74.7283895 98.7542918,74.7283895 C98.4928541,74.7283895 98.2713305,74.6172 98.089721,74.3946 C97.9078898,74.172 97.8169742,73.8280421 97.8169742,73.3620632 C97.8169742,72.9559895 97.9038984,72.6496105 98.0781903,72.4427053 C98.2524821,72.2358 98.4713448,72.1323474 98.735,72.1323474 C98.9886767,72.1323474 99.2011087,72.2377895 99.3725179,72.4484526 C99.5443705,72.6593368 99.6299642,72.9820737 99.6299642,73.4166632 C99.6299642,73.8826421 99.5468097,74.2175368 99.380279,74.4217895 L99.380279,74.4217895 Z M99.0270386,71.2658211 C98.7554006,71.2658211 98.5083763,71.3308105 98.2857439,71.4610105 C98.0628898,71.5909895 97.8861588,71.7603158 97.7555508,71.9683263 L97.7555508,71.3595474 L96.7490486,71.3595474 L96.7490486,77.0821579 L97.828505,77.0821579 L97.828505,74.9938737 C98.0307368,75.2149263 98.2236552,75.3712105 98.4065951,75.4622842 C98.5897568,75.5531368 98.7939843,75.5988947 99.0194993,75.5988947 C99.4929256,75.5988947 99.8965021,75.4070211 100.229342,75.0230526 C100.562182,74.6390842 100.728712,74.1012632 100.728712,73.4089263 C100.728712,72.7347158 100.56329,72.2090526 100.233112,71.8317158 C99.902711,71.4543789 99.5006867,71.2658211 99.0270386,71.2658211 L99.0270386,71.2658211 Z M95.003691,75.5051684 L95.7904435,75.5051684 L95.7904435,74.7056211 L95.003691,74.7056211 L95.003691,75.5051684 Z M93.3476967,72.3452211 C93.082711,72.2033053 92.6735908,72.0660316 92.1205579,71.9331789 C91.5673033,71.8005474 91.2191631,71.6732211 91.0756938,71.5507579 C90.9628255,71.4543789 90.9067239,71.3387684 90.9067239,71.2034842 C90.9067239,71.0549368 90.9668169,70.9364526 91.0872246,70.8480316 C91.2741559,70.7100947 91.5329328,70.6413474 91.8631116,70.6413474 C92.1830901,70.6413474 92.4232403,70.7056737 92.5833405,70.8345474 C92.7434406,70.9632 92.8476609,71.1747474 92.8964449,71.4687474 L94.0335551,71.4179053 C94.0155937,70.8922421 93.8277754,70.4720211 93.4707654,70.1570211 C93.1135336,69.8422421 92.5813448,69.6846316 91.8746423,69.6846316 C91.4420172,69.6846316 91.0725894,69.7511684 90.7665808,69.8838 C90.4605722,70.0164316 90.2261874,70.2096316 90.0636481,70.4636211 C89.900887,70.7171684 89.8195064,70.9899474 89.8195064,71.2812947 C89.8195064,71.7342316 89.9924678,72.1179789 90.3381688,72.4329789 C90.5838627,72.6569053 91.0116094,72.8454632 91.6211874,72.9990947 C92.0948355,73.1189053 92.3984049,73.2020211 92.5316738,73.2486632 C92.7261445,73.3191789 92.8625179,73.4018526 92.9405722,73.4969053 C93.0186266,73.5917368 93.0578755,73.7069053 93.0578755,73.8421895 C93.0578755,74.0528526 92.9649642,74.2369895 92.7793634,74.3946 C92.5935408,74.5519895 92.3176896,74.6306842 91.9513662,74.6306842 C91.605887,74.6306842 91.3311445,74.5422632 91.1275823,74.3652 C90.92402,74.1881368 90.7887554,73.9111579 90.7224535,73.5338211 L89.6159442,73.6432421 C89.6902289,74.2831895 89.9181831,74.7706105 90.2998069,75.1050632 C90.6814306,75.4395158 91.2280329,75.6066316 91.9400572,75.6066316 C92.4292275,75.6066316 92.8376824,75.537 93.165422,75.3977368 C93.4931617,75.2584737 93.7466166,75.0458211 93.9260086,74.7595579 C94.1049571,74.4732947 94.1949857,74.1662526 94.1949857,73.8382105 C94.1949857,73.4765684 94.1200358,73.1728421 93.9701359,72.9265895 C93.8202361,72.6807789 93.6129041,72.4869158 93.3476967,72.3452211 L93.3476967,72.3452211 Z" mask="url(#logo-d)"/><path fill="#FEFEFE" d="M81.5221955,38.4501918 C78.7291699,38.4501918 76.4652351,40.6619301 76.4652351,43.3903235 C76.4652351,46.1184983 78.7291699,48.3302366 81.5221955,48.3302366 C84.3150003,48.3302366 86.5791559,46.1184983 86.5791559,43.3903235 C86.5791559,40.6619301 84.3150003,38.4501918 81.5221955,38.4501918 L81.5221955,38.4501918 Z M76.6667094,60.3311023 L66.188942,49.038561 L82.1186654,34.1224407 L71.1297012,34.1224407 L59.9704117,44.4035269 L52.5593833,44.4035269 L52.5593833,67.4097575 L61.2484037,67.4097575 L61.2484037,58.5612745 L61.8446527,58.3084108 L71.2149743,67.4097575 L76.8370347,67.4097575 L76.8370347,71.8762887 L86.1223041,71.8762887 L86.1223041,49.038561 L76.6667094,49.038561 L76.6667094,60.3311023 Z M98.6446379,42.4654147 C88.6776255,43.6619826 89.2743163,52.3251342 89.2743163,52.3251342 L89.2743163,67.4097575 L97.3668668,67.4097575 L97.3668668,53.6735952 C97.3668668,53.6735952 97.0145077,50.724028 99.32616,50.724028 C101.637812,50.724028 101.626104,53.5892344 101.626104,53.5892344 L101.626104,67.3256153 L109.463277,67.3256153 L109.463277,51.8194067 C109.463277,45.9215836 103.898433,41.8346759 98.6446379,42.4654147 L98.6446379,42.4654147 Z M29.3889568,34.9651742 L21.8926554,34.9651742 L21.8926554,67.4097575 L37.5667804,67.4097575 L37.5667804,60.2467415 L29.3889568,60.2467415 L29.3889568,34.9651742 Z M41.4000938,67.4097575 L50.0038411,67.4097575 L50.0038411,44.3191661 L41.4000938,44.3191661 L41.4000938,67.4097575 Z M45.58908,33.7731959 C43.0216083,33.7731959 40.9401492,35.9849342 40.9401492,38.713109 C40.9401492,41.4415023 43.0216083,43.653022 45.58908,43.653022 C48.1567725,43.653022 50.2380107,41.4415023 50.2380107,38.713109 C50.2380107,35.9849342 48.1567725,33.7731959 45.58908,33.7731959 L45.58908,33.7731959 Z"/></g></svg>