<?xml version="1.0" encoding="UTF-8"?> <svg xmlns="http://www.w3.org/2000/svg" xmlns:xlink="http://www.w3.org/1999/xlink" viewBox="0 0 265.2 62.63"><defs><style>.cls-1{fill:url(#Sfumatura_senza_nome)}.cls-1,.cls-2,.cls-3,.cls-4{stroke-width:0}.cls-2{fill:#ff2d16}.cls-3,.cls-5{fill:none}.cls-5{stroke-width:1.91px}.cls-5,.cls-6{stroke:#c4c4c6}.cls-4,.cls-6{fill:#fff}.cls-7{clip-path:url(#clippath)}.cls-6{stroke-width:.9px}</style><clipPath id="clippath"><path class="cls-3" d="m240.87,5.27c-3.73.92-7.56,1.45-11.4,1.58h0c-5.71.4-11.63.82-16.78,3.2h0c-9.21,4.24-11.02,9.61-11.38,11.72h0l-.21,1.27,1.25.28c3.96.92,8.01,1.4,12.07,1.42h0c5.08.12,10.13-.83,14.81-2.8h0c.35-.16.67-.32.93-.47h.04s.03-.03.03-.03c8.21-3.82,11.34-11.38,12.32-14.46h0l.77-2.44-2.45.73Z"/></clipPath><linearGradient id="Sfumatura_senza_nome" x1="-170.59" y1="448.36" x2="-170.43" y2="448.36" gradientTransform="translate(45282.37 48664.22) scale(264.27 -108.42)" gradientUnits="userSpaceOnUse"><stop offset="0" stop-color="#87c846"/><stop offset=".1" stop-color="#7dc145"/><stop offset=".2" stop-color="#74ba44"/><stop offset=".3" stop-color="#6aaf42"/><stop offset=".4" stop-color="#5fa43f"/><stop offset=".5" stop-color="#569a3d"/><stop offset=".6" stop-color="#4d903b"/><stop offset=".7" stop-color="#42863a"/><stop offset=".8" stop-color="#377c39"/><stop offset=".9" stop-color="#2d7238"/><stop offset="1" stop-color="#246936"/></linearGradient></defs><path class="cls-6" d="m242.95,11.45c.62-1.24,1.14-2.52,1.56-3.84l1.94-6.15-6.17,1.85c-3.6.88-7.28,1.38-10.99,1.49-5.89.42-11.98.86-17.47,3.39-1.81.82-3.54,1.81-5.17,2.96H26.23c-13.94.02-25.25,11.32-25.26,25.26.01,13.95,11.32,25.25,25.26,25.26h212.74c13.95-.01,25.25-11.32,25.26-25.26-.02-12.41-9.03-22.98-21.28-24.95"/><path class="cls-4" d="m246.48,1.43l-6.2,1.87c-3.6.87-7.28,1.37-10.98,1.48h-.01c-5.88.42-11.98.85-17.47,3.38-1.81.82-3.54,1.81-5.17,2.96H26.23c-13.95.02-25.26,11.32-25.28,25.28.02,13.96,11.32,25.27,25.28,25.29h212.74c13.96-.02,25.26-11.33,25.28-25.28,0-3.05-.55-6.08-1.63-8.93-1.04-2.76-2.57-5.32-4.5-7.55-3.89-4.52-9.25-7.52-15.14-8.48.64-1.29,1.19-2.62,1.63-3.99,0,0,.58-1.71,1.87-6.02"/><path class="cls-5" d="m246.48,1.43l-6.2,1.87c-3.6.87-7.28,1.37-10.98,1.48h-.01c-5.88.42-11.98.85-17.47,3.38-1.81.82-3.54,1.81-5.17,2.96H26.23c-13.95.02-25.26,11.32-25.28,25.28.02,13.96,11.32,25.27,25.28,25.29h212.74c13.96-.02,25.26-11.33,25.28-25.28,0-3.05-.55-6.08-1.63-8.93-1.04-2.76-2.57-5.32-4.5-7.55-3.89-4.52-9.25-7.52-15.14-8.48.64-1.29,1.19-2.62,1.63-3.99,0,0,.57-1.71,1.87-6.02Z"/><g class="cls-7"><path class="cls-1" d="m.47.7h264.27v108.41H.47V.7Z"/></g><path class="cls-2" d="m173.31,25.25c-2.6,0-3.82,3.9-3.82,10.83s1.22,10.83,3.82,10.83,3.81-3.89,3.81-10.83-1.22-10.83-3.81-10.83"/><path class="cls-2" d="m81.33,33.59c-1.92,0-3.38,3.2-3.38,7.7,0,3.77.99,5.67,2.71,5.67,1.14,0,1.77-.72,1.77-2.45v-9.56c0-.76-.27-1.35-1.1-1.35"/><path class="cls-2" d="m97.11,44.62c0,1.49.86,2.63,2.11,2.63.74-.02,1.43-.36,1.89-.93v-6.13c-2.47.67-4,2.32-4,4.43"/><path class="cls-2" d="m58.51,44.62c0,1.47.87,2.62,2.12,2.62.74-.02,1.43-.36,1.89-.93v-6.13c-2.48.67-4.02,2.32-4.02,4.44"/><path class="cls-2" d="m145.89,44.62c0,1.49.87,2.63,2.12,2.63.74-.02,1.43-.36,1.9-.93v-6.13c-2.49.67-4.02,2.32-4.02,4.43"/><path class="cls-2" d="m230.46,44.62c0,1.49.87,2.63,2.11,2.63.74-.02,1.43-.36,1.9-.93v-6.13c-2.48.67-4.01,2.32-4.01,4.43"/><path class="cls-2" d="m241.71,13.63c-2.5,4.21-6.21,7.58-10.64,9.67-.26.14-.62.34-1.02.51-4.95,2.09-10.29,3.11-15.66,2.99-4.22-.02-8.41-.52-12.52-1.47l-3.13-.71.53-3.17c.65-3.09,2.26-5.89,4.6-8H26.38c-12.67,0-22.94,10.27-22.94,22.94h0c0,12.67,10.27,22.94,22.93,22.94h212.54c12.67,0,22.94-10.27,22.94-22.94,0-11.59-8.65-21.35-20.15-22.76M49.94,51.18h-7.23c.24-3.3.24-5.08.24-7.27v-12.44h-.08l-5.35,15.87h-3.93l-5.47-16.24h-.08v12.82c0,2.19,0,3.98.23,7.27h-5.57c.39-4.36.39-7.9.39-15.1s0-10.74-.39-15.1h8.25l5.23,15.9h.08l5.35-15.9h8.33c-.39,4.36-.39,7.91-.39,15.1s0,10.74.39,15.1m13.58,0c-.3-.39-.52-.84-.67-1.31-1.23,1.04-2.79,1.62-4.4,1.65-3.38.1-6.19-2.56-6.29-5.94,0-.15,0-.3,0-.45,0-3.89,2.86-6.51,6.6-7.82l3.26-1.15c.07-1.45-1.05-2.67-2.49-2.74-.1,0-.19,0-.29,0-1.93.16-3.76.93-5.24,2.19v-5.93c1.37-.19,2.75-.3,4.13-.34,8.14,0,10.62,3.43,10.62,9.1v5.28c-.1,2.52.25,5.04,1.02,7.44h-6.25Zm19.75,0c-.21-.43-.36-.88-.44-1.35-1.24,1.19-2.89,1.85-4.6,1.85-3.51,0-6.88-3.46-6.88-9.9,0-7.47,4.61-12.43,9.28-12.43.61-.01,1.22.07,1.81.26v-.85c.05-2.6-.07-5.2-.35-7.78h6.61c.11,1.05.15,2.11.11,3.17v18.4c-.07,2.88.05,5.76.36,8.63h-5.9Zm18.84,0c-.3-.39-.53-.83-.67-1.31-1.24,1.04-2.79,1.62-4.41,1.65-3.38.1-6.2-2.56-6.3-5.94,0-.15,0-.3,0-.45,0-3.89,2.87-6.51,6.61-7.82l3.27-1.15c.06-1.45-1.06-2.68-2.51-2.74-.1,0-.19,0-.29,0-1.93.17-3.76.93-5.23,2.19v-5.93c1.37-.19,2.75-.3,4.13-.34,8.14,0,10.63,3.43,10.63,9.1v5.28c-.1,2.52.25,5.04,1.02,7.45h-6.25Zm28.44,0c.3-2.87.42-5.75.36-8.63v-5.88c0-1.48-.39-2.58-1.61-2.58-1.34,0-2.09,1.1-2.09,2.58v5.88c-.07,2.88.05,5.76.36,8.63h-7.09c.3-2.87.42-5.75.36-8.63v-5.96c0-1.4-.39-2.5-1.61-2.5-1.19.05-2.12,1.05-2.08,2.24v6.22c-.07,2.88.05,5.76.36,8.63h-7.08c.3-2.87.42-5.75.35-8.63v-4.06c.07-2.88-.05-5.76-.35-8.63h5.82c.26.61.46,1.25.6,1.9,1.34-1.46,3.21-2.33,5.19-2.41,1.84.07,3.5,1.09,4.4,2.7,1.42-1.35,2.99-2.7,5.55-2.7,3.85,0,5.3,2.92,5.3,7.11v6.09c-.07,2.88.05,5.76.36,8.63h-7.08Zm20.34,0c-.3-.39-.53-.84-.67-1.31-1.24,1.04-2.8,1.63-4.42,1.65-3.38.1-6.2-2.57-6.29-5.94,0-.15,0-.3,0-.45,0-3.89,2.88-6.51,6.61-7.82l3.27-1.15c.06-1.45-1.06-2.68-2.52-2.74-.09,0-.19,0-.28,0-1.93.17-3.76.93-5.23,2.19v-5.93c1.37-.19,2.75-.3,4.14-.34,8.14,0,10.61,3.43,10.61,9.1v5.28c-.1,2.52.25,5.04,1.03,7.45h-6.25Zm22.42.59c-6.3,0-11.45-6.22-11.45-15.7s5.16-15.68,11.45-15.68,11.45,6.21,11.45,15.68-5.15,15.7-11.45,15.7m13.92-.59c.3-2.87.42-5.75.35-8.63v-12.94c.07-2.88-.05-5.77-.35-8.63h6.73v21.58c-.07,2.88.05,5.76.35,8.63h-7.08Zm10.18,0c.3-2.87.42-5.75.36-8.63v-4.06c.07-2.88-.05-5.76-.36-8.63h6.81c-.08,2.19-.08,5.41-.08,9.97-.12,3.79,0,7.57.36,11.34h-7.09Zm19.67,0h-4.8c-2.73-6.9-4.84-14.03-6.3-21.31h6.72c.72,5.07,2.1,10.44,2.76,13.19h.08c1.16-4.34,2.03-8.74,2.63-13.19h5.4c-1.63,7.26-3.81,14.38-6.5,21.31m18.37,0c-.3-.39-.52-.84-.66-1.31-1.24,1.04-2.79,1.63-4.41,1.65-3.38.1-6.2-2.57-6.3-5.95,0-.15,0-.3,0-.45,0-3.89,2.87-6.51,6.61-7.82l3.26-1.15c.06-1.45-1.06-2.68-2.51-2.74-.09,0-.19,0-.28,0-1.93.17-3.76.93-5.24,2.19v-5.92c1.37-.19,2.75-.3,4.13-.33,8.14,0,10.61,3.42,10.61,9.09v5.28c-.1,2.52.25,5.04,1.02,7.45h-6.25Z"/></svg>