<svg aria-hidden="true" focusable="false" class="icon icon-logo " role="presentation" xmlns="http://www.w3.org/2000/svg" xmlns:xlink="http://www.w3.org/1999/xlink" x="0" y="0" viewBox="0 0 719.7 159.53" xml:space="preserve">
 <path class="" clip-rule="evenodd" fill-rule="evenodd" fill="#f8991d" d="M40.6 34c-11.1 0-20.6 2.7-27.4 7.8C6.1 47.1 2.3 54.6 2.3 63.9c0 13.9 8.9 19.2 17.9 22.8 5.4 2.1 25.7 7.9 30.9 9.9C58 99.2 62 103.2 62 109.4s-5.5 17.3-25.7 17.3c-11.5 0-21.4-2.7-30.7-8.4L0 127.1c12.8 6.8 24.5 10 36.7 10 36.3 0 41.7-22.1 41.7-30.5 0-10.6-3.3-19.7-19.2-25.3-3.9-1.4-24.1-7.3-27.7-8.5-9.9-3.3-12.9-7.1-12.9-13.4 0-9.6 9-15.8 23-15.8 9.6 0 16.5 1.9 27.4 8l5.6-7.9c-10.9-6.6-21.8-9.7-34-9.7M554.2 88.7s5.3-11.5 16.8-11.5c3.8 0 10.8 1.3 15.8 7.9l-8.8 8.8s-3.2-3.5-8.5-3.5c-8.7 0-15.1 4.5-15.3 20.1v24.9h-14.9V90.9c0-1.5.1-2.8.5-4.2.9-3.7 3.2-6.8 6.5-8.7 2.4-1.4 5.1-2.1 7.9-2v12.7ZM371.4 88.7s5.3-11.5 16.8-11.5c3.8 0 10.8 1.3 15.8 7.9l-8.8 8.8s-3.2-3.5-8.5-3.5c-8.7 0-15.1 4.5-15.2 20.1v24.9h-14.9V90.9c0-1.5.1-2.8.5-4.2.9-3.7 3.2-6.8 6.5-8.7 2.4-1.4 5.1-2.1 7.9-2l-.1 12.7ZM244.8 77.8H238V45.4c-3.1-.2-5.7.6-8.4 2.2-3.7 2.5-5.7 5.5-6.8 9.7-.3 1.4-.5 2.9-.5 4.3v73.9h22.5c12.3 0 34.9-5.2 34.9-28.8 0-4.7-1.1-28.9-34.9-28.9Zm13.4 43.6c-3.2 3.3-7.7 4.9-13.4 4.9H238V86h6.8c5.7 0 10.2 1.7 13.4 5 3.3 3.3 5.8 9.1 5.8 15.8s-2.5 11.3-5.8 14.6ZM529.9 105.3c-.1-18.2-9.9-28.6-27.4-28.6-20 0-32.3 12.1-32.3 29.2s14.1 30.8 33.8 30.8c8.3 0 16-1.9 25.2-6.4l-4.7-7.9c-6.3 3.4-11.3 4.8-17 4.8-11.4 0-20.8-7-21-18.3h43.4v-3.6Zm-14.4-4.8h-28.8c.5-9.7 7.4-15.6 15.8-15.6 7.8 0 13 5.3 13 14.4v1.2ZM145.6 105.3c-.1-18.2-9.9-28.6-27.4-28.6-20 0-32.3 12.1-32.3 29.2s14.1 30.8 33.8 30.8c8.3 0 16-1.9 25.2-6.4l-4.7-7.9c-6.3 3.4-11.3 4.8-17 4.8-11.4 0-20.8-7-21-18.3h43.4v-3.6Zm-14.4-4.8h-28.8c.5-9.7 7.4-15.6 15.8-15.6 7.8 0 13 5.3 13 14.4v1.2ZM212.8 105.3c-.1-18.2-9.9-28.6-27.4-28.6-20 0-32.3 12.1-32.3 29.2s14.1 30.8 33.8 30.8c8.3 0 16-1.9 25.2-6.4l-4.7-7.9c-6.3 3.4-11.3 4.8-17 4.8-11.4 0-20.8-7-21-18.3h43.4v-3.6Zm-14.4-4.8h-28.8c.5-9.7 7.4-15.6 15.8-15.6 7.8 0 13 5.3 13 14.4v1.2ZM347.1 105.3c-.1-18.2-9.9-28.6-27.4-28.6-20 0-32.3 12.1-32.3 29.2s14.1 30.8 33.8 30.8c8.3 0 16-1.9 25.2-6.4l-4.7-7.9c-6.3 3.4-11.3 4.8-17 4.8-11.4 0-20.8-7-21-18.3h43.4v-3.6Zm-14.4-4.8h-28.8c.5-9.7 7.4-15.6 15.8-15.6 7.8 0 13 5.3 13 14.4v1.2ZM439 77.8c-12.3 0-34.9 5.2-34.9 28.8 0 4.7 1.1 28.9 34.9 28.9h6.8v1.1c0 5.3-1.5 8-4.7 10.5-3.1 2.6-7.7 3.8-13.6 3.8-3.5 0-7-.5-10.4-1.5-3.2-1-6.2-2.4-9-4.2l-5.2 7.4c16 10.2 59.2 12.3 59.2-16V77.8H439Zm6.9 48.5h-6.8c-5.7 0-10.2-1.6-13.4-4.8-3.3-3.3-5.8-8.1-5.8-14.8s2.5-12.4 5.8-15.7c3.2-3.3 7.7-5 13.4-5h6.8v40.3Z"></path>
  <g id="leaf-sections--23868375204168__footer" class="">
    <path d="M637.5 137.3c9.8 3.1 20.3 3.9 31.3 2.4 17.7-3.3 31.8-12.2 42.1-26.6 3.8-5.4 6.7-11.2 8.8-17.1-43.1 10.5-73.9 34.3-82.2 41.3m82.1-41.9c-11.2-5-23.3-6.3-36.3-4.1-17.3 2.8-31.1 11.5-41.4 25.9-3.3 4.6-6.1 9.7-8.1 15 16.8-11.5 51.7-32.1 85.8-36.8" fill="#7ac143" fill-rule="evenodd"></path>
    <path d="M666.4 0c-15.8 5.4-28.8 14.8-39 28.2-14.3 18.4-19.9 39.4-16.9 62.6 1 7.2 2.8 14.3 5.5 21 9.8-59.9 34.3-92.2 50.4-111.8m7.2 24.7C672.5 16.3 670.2 8 667 .1c-10.4 16.5-35.6 53.4-41.5 113.1 12-5.5 22.3-14 31-25.2 14.5-18.8 20.1-40 17.1-63.3" fill="#b6d234" fill-rule="evenodd"></path>
  </g>
</svg>