<?xml version="1.0" encoding="UTF-8"?> <svg xmlns="http://www.w3.org/2000/svg" xmlns:xlink="http://www.w3.org/1999/xlink" width="227.521" height="48.132" viewBox="0 0 227.521 48.132"><defs><linearGradient id="linear-gradient" y1="0.285" x2="1" y2="0.266" gradientUnits="objectBoundingBox"><stop offset="0" stop-color="#f4b638"></stop><stop offset="0.284" stop-color="#95722a"></stop><stop offset="0.305" stop-color="#e4aa36"></stop><stop offset="0.519" stop-color="#8b6b29"></stop><stop offset="0.573" stop-color="#f2b538"></stop><stop offset="1" stop-color="#856728"></stop></linearGradient><linearGradient id="linear-gradient-2" x1="0.5" x2="0.5" y2="1" gradientUnits="objectBoundingBox"><stop offset="0" stop-color="#ffe0a1"></stop><stop offset="1" stop-color="#d6a53f"></stop></linearGradient></defs><g id="Vimeksim-logo" transform="translate(-609.627 -203.952)"><g id="Group_366" data-name="Group 366" transform="translate(666.192 208.084)"><path id="Path_12788" data-name="Path 12788" d="M691.89,209.962h7.3l5.348,14.9,5.348-14.9h7.166L707.5,233.678h-6.056Z" transform="translate(-691.89 -209.962)" fill="#134f4d"></path></g><g id="Group_367" data-name="Group 367" transform="translate(693.27 208.084)"><path id="Path_12789" data-name="Path 12789" d="M731.27,209.962h6.439v23.551H731.27Z" transform="translate(-731.27 -209.962)" fill="#134f4d"></path></g><g id="Group_368" data-name="Group 368" transform="translate(703.937 208.071)"><path id="Path_12790" data-name="Path 12790" d="M746.782,209.942h6.769l5.514,9.123,5.515-9.123h6.769v23.564h-6.373V219.974l-5.911,9.224h-.131l-5.878-9.157v13.466h-6.274Z" transform="translate(-746.782 -209.942)" fill="#134f4d"></path></g><g id="Group_369" data-name="Group 369" transform="translate(732.767 208.125)"><path id="Path_12791" data-name="Path 12791" d="M788.71,210.021H807.3v5.542h-12.25v3.56h11.094v5.139H795.049v3.728h12.218v5.542H788.71Z" transform="translate(-788.71 -210.021)" fill="#134f4d"></path></g><g id="Group_370" data-name="Group 370" transform="translate(755.552 208.125)"><path id="Path_12792" data-name="Path 12792" d="M821.847,210.021h6.406v9.539l7.957-9.539H843.8l-8.749,10.109,9.046,13.4h-7.693L830.6,224.8l-2.344,2.653v6.079h-6.406Z" transform="translate(-821.847 -210.021)" fill="#134f4d"></path></g><g id="Group_371" data-name="Group 371" transform="translate(777.277 207.767)"><path id="Path_12793" data-name="Path 12793" d="M853.442,229.877l3.619-4.323a12.087,12.087,0,0,0,7.608,2.815c1.742,0,2.681-.6,2.681-1.609v-.067c0-.972-.771-1.508-3.954-2.246-4.993-1.139-8.848-2.547-8.848-7.373v-.067c0-4.357,3.452-7.507,9.083-7.507a14.768,14.768,0,0,1,9.653,3.117l-3.251,4.592a11.768,11.768,0,0,0-6.569-2.313c-1.575,0-2.345.67-2.345,1.509v.067c0,1.073.8,1.542,4.055,2.279,5.4,1.173,8.748,2.915,8.748,7.305v.068c0,4.792-3.788,7.641-9.485,7.641A16.385,16.385,0,0,1,853.442,229.877Z" transform="translate(-853.442 -209.5)" fill="#134f4d"></path></g><g id="Group_372" data-name="Group 372" transform="translate(801.307 208.084)"><path id="Path_12794" data-name="Path 12794" d="M888.388,209.962h6.439v23.551h-6.439Z" transform="translate(-888.388 -209.962)" fill="#134f4d"></path></g><g id="Group_373" data-name="Group 373" transform="translate(811.974 208.084)"><path id="Path_12795" data-name="Path 12795" d="M903.9,209.962h6.768l5.515,9.118,5.515-9.118h6.768v23.551h-6.372V219.988l-5.911,9.218h-.132l-5.878-9.151v13.457H903.9Z" transform="translate(-903.901 -209.962)" fill="#134f4d"></path></g><path id="Union_2" data-name="Union 2" d="M7133.008,193.916a.425.425,0,0,1-.139-.083.449.449,0,0,1-.11-.145.459.459,0,0,1-.045-.208.726.726,0,0,1,.022-.173,2.471,2.471,0,0,1,.13-.407.69.69,0,0,1,.2-.262,1.027,1.027,0,0,1,.349-.177,5.593,5.593,0,0,1,.574-.148c.152-.031.295-.065.428-.1a1.234,1.234,0,0,0,.331-.139,4.432,4.432,0,0,0,.654-.7,4.5,4.5,0,0,0,.456-.755,5.924,5.924,0,0,0,.313-.8c.081-.273.163-.551.237-.835a2.971,2.971,0,0,0,.079-.3c.023-.1.053-.22.089-.351-.193.166-.392.332-.6.5a5.649,5.649,0,0,1-.636.448,3.87,3.87,0,0,1-.663.322,1.92,1.92,0,0,1-.67.125,1.006,1.006,0,0,1-.443-.121,2.06,2.06,0,0,1-.468-.318,1.866,1.866,0,0,1-.371-.459,1.078,1.078,0,0,1-.152-.549,1.99,1.99,0,0,1,.045-.394c.031-.141.058-.267.083-.379a4.592,4.592,0,0,1,.358-.97,6.143,6.143,0,0,1,.545-.894,7.553,7.553,0,0,1,.681-.806,8.592,8.592,0,0,1,.773-.71,3.46,3.46,0,0,1,1-.591,3.1,3.1,0,0,1,1.063-.182,4.493,4.493,0,0,1,.45.023,1.6,1.6,0,0,1,.41.1,1.181,1.181,0,0,1,.359.211,1.453,1.453,0,0,1,.3.367.539.539,0,0,1,.048.126.491.491,0,0,1,.02.125c0,.04-.013.141-.034.3s-.052.358-.092.593-.081.5-.135.788-.107.584-.163.88-.112.585-.168.871-.108.542-.157.77c-.087.4-.193.811-.324,1.236a10,10,0,0,1-.47,1.243,7.413,7.413,0,0,1-.648,1.144,4.629,4.629,0,0,1-.864.943,3.968,3.968,0,0,1-1.115.645,3.86,3.86,0,0,1-1.393.239A.408.408,0,0,1,7133.008,193.916Zm3.646-9.444a3.93,3.93,0,0,0-.5.307,6.645,6.645,0,0,0-.525.428c-.179.159-.344.322-.5.486s-.3.323-.428.477a3.55,3.55,0,0,0-.3.4q-.157.252-.292.5a2.8,2.8,0,0,0-.215.589c-.016.06-.029.121-.042.184a.95.95,0,0,0-.018.186.627.627,0,0,0,.06.289.224.224,0,0,0,.219.119,1.3,1.3,0,0,0,.589-.177,4.2,4.2,0,0,0,.674-.452,6.559,6.559,0,0,0,.638-.591,3.778,3.778,0,0,0,.473-.605c.051-.081.118-.192.2-.334s.167-.295.251-.459.157-.329.222-.493a1.691,1.691,0,0,0,.121-.435.556.556,0,0,0-.053-.238,1.165,1.165,0,0,1-.09-.307h-.068A.968.968,0,0,0,7136.654,184.472Zm-83.195,6.541a1.264,1.264,0,0,1-.48-.426,1.808,1.808,0,0,1-.262-.645,3.756,3.756,0,0,1-.08-.8,6.57,6.57,0,0,1,.083-1.03c.056-.354.126-.708.213-1.061a13.732,13.732,0,0,1,.435-1.44q.269-.751.564-1.532t.583-1.588q.29-.808.493-1.61.052-.2.09-.363c.025-.112.051-.231.076-.356a.718.718,0,0,1,.248-.3.584.584,0,0,1,.336-.107.943.943,0,0,1,.314.052.667.667,0,0,1,.258.17.881.881,0,0,1,.173.3,1.283,1.283,0,0,1,.065.432,2.661,2.661,0,0,1-.083.622q-.3.759-.6,1.485t-.587,1.426c-.188.466-.363.925-.526,1.38s-.3.9-.417,1.348c-.011.036-.03.112-.06.231s-.061.262-.1.428-.062.345-.086.535a4.135,4.135,0,0,0-.038.549,2.672,2.672,0,0,0,.021.345,1.153,1.153,0,0,0,.076.284.458.458,0,0,0,.145.19.374.374,0,0,0,.228.069,1.3,1.3,0,0,0,.7-.3,6.172,6.172,0,0,0,.9-.815,13.039,13.039,0,0,0,1-1.205q.513-.688,1-1.478t.9-1.621a14.407,14.407,0,0,0,.7-1.646.359.359,0,0,1,.167-.186.693.693,0,0,1,.258-.04.72.72,0,0,1,.5.177.586.586,0,0,1,.2.459.6.6,0,0,1-.014.128c-.011.042-.027.089-.047.145l-.106.311c-.08.237-.157.455-.229.656a5.571,5.571,0,0,0-.179.564c-.065.253-.119.484-.159.694s-.072.407-.1.591-.036.365-.045.542-.011.356-.011.538c0,.07.006.173.02.311s.031.287.056.452.06.331.1.5a3.506,3.506,0,0,0,.15.466,1.2,1.2,0,0,0,.206.345.342.342,0,0,0,.267.134.849.849,0,0,0,.5-.193,2.811,2.811,0,0,0,.527-.531,7.283,7.283,0,0,0,.535-.791q.268-.455.522-.977c.17-.349.331-.71.486-1.084s.294-.744.424-1.111.242-.719.34-1.061.179-.654.238-.936.1-.528.145-.781.082-.506.121-.759.085-.506.134-.761.106-.517.177-.786a1.5,1.5,0,0,1,.114-.295,1.242,1.242,0,0,1,.186-.276,1.055,1.055,0,0,1,.238-.2.489.489,0,0,1,.266-.079.515.515,0,0,1,.463.184,1.2,1.2,0,0,1,.121.618,5.967,5.967,0,0,1-.056.743c-.038.284-.087.58-.145.891s-.123.625-.193.943-.141.62-.213.9a16.055,16.055,0,0,1-.56,1.792c-.233.618-.491,1.223-.777,1.81s-.589,1.144-.909,1.664a10.652,10.652,0,0,1-.967,1.342,4.317,4.317,0,0,1-.4.4,3.722,3.722,0,0,1-.488.372,3.468,3.468,0,0,1-.531.276,1.385,1.385,0,0,1-.519.108,1.276,1.276,0,0,1-.875-.307,2.255,2.255,0,0,1-.577-.818,5.087,5.087,0,0,1-.341-1.165,12.811,12.811,0,0,1-.17-1.353q-.426.629-.779,1.12t-.713.911c-.185.206-.389.43-.616.67a7.049,7.049,0,0,1-.723.667,4.505,4.505,0,0,1-.784.508,1.765,1.765,0,0,1-.79.2A1.6,1.6,0,0,1,7053.459,191.012Zm93.436-.2a.869.869,0,0,1-.258-.2.829.829,0,0,1-.159-.264.784.784,0,0,1-.053-.275v-.067a.17.17,0,0,1,.015-.069l.219-.887c.078-.293.166-.634.272-1.023s.219-.8.338-1.236.239-.878.36-1.333.235-.9.341-1.326a.538.538,0,0,1,.052-.1.777.777,0,0,1,.128-.145.8.8,0,0,1,.213-.125.821.821,0,0,1,.3-.052,1.122,1.122,0,0,1,.249.027.763.763,0,0,1,.217.078.438.438,0,0,1,.152.141.356.356,0,0,1,.056.2v.051a.154.154,0,0,1-.007.049l-.211.8q-.357,1.35-.725,2.707t-.715,2.721c-.011.031-.025.069-.045.114a.608.608,0,0,1-.085.136.432.432,0,0,1-.128.114.345.345,0,0,1-.181.045A.728.728,0,0,1,7146.895,190.815Zm32.859-.06a2.749,2.749,0,0,1-.323-.126,2.514,2.514,0,0,1-.316-.17,1.7,1.7,0,0,1-.244-.177,2.225,2.225,0,0,1-.591-.873,2.9,2.9,0,0,1-.174-.985,3.422,3.422,0,0,1,.045-.56c.031-.188.065-.369.1-.542s.085-.34.134-.493.087-.293.118-.414c.1-.378.182-.712.258-1s.143-.542.2-.759.106-.4.148-.557.076-.289.1-.407a.669.669,0,0,1,.088-.208.634.634,0,0,1,.121-.141.5.5,0,0,1,.117-.074.211.211,0,0,1,.083-.023,1.2,1.2,0,0,1,.2.018c.076.014.148.025.22.034l.235.045a.325.325,0,0,1,.284.159.729.729,0,0,1,.087.365,1.031,1.031,0,0,1-.045.311c-.172.631-.329,1.182-.47,1.648s-.262.865-.361,1.194-.173.6-.228.8a2.116,2.116,0,0,0-.078.47,1.681,1.681,0,0,0,.042.358,1.539,1.539,0,0,0,.125.367.95.95,0,0,0,.211.285.456.456,0,0,0,.313.112,1.245,1.245,0,0,0,.643-.2,3.589,3.589,0,0,0,.622-.482,4.981,4.981,0,0,0,.535-.605c.159-.215.289-.407.39-.573l.2-.341a5.259,5.259,0,0,0,.338-.732q.155-.412.271-.829c.08-.278.146-.54.2-.784s.1-.441.13-.587l.2-1.008a.735.735,0,0,1,.186-.4.645.645,0,0,1,.421-.108,1.239,1.239,0,0,1,.339.042.553.553,0,0,1,.258.148.64.64,0,0,1,.159.284,1.611,1.611,0,0,1,.054.459,3.847,3.847,0,0,1-.1.8c-.069.316-.143.632-.224.952-.045.186-.092.385-.139.594s-.092.419-.13.629-.067.41-.09.6a4.192,4.192,0,0,0-.034.513c0,.257.009.515.027.773s.027.529.027.818c0,.13-.006.248-.013.347a1.03,1.03,0,0,1-.035.228,1.062,1.062,0,0,1-.217.441.585.585,0,0,1-.45.143,1.013,1.013,0,0,1-.349-.049.48.48,0,0,1-.2-.132.447.447,0,0,1-.1-.186,1.556,1.556,0,0,1-.029-.208l-.085-1.433-.067.022c-.168.213-.349.45-.546.714a6.334,6.334,0,0,1-.652.735,3.708,3.708,0,0,1-.777.571,1.871,1.871,0,0,1-.914.231A.885.885,0,0,1,7179.753,190.756Zm-20.706,0a2.622,2.622,0,0,1-.323-.126,2.573,2.573,0,0,1-.318-.17,1.668,1.668,0,0,1-.242-.177,2.189,2.189,0,0,1-.591-.873,2.854,2.854,0,0,1-.175-.985,3.424,3.424,0,0,1,.047-.56c.029-.188.065-.369.1-.542s.085-.34.134-.493.087-.293.116-.414c.1-.378.183-.712.258-1s.143-.542.2-.759.108-.4.148-.557.076-.289.107-.407a.679.679,0,0,1,.086-.208.689.689,0,0,1,.121-.141.528.528,0,0,1,.118-.074.215.215,0,0,1,.085-.023,1.177,1.177,0,0,1,.195.018c.078.014.15.025.221.034l.235.045a.328.328,0,0,1,.285.159.729.729,0,0,1,.087.365,1.08,1.08,0,0,1-.045.311c-.174.631-.329,1.182-.47,1.648s-.262.865-.361,1.194-.173.6-.228.8a2.146,2.146,0,0,0-.08.47,1.818,1.818,0,0,0,.042.358,1.633,1.633,0,0,0,.126.367.926.926,0,0,0,.211.285.454.454,0,0,0,.311.112,1.245,1.245,0,0,0,.643-.2,3.583,3.583,0,0,0,.624-.482,5.109,5.109,0,0,0,.535-.605c.159-.215.287-.407.389-.573l.2-.341a5.041,5.041,0,0,0,.34-.732q.155-.412.271-.829c.08-.278.145-.54.2-.784s.1-.441.13-.587l.2-1.008a.721.721,0,0,1,.185-.4.647.647,0,0,1,.421-.108,1.244,1.244,0,0,1,.341.042.553.553,0,0,1,.258.148.66.66,0,0,1,.159.284,1.694,1.694,0,0,1,.052.459,3.964,3.964,0,0,1-.1.8c-.068.316-.143.632-.224.952-.045.186-.092.385-.141.594s-.09.419-.128.629-.069.41-.092.6a4.584,4.584,0,0,0-.032.513c0,.257.007.515.025.773s.027.529.027.818c0,.13,0,.248-.011.347a1.162,1.162,0,0,1-.035.228,1.08,1.08,0,0,1-.217.441.59.59,0,0,1-.452.143,1.009,1.009,0,0,1-.347-.049.468.468,0,0,1-.2-.132.41.41,0,0,1-.1-.186,1.56,1.56,0,0,1-.031-.208l-.083-1.433-.069.022c-.166.213-.349.45-.545.714a6.188,6.188,0,0,1-.65.735,3.76,3.76,0,0,1-.777.571,1.876,1.876,0,0,1-.914.231A.885.885,0,0,1,7159.047,190.756Zm-59.816-.166a1.877,1.877,0,0,1-.712-.444,1.789,1.789,0,0,1-.424-.69,2.674,2.674,0,0,1-.141-.893,4.272,4.272,0,0,1,.137-1.024,5.693,5.693,0,0,1,.351-.981,6.332,6.332,0,0,1,.627-1.05,7.4,7.4,0,0,1,.929-1.039,7.814,7.814,0,0,1,1.254-.947,1.884,1.884,0,0,1,.349-.148,1.841,1.841,0,0,1,.486-.094,1.023,1.023,0,0,1,.795-.318,1.641,1.641,0,0,1,1,.3,2.3,2.3,0,0,1,.67.815c.054.112.107.22.156.325a2.443,2.443,0,0,1,.121.338,3.693,3.693,0,0,1,.079.383,3.214,3.214,0,0,1,.031.463,4.158,4.158,0,0,1-.189,1.22,5.6,5.6,0,0,1-.539,1.214,6.834,6.834,0,0,1-.846,1.133,7.182,7.182,0,0,1-1.1.974,3.285,3.285,0,0,1-.905.457,3.518,3.518,0,0,1-1.111.164A2.978,2.978,0,0,1,7099.231,190.59Zm3.688-6.094a.616.616,0,0,1-.206.145,1.838,1.838,0,0,1-.371.117,5.553,5.553,0,0,1-.614.09,2.083,2.083,0,0,0-.508.258,3.836,3.836,0,0,0-.5.408,5.663,5.663,0,0,0-.871,1.064,6.047,6.047,0,0,0-.311.558,2.392,2.392,0,0,0-.186.5,2.9,2.9,0,0,0-.065.331,2.482,2.482,0,0,0-.018.3,1.612,1.612,0,0,0,.065.466.92.92,0,0,0,.208.372.98.98,0,0,0,.36.242,1.42,1.42,0,0,0,.527.087,2.075,2.075,0,0,0,1.072-.293,3.53,3.53,0,0,0,.883-.73,4.809,4.809,0,0,0,.648-.945,4.339,4.339,0,0,0,.367-.929c.045-.177.085-.343.117-.5a2.148,2.148,0,0,0,.051-.432.926.926,0,0,0-.074-.369,4.216,4.216,0,0,0-.184-.383c-.047-.085-.092-.175-.138-.269s-.085-.186-.121-.276A1.247,1.247,0,0,1,7102.919,184.5Zm-16.213,6.134a.581.581,0,0,1-.2-.159.652.652,0,0,1-.118-.219.811.811,0,0,1-.038-.242c0-.253-.007-.515-.024-.784a6.307,6.307,0,0,0-.09-.786,4.8,4.8,0,0,0-.186-.715,2.008,2.008,0,0,0-.307-.58,1.827,1.827,0,0,0-.253-.273.432.432,0,0,0-.286-.1h-.06a1,1,0,0,0-.341.072,3.667,3.667,0,0,0-.377.172c-.126.065-.248.134-.365.2a3.08,3.08,0,0,1-.3.166l-.688,2.728a.374.374,0,0,1-.19.244.585.585,0,0,1-.282.083.745.745,0,0,1-.557-.163.62.62,0,0,1-.146-.43,1.488,1.488,0,0,1,.018-.229c.013-.078.029-.161.049-.248l.031-.128q.046-.206.125-.515c.054-.208.11-.426.171-.656s.123-.463.185-.7.123-.452.179-.649.137-.477.246-.855.231-.8.365-1.274.272-.961.417-1.476.278-1,.409-1.465.244-.878.345-1.239.172-.627.211-.8a.5.5,0,0,1,.211-.175.806.806,0,0,1,.342-.069,1.179,1.179,0,0,1,.282.034.925.925,0,0,1,.262.107.636.636,0,0,1,.192.182.433.433,0,0,1,.076.253.747.747,0,0,1-.045.235q-.456,1.32-.9,2.732t-.811,2.862c.065-.042.186-.125.365-.251s.372-.271.587-.439.43-.341.647-.522.4-.347.545-.493c.1-.1.2-.206.307-.314s.2-.211.3-.311.175-.186.246-.266l.167-.184a1.436,1.436,0,0,1,.314-.276.629.629,0,0,1,.345-.11.849.849,0,0,1,.3.052.862.862,0,0,1,.235.132.6.6,0,0,1,.152.182.41.41,0,0,1,.052.193.617.617,0,0,1-.052.242,2.105,2.105,0,0,1-.125.251,2.035,2.035,0,0,1-.155.222,1.139,1.139,0,0,1-.145.155c-.135.121-.291.255-.462.4s-.351.291-.539.441-.377.3-.571.448-.383.291-.565.426a2.3,2.3,0,0,1,.784.71,3.891,3.891,0,0,1,.489.985,5.517,5.517,0,0,1,.25,1.14,10.35,10.35,0,0,1,.069,1.167c0,.031,0,.078-.007.141a1.008,1.008,0,0,1-.031.177,1.724,1.724,0,0,1-.09.251.582.582,0,0,1-.141.193.636.636,0,0,1-.211.125.9.9,0,0,1-.307.045A.649.649,0,0,1,7086.706,190.629Zm79.6-.056a.764.764,0,0,1-.251-.222,1.009,1.009,0,0,1-.145-.293,1.022,1.022,0,0,1-.045-.293,2.188,2.188,0,0,1,.024-.3c.014-.119.034-.242.056-.372s.047-.257.072-.385.051-.242.076-.338l1.955-7.762c.017-.172.036-.358.062-.56a3.186,3.186,0,0,1,.119-.562,1.343,1.343,0,0,1,.226-.428.442.442,0,0,1,.359-.17.923.923,0,0,1,.27.045,1.331,1.331,0,0,1,.28.125.858.858,0,0,1,.224.193.4.4,0,0,1,.09.249.548.548,0,0,1-.021.141c-.017.054-.029.1-.04.155l-1.894,7.594c-.076.3-.139.594-.189.869s-.088.5-.114.678v.182c0,.152-.011.318-.029.5a2.314,2.314,0,0,1-.116.5,1.093,1.093,0,0,1-.229.387.512.512,0,0,1-.385.155A.7.7,0,0,1,7166.305,190.573Zm-72.52-.045a.473.473,0,0,1-.114-.352,2.569,2.569,0,0,1,.065-.519,6.483,6.483,0,0,1,.181-.676c.079-.244.169-.506.274-.784s.215-.562.336-.849c.1-.231.192-.464.284-.7s.179-.457.251-.674a6.248,6.248,0,0,0,.177-.622,2.375,2.375,0,0,0,.071-.546.805.805,0,0,0-.1-.412.4.4,0,0,0-.381-.179,1.5,1.5,0,0,0-.569.125,3.71,3.71,0,0,0-.629.338c-.217.141-.439.3-.663.481s-.446.365-.663.556c-.112.1-.217.184-.318.262a1.331,1.331,0,0,1-.3.179,3.645,3.645,0,0,0-.224.457c-.078.19-.155.4-.231.622s-.148.455-.215.69-.125.454-.172.656c-.025.107-.045.21-.06.311s-.032.21-.054.322-.043.237-.072.369-.061.278-.1.439a.533.533,0,0,1-.121.231.613.613,0,0,1-.175.132.538.538,0,0,1-.175.058,1.037,1.037,0,0,1-.126.011.766.766,0,0,1-.471-.136.637.637,0,0,1-.181-.531c0-.07,0-.145.007-.224a1.4,1.4,0,0,1,.045-.26q.168-.721.321-1.3c.1-.383.21-.741.314-1.068s.215-.638.324-.929.218-.584.333-.88.231-.6.356-.916.258-.667.4-1.05a.411.411,0,0,1,.24-.217.989.989,0,0,1,.412-.087.826.826,0,0,1,.476.128.427.427,0,0,1,.184.372.337.337,0,0,1-.015.083.884.884,0,0,1-.045.128l-.334.79c.213-.168.434-.334.663-.5a7.076,7.076,0,0,1,.708-.45,4.536,4.536,0,0,1,.732-.325,2.2,2.2,0,0,1,.724-.125,1.574,1.574,0,0,1,1.137.39,1.6,1.6,0,0,1,.408,1.207,4.131,4.131,0,0,1-.163,1.07q-.163.6-.408,1.285t-.529,1.44c-.192.5-.367,1.015-.528,1.534a2.406,2.406,0,0,1-.141.358.777.777,0,0,1-.17.231.6.6,0,0,1-.231.125,1.188,1.188,0,0,1-.322.038A.594.594,0,0,1,7093.785,190.528Zm92.991-.114a.779.779,0,0,1-.159-.488.975.975,0,0,1,.036-.266c.067-.354.143-.743.229-1.167s.173-.855.264-1.288.181-.862.266-1.281.159-.8.22-1.153a1.267,1.267,0,0,1-.007-.132v-.126a3.721,3.721,0,0,1,.029-.47,3.812,3.812,0,0,1,.083-.432.923.923,0,0,1,.188-.39.453.453,0,0,1,.329-.1.637.637,0,0,1,.353.089.61.61,0,0,1,.208.231.976.976,0,0,1,.1.329,3.376,3.376,0,0,1,.021.383c0,.07,0,.15-.007.235s-.007.154-.007.206c.141-.148.291-.3.45-.452a3.972,3.972,0,0,1,.509-.417,2.935,2.935,0,0,1,.567-.307,1.676,1.676,0,0,1,.625-.121,1.332,1.332,0,0,1,.254.023,2.183,2.183,0,0,1,.253.06,2.427,2.427,0,0,1,.314.1,1.232,1.232,0,0,1,.314.177,1.643,1.643,0,0,1,.421.475,1.106,1.106,0,0,1,.172.578.762.762,0,0,1-.047.248.842.842,0,0,1-.125.242.741.741,0,0,1-.186.182.408.408,0,0,1-.235.07.985.985,0,0,1-.314-.063.918.918,0,0,1-.307-.172.643.643,0,0,1-.108-.128c-.038-.056-.074-.11-.106-.166l-.09-.155a.455.455,0,0,0-.065-.094c-.025-.005-.053-.009-.083-.013s-.058,0-.083,0a1.463,1.463,0,0,0-.735.2,3.482,3.482,0,0,0-.652.481,5.35,5.35,0,0,0-.556.607q-.255.323-.445.58-.152.615-.336,1.308t-.369,1.451v.19c0,.152-.005.305-.014.463a1.355,1.355,0,0,1-.09.417.692.692,0,0,1-.24.192.761.761,0,0,1-.36.081A.564.564,0,0,1,7186.776,190.414Zm-46.438,0a.78.78,0,0,1-.159-.488.975.975,0,0,1,.036-.266q.1-.531.228-1.167t.265-1.288q.138-.653.266-1.281c.087-.419.159-.8.221-1.153-.005-.051-.009-.1-.009-.132v-.126a3.817,3.817,0,0,1,.031-.47,3.923,3.923,0,0,1,.083-.432.949.949,0,0,1,.187-.39.46.46,0,0,1,.331-.1.634.634,0,0,1,.352.089.611.611,0,0,1,.208.231.965.965,0,0,1,.1.329,3.265,3.265,0,0,1,.022.383c0,.07,0,.15-.007.235s-.007.154-.007.206c.141-.148.291-.3.45-.452a3.972,3.972,0,0,1,.509-.417,2.921,2.921,0,0,1,.567-.307,1.681,1.681,0,0,1,.625-.121,1.351,1.351,0,0,1,.255.023,2.231,2.231,0,0,1,.253.06,2.452,2.452,0,0,1,.314.1,1.274,1.274,0,0,1,.314.177,1.643,1.643,0,0,1,.421.475,1.106,1.106,0,0,1,.172.578.764.764,0,0,1-.047.248.879.879,0,0,1-.125.242.741.741,0,0,1-.186.182.413.413,0,0,1-.235.07.982.982,0,0,1-.314-.063.909.909,0,0,1-.307-.172.715.715,0,0,1-.11-.128c-.036-.056-.072-.11-.1-.166l-.09-.155a.544.544,0,0,0-.065-.094c-.025-.005-.052-.009-.083-.013s-.058,0-.083,0a1.475,1.475,0,0,0-.737.2,3.534,3.534,0,0,0-.65.481,5.355,5.355,0,0,0-.557.607q-.254.323-.444.58c-.1.41-.213.846-.336,1.308s-.248.945-.369,1.451v.19c0,.152-.005.305-.015.463a1.288,1.288,0,0,1-.092.417.648.648,0,0,1-.239.192.759.759,0,0,1-.359.081A.562.562,0,0,1,7140.338,190.414Zm54.786.155a3.169,3.169,0,0,1-.511-.09,2.714,2.714,0,0,1-.524-.2,1.653,1.653,0,0,1-.458-.341,1.607,1.607,0,0,1-.327-.524,2,2,0,0,1-.125-.75,3.6,3.6,0,0,1,.1-.795.338.338,0,0,1-.186-.1.344.344,0,0,1-.087-.255.885.885,0,0,1,.173-.553.822.822,0,0,1,.463-.3c.054-.112.141-.262.256-.452a7.646,7.646,0,0,1,1.021-1.288,4.95,4.95,0,0,1,.726-.614,4.043,4.043,0,0,1,.856-.452,2.746,2.746,0,0,1,.976-.173,2.434,2.434,0,0,1,.765.107,1.476,1.476,0,0,1,.538.295,1.184,1.184,0,0,1,.318.452,1.493,1.493,0,0,1,.106.564,1.759,1.759,0,0,1-.069.493,1.678,1.678,0,0,1-.394.743,3,3,0,0,1-.68.558,4.453,4.453,0,0,1-.847.4,9.009,9.009,0,0,1-.916.264c-.307.072-.6.126-.884.164s-.529.067-.735.087a1.591,1.591,0,0,0-.117.345,1.672,1.672,0,0,0-.051.4.787.787,0,0,0,.349.683,1.677,1.677,0,0,0,.963.242,2.793,2.793,0,0,0,.681-.079,3.909,3.909,0,0,0,.62-.2,5.576,5.576,0,0,0,.549-.273c.171-.1.327-.2.47-.293a5.286,5.286,0,0,1,.519-.307.989.989,0,0,1,.436-.125c.126,0,.208.031.242.094a.41.41,0,0,1,.054.2c0,.04,0,.079,0,.117a.819.819,0,0,1-.013.094,1.317,1.317,0,0,1-.439.735,5.13,5.13,0,0,1-1.619.887,5.76,5.76,0,0,1-1.769.264C7195.431,190.591,7195.289,190.586,7195.124,190.57Zm1.471-5.525a3.021,3.021,0,0,0-.607.435,3.986,3.986,0,0,0-.5.562,3.772,3.772,0,0,0-.341.542,7.3,7.3,0,0,0,1-.148,3.958,3.958,0,0,0,.793-.258,2.076,2.076,0,0,0,.544-.349.865.865,0,0,0,.269-.412.18.18,0,0,0,.017-.069v-.069a.346.346,0,0,0-.152-.307.63.63,0,0,0-.363-.1A1.364,1.364,0,0,0,7196.595,185.044Zm-127.87,5.525a3.182,3.182,0,0,1-.513-.09,2.714,2.714,0,0,1-.522-.2,1.667,1.667,0,0,1-.459-.341,1.647,1.647,0,0,1-.325-.524,2.012,2.012,0,0,1-.125-.75,3.709,3.709,0,0,1,.1-.795.335.335,0,0,1-.273-.358.877.877,0,0,1,.175-.553.815.815,0,0,1,.461-.3c.056-.112.143-.262.258-.452a6.992,6.992,0,0,1,.432-.618,7.555,7.555,0,0,1,.589-.67,4.879,4.879,0,0,1,.727-.614,4.043,4.043,0,0,1,.856-.452,2.735,2.735,0,0,1,.974-.173,2.435,2.435,0,0,1,.766.107,1.5,1.5,0,0,1,.539.295,1.2,1.2,0,0,1,.318.452,1.484,1.484,0,0,1,.107.564,1.759,1.759,0,0,1-.069.493,1.694,1.694,0,0,1-.394.743,2.983,2.983,0,0,1-.679.558,4.471,4.471,0,0,1-.849.4,8.729,8.729,0,0,1-.916.264c-.306.072-.6.126-.884.164s-.527.067-.735.087a1.7,1.7,0,0,0-.117.345,1.769,1.769,0,0,0-.049.4.783.783,0,0,0,.349.683,1.671,1.671,0,0,0,.963.242,2.8,2.8,0,0,0,.681-.079,3.941,3.941,0,0,0,.618-.2,5.369,5.369,0,0,0,.549-.273q.257-.149.472-.293a5.286,5.286,0,0,1,.519-.307.986.986,0,0,1,.435-.125c.126,0,.206.031.242.094a.408.408,0,0,1,.053.2c0,.04,0,.079,0,.117a.944.944,0,0,1-.013.094,1.317,1.317,0,0,1-.439.735,5.146,5.146,0,0,1-1.619.887,5.76,5.76,0,0,1-1.769.264C7069.032,190.591,7068.889,190.586,7068.725,190.57Zm1.471-5.525a3.024,3.024,0,0,0-.607.435,3.894,3.894,0,0,0-.5.562,3.772,3.772,0,0,0-.341.542,7.34,7.34,0,0,0,1-.148,3.906,3.906,0,0,0,.791-.258,2.09,2.09,0,0,0,.546-.349.88.88,0,0,0,.269-.412.19.19,0,0,0,.017-.069v-.069a.35.35,0,0,0-.152-.307.633.633,0,0,0-.365-.1A1.363,1.363,0,0,0,7070.2,185.044Zm59.02,5.48a.549.549,0,0,1-.217-.087.254.254,0,0,1-.1-.137.619.619,0,0,1-.023-.186,3.085,3.085,0,0,1,.054-.526,4.742,4.742,0,0,0,.052-.762c-.167.123-.353.266-.553.432s-.412.327-.631.479a4.948,4.948,0,0,1-.647.383,1.4,1.4,0,0,1-.6.154,1.361,1.361,0,0,1-.432-.067,1.18,1.18,0,0,1-.349-.182,2.256,2.256,0,0,1-.58-.636,1.517,1.517,0,0,1-.177-.743,2.52,2.52,0,0,1,.032-.394c.023-.137.058-.295.1-.472a6.592,6.592,0,0,1,.99-2.217,6.733,6.733,0,0,1,1.738-1.738,2.121,2.121,0,0,1,.8-.36,4,4,0,0,1,.8-.081c.116,0,.244.009.389.023s.274.031.392.045c.115-.025.209-.043.284-.052a1.563,1.563,0,0,1,.231-.016,1.049,1.049,0,0,1,.379.061.6.6,0,0,1,.374.4.873.873,0,0,1,.042.276,1.17,1.17,0,0,1-.06.376c-.042.117-.081.238-.123.36l-1,3.995c-.02.217-.038.417-.054.6a2.5,2.5,0,0,1-.09.508c-.014.047-.032.1-.056.172a.645.645,0,0,1-.11.2.694.694,0,0,1-.19.163.574.574,0,0,1-.3.069A1.851,1.851,0,0,1,7129.215,190.525Zm-.168-5.912a3.47,3.47,0,0,0-.723.387,4.266,4.266,0,0,0-.663.573,5.541,5.541,0,0,0-.573.7,5.33,5.33,0,0,0-.442.772,4.284,4.284,0,0,0-.284.777,2.509,2.509,0,0,0-.065.3,2.211,2.211,0,0,0-.035.4,1.067,1.067,0,0,0,.06.367.255.255,0,0,0,.266.163,1.316,1.316,0,0,0,.595-.139,2.884,2.884,0,0,0,.52-.338c.217-.177.439-.376.663-.6a8.914,8.914,0,0,0,.638-.692,6.354,6.354,0,0,0,.529-.746,3.062,3.062,0,0,0,.336-.762,3.824,3.824,0,0,0,.1-.508,3.5,3.5,0,0,0,.042-.515.432.432,0,0,0-.045-.193.176.176,0,0,0-.174-.1A2.091,2.091,0,0,0,7129.047,184.613Zm22.834,5.874a1.122,1.122,0,0,1-.251-.069,1.915,1.915,0,0,1-.895-.712,1.964,1.964,0,0,1-.28-1.061,4.031,4.031,0,0,1,.042-.558,5.557,5.557,0,0,1,.125-.609,7.622,7.622,0,0,1,.428-1.221,8.139,8.139,0,0,1,.687-1.23,7.213,7.213,0,0,1,.915-1.1,4.729,4.729,0,0,1,1.117-.822,1.742,1.742,0,0,1,.434-.159,2.1,2.1,0,0,1,.477-.052,2.242,2.242,0,0,1,.466.045,1.037,1.037,0,0,1,.371.152.784.784,0,0,1,.248.273.853.853,0,0,1,.09.408,1.31,1.31,0,0,1-.054.369,1.018,1.018,0,0,1-.159.332.8.8,0,0,1-.266.238.721.721,0,0,1-.37.092.751.751,0,0,1-.307-.061,2.342,2.342,0,0,1-.27-.136,1.238,1.238,0,0,0-.128-.079.828.828,0,0,0-.145-.065,2.588,2.588,0,0,0-.571.36,4.088,4.088,0,0,0-.5.5,4.7,4.7,0,0,0-.424.584,7.109,7.109,0,0,0-.349.622,5.839,5.839,0,0,0-.266.611c-.074.2-.132.381-.177.549a3.63,3.63,0,0,0-.1.412,2.6,2.6,0,0,0-.042.452,1.464,1.464,0,0,0,.027.287.69.69,0,0,0,.094.244.475.475,0,0,0,.182.166.6.6,0,0,0,.28.061,2.1,2.1,0,0,0,.527-.069,3.569,3.569,0,0,0,.512-.175,4.275,4.275,0,0,0,.489-.246c.157-.094.313-.188.464-.284.1-.061.193-.125.289-.19s.186-.125.273-.175a2.187,2.187,0,0,1,.239-.125.482.482,0,0,1,.193-.049.4.4,0,0,1,.211.058.2.2,0,0,1,.1.192.627.627,0,0,1-.047.22,1.937,1.937,0,0,1-.288.531,2.706,2.706,0,0,1-.4.419,3.332,3.332,0,0,1-.477.331q-.255.144-.5.266a4.474,4.474,0,0,1-.952.376,3.312,3.312,0,0,1-.808.123A1.711,1.711,0,0,1,7151.881,190.487Zm-44.236-.363a1.662,1.662,0,0,1-.524-.614,2.884,2.884,0,0,1-.27-.846,5.838,5.838,0,0,1-.076-.936c0-.278.015-.558.042-.84s.062-.564.1-.838.08-.542.123-.8.08-.5.109-.719c.005-.04.009-.089.012-.141s0-.107,0-.163v-.2c0-.081,0-.155,0-.224a.318.318,0,0,1,.027-.139.859.859,0,0,1,.311-.4.788.788,0,0,1,.4-.1.868.868,0,0,1,.37.069.631.631,0,0,1,.244.181.7.7,0,0,1,.128.266,1.358,1.358,0,0,1,.038.325v.1a.636.636,0,0,1-.007.1c-.005.045-.018.126-.038.246s-.045.258-.072.421-.058.332-.09.511-.063.349-.09.511-.054.3-.076.425-.04.2-.05.249-.022.125-.038.22-.029.206-.045.331-.029.257-.038.4-.017.282-.017.425.007.266.017.39a1.469,1.469,0,0,0,.058.325.706.706,0,0,0,.1.224.2.2,0,0,0,.163.083.372.372,0,0,0,.2-.11,3.315,3.315,0,0,0,.282-.262c.1-.1.195-.208.291-.322s.175-.208.235-.284a15.261,15.261,0,0,0,.907-1.232q.412-.623.77-1.261a2.348,2.348,0,0,0,.206-.508,3.121,3.121,0,0,1,.172-.466.777.777,0,0,1,.811-.473.714.714,0,0,1,.387.128.665.665,0,0,1,.273.372c-.015.186-.038.378-.069.575s-.058.4-.083.6-.049.408-.068.609-.029.4-.029.593a3.568,3.568,0,0,0,.09.829,1.435,1.435,0,0,0,.333.649,8.955,8.955,0,0,0,.589-.842c.193-.313.385-.64.573-.977s.363-.681.533-1.028.327-.676.474-.988a.284.284,0,0,0,.02-.072c0-.022,0-.047,0-.072v-.067a1.033,1.033,0,0,1,.132-.486,2.362,2.362,0,0,1,.314-.455,1.923,1.923,0,0,1,.375-.332.618.618,0,0,1,.322-.128.694.694,0,0,1,.5.173.615.615,0,0,1,.183.463,1.04,1.04,0,0,1-.035.228,1.193,1.193,0,0,1-.11.273l-2.555,4.5-.187.372c-.082.155-.163.309-.241.455a2.3,2.3,0,0,1-.256.387,1.176,1.176,0,0,1-.311.264.763.763,0,0,1-.391.1.884.884,0,0,1-.527-.166,1.641,1.641,0,0,1-.4-.41,2.428,2.428,0,0,1-.276-.528,3.572,3.572,0,0,1-.163-.51l-.282-1.214c-.014,0-.067.054-.159.159s-.2.244-.342.41l-.446.549c-.161.2-.32.392-.473.576s-.3.351-.425.5a3.427,3.427,0,0,1-.3.314c-.07.06-.145.121-.222.182s-.155.112-.231.159a2.292,2.292,0,0,1-.217.114.467.467,0,0,1-.17.045A1.4,1.4,0,0,1,7107.646,190.123Zm64.326.042a1.863,1.863,0,0,1-.645-.486,2.1,2.1,0,0,1-.4-.715,2.739,2.739,0,0,1-.137-.88,6.321,6.321,0,0,1,.145-1.323c.1-.457.2-.9.3-1.315a1.874,1.874,0,0,1-.4-.06,1.653,1.653,0,0,1-.372-.145.9.9,0,0,1-.271-.224.463.463,0,0,1-.106-.305.613.613,0,0,1,.031-.175.977.977,0,0,1,.087-.208.57.57,0,0,1,.148-.175.324.324,0,0,1,.2-.072h1.016a.2.2,0,0,0,.2-.125,1.482,1.482,0,0,0,.083-.246c.067-.293.128-.547.187-.762s.108-.4.148-.546.07-.269.094-.363a.972.972,0,0,0,.035-.224c0-.065,0-.128-.007-.19s-.007-.145-.007-.249V181.3a1.461,1.461,0,0,1,.011-.159,1.592,1.592,0,0,1,.072-.282.716.716,0,0,1,.167-.273.47.47,0,0,1,.356-.128.7.7,0,0,1,.349.083.711.711,0,0,1,.237.22,1.055,1.055,0,0,1,.135.311,1.357,1.357,0,0,1,.045.349,1.406,1.406,0,0,1-.038.341l-.553,2.121c.272-.045.515-.089.728-.128s.424-.081.636-.121c.233-.045.434-.089.6-.13s.314-.074.435-.1.224-.051.309-.069a.988.988,0,0,1,.208-.025,1.686,1.686,0,0,1,.248.018.753.753,0,0,1,.218.065.4.4,0,0,1,.156.128.37.37,0,0,1,.06.219.693.693,0,0,1-.072.323.839.839,0,0,1-.185.242.986.986,0,0,1-.258.166,1.374,1.374,0,0,1-.287.1c-.082.014-.186.038-.316.069s-.269.063-.423.1l-.482.114c-.166.04-.327.081-.484.121-.233.061-.432.11-.595.152s-.305.07-.421.092-.211.034-.286.045a1.528,1.528,0,0,1-.177.014q-.144.431-.251.849c-.068.276-.128.537-.177.777s-.083.454-.107.643a4.316,4.316,0,0,0-.034.444,2.106,2.106,0,0,0,.038.39.885.885,0,0,0,.13.322.652.652,0,0,0,.246.217.855.855,0,0,0,.39.079,1.576,1.576,0,0,0,.788-.22,3.759,3.759,0,0,0,.739-.556,7.321,7.321,0,0,0,.668-.739q.311-.4.578-.766a.276.276,0,0,1,.235-.137.464.464,0,0,1,.11.016.423.423,0,0,1,.125.052.321.321,0,0,1,.1.1.254.254,0,0,1,.042.145.27.27,0,0,1-.009.089,4.122,4.122,0,0,1-.374.945q-.252.474-.519.95a1.593,1.593,0,0,1-.238.327,3.825,3.825,0,0,1-.323.307c-.116.1-.237.192-.363.28s-.246.168-.356.238a1.835,1.835,0,0,1-.629.249,3.257,3.257,0,0,1-.659.069A2.032,2.032,0,0,1,7171.972,190.165Zm-23.028-8.136a1.065,1.065,0,0,1-.239-.258.478.478,0,0,1-.094-.179.513.513,0,0,1-.013-.11.7.7,0,0,1,.013-.146c.007-.043.016-.085.025-.126a2.524,2.524,0,0,1,.137-.387,1.019,1.019,0,0,1,.349-.408,1.7,1.7,0,0,1,.294-.125.967.967,0,0,1,.251-.058.279.279,0,0,1,.155.054.905.905,0,0,1,.139.114,1.5,1.5,0,0,1,.145.166.262.262,0,0,1,.246.136.674.674,0,0,1,.058.289.885.885,0,0,1-.023.219c-.014.067-.027.119-.038.161a.692.692,0,0,1-.174.291,1.307,1.307,0,0,1-.3.228,1.636,1.636,0,0,1-.349.148,1.183,1.183,0,0,1-.318.052A.5.5,0,0,1,7148.944,182.029Z" transform="translate(-6362.748 57.019)" stroke="rgba(0,0,0,0)" stroke-miterlimit="10" stroke-width="1" fill="url(#linear-gradient)"></path><g id="Group_383" data-name="Group 383" transform="translate(609.627 203.952)"><g id="Group_375" data-name="Group 375" transform="translate(0)"><path id="Path_12813" data-name="Path 12813" d="M632.185,222.351,624.9,207.84a2.648,2.648,0,0,1,2.338-3.888h-17.61a2.5,2.5,0,0,1,2.487,1.694L624.9,231.112h0A9.709,9.709,0,0,0,632.185,222.351Z" transform="translate(-609.627 -203.952)" fill="#134f4d"></path></g><g id="Group_376" data-name="Group 376" transform="translate(15.274 27.16)"><path id="Path_12814" data-name="Path 12814" d="M631.84,243.451a18.738,18.738,0,0,0,8.575,2.132,18.448,18.448,0,0,0,3.963-.429h0l3.833,7.635h0l-5.841,11.634L631.84,243.451" transform="translate(-631.84 -243.451)" fill="#134f4d"></path></g><g id="Group_377" data-name="Group 377" transform="translate(15.274)"><path id="Path_12815" data-name="Path 12815" d="M662.883,203.952a13.159,13.159,0,0,0-11.647,7.028l-6.347,12.632a13.163,13.163,0,0,1-11.914,7.56c-.347,0-.794-.034-1.135-.061a18.738,18.738,0,0,0,8.575,2.132,18.364,18.364,0,0,0,16.537-10.371L666.31,204.4A13.161,13.161,0,0,0,662.883,203.952Z" transform="translate(-631.84 -203.952)" fill="url(#linear-gradient-2)"></path></g></g></g></svg> 