<?xml version="1.0" encoding="UTF-8" standalone="no"?>
<!-- Created with Inkscape (http://www.inkscape.org/) -->

<svg
   version="1.1"
   id="svg1"
   width="581.48669"
   height="371.65067"
   viewBox="0 0 581.48669 371.65067"
   xmlns="http://www.w3.org/2000/svg"
   xmlns:svg="http://www.w3.org/2000/svg">
  <defs
     id="defs1">
    <clipPath
       clipPathUnits="userSpaceOnUse"
       id="clipPath2">
      <path
         d="M 0,278.738 H 436.115 V 0 H 0 Z"
         transform="translate(-190.4685,-126.89741)"
         id="path2" />
    </clipPath>
    <clipPath
       clipPathUnits="userSpaceOnUse"
       id="clipPath4">
      <path
         d="M 0,278.738 H 436.115 V 0 H 0 Z"
         transform="translate(-64.055201,-38.222398)"
         id="path4" />
    </clipPath>
    <clipPath
       clipPathUnits="userSpaceOnUse"
       id="clipPath6">
      <path
         d="M 0,278.738 H 436.115 V 0 H 0 Z"
         transform="translate(-97.7302,-38.098101)"
         id="path6" />
    </clipPath>
    <clipPath
       clipPathUnits="userSpaceOnUse"
       id="clipPath8">
      <path
         d="M 0,278.738 H 436.115 V 0 H 0 Z"
         transform="translate(-159.5874,-32.410903)"
         id="path8" />
    </clipPath>
    <clipPath
       clipPathUnits="userSpaceOnUse"
       id="clipPath10">
      <path
         d="M 0,278.738 H 436.115 V 0 H 0 Z"
         transform="translate(-177.65061,-16.2488)"
         id="path10" />
    </clipPath>
    <clipPath
       clipPathUnits="userSpaceOnUse"
       id="clipPath12">
      <path
         d="M 0,278.738 H 436.115 V 0 H 0 Z"
         transform="translate(-217.98361,-38.098101)"
         id="path12" />
    </clipPath>
    <clipPath
       clipPathUnits="userSpaceOnUse"
       id="clipPath14">
      <path
         d="M 0,278.738 H 436.115 V 0 H 0 Z"
         transform="translate(-287.49511,-71.359799)"
         id="path14" />
    </clipPath>
    <clipPath
       clipPathUnits="userSpaceOnUse"
       id="clipPath16">
      <path
         d="M 0,278.738 H 436.115 V 0 H 0 Z"
         transform="translate(-311.82621,-17.524798)"
         id="path16" />
    </clipPath>
    <clipPath
       clipPathUnits="userSpaceOnUse"
       id="clipPath18">
      <path
         d="M 0,278.738 H 436.115 V 0 H 0 Z"
         transform="translate(-364.46581,-71.359799)"
         id="path18" />
    </clipPath>
    <clipPath
       clipPathUnits="userSpaceOnUse"
       id="clipPath20">
      <path
         d="M 0,278.738 H 436.115 V 0 H 0 Z"
         transform="translate(-396.67531,-38.098101)"
         id="path20" />
    </clipPath>
    <clipPath
       clipPathUnits="userSpaceOnUse"
       id="clipPath22">
      <path
         d="M 0,278.738 H 436.115 V 0 H 0 Z"
         transform="translate(-404.90971,-67.748902)"
         id="path22" />
    </clipPath>
    <clipPath
       clipPathUnits="userSpaceOnUse"
       id="clipPath24">
      <path
         d="M 0,278.738 H 436.115 V 0 H 0 Z"
         transform="translate(-408.11471,-64.692404)"
         id="path24" />
    </clipPath>
  </defs>
  <g
     id="layer-MC0">
    <path
       id="path1"
       d="M 0,0 C 3.788,0 4.167,-3.4 3.682,-4.883 3.498,-5.455 1.758,-6.662 0.778,-5.846 c 0.097,-1.61 2.999,-5 6.444,-4.702 2.657,0.232 3.121,0.634 6.65,0.634 1.977,0 4.439,-0.667 4.439,-2.054 0,-0.763 -0.098,-0.826 -0.454,-1.24 -0.453,-0.751 -2.796,-2.15 -3.078,-2.509 -0.314,-0.392 -1.381,-1.441 -1.695,-2.15 -0.313,-0.7 -0.15,-3.401 -0.474,-3.315 -1.263,0.328 -0.928,3.537 -0.746,4.194 0.345,1.281 0.767,2.064 1.879,3.007 -2.514,-0.423 -3.78,-1.377 -6.943,-1.377 -2.612,0 -10.126,2.553 -10.859,8.738 C -4.331,-4.374 -3.919,0 0,0 m 14.845,-20.707 c 0,1.632 1.457,3.772 1.813,4.174 0,0 -0.292,-1.853 -0.292,-3.093 0,-1.25 0.627,-2.15 0.627,-3.506 0,-1.345 -1.004,-1.206 -1.22,-1.006 -0.195,0.212 -0.928,1.811 -0.928,3.431 m -1.091,13.398 c -4.318,-0.656 -5.203,1.685 -5.517,4.704 -0.227,2.138 1.133,5.39 5.105,5.422 2.075,0.021 3.424,-0.742 5.388,-0.742 1.112,0 1.35,0.043 1.977,0.043 0.625,0 1.879,-0.71 1.879,-2.298 0,-1.611 -0.907,-0.975 -1.254,-0.636 -0.333,0.339 -3.129,2.224 -5.873,2.224 -2.741,0 -4.275,-1.016 -4.383,-1.334 -0.108,-0.36 -0.433,-1.282 0.972,-1.377 1.392,-0.096 1.447,-0.625 2.504,-1.345 1.231,-0.858 2.689,-0.869 3.509,-0.869 0.822,0 2.256,0.625 2.646,1.198 0,0 0.582,-0.339 0.582,-1.504 0,-1.791 -2.709,-2.564 -2.741,-4.353 -0.01,-0.222 -2.699,1.175 -4.794,0.867 m 5.377,-13.355 c 0.959,0.382 0.798,-1.059 6.629,-3.558 0.453,-0.191 1.607,-1.558 -0.314,-2.531 -1.922,-0.985 -4.837,0.783 -5.248,1.132 -1.974,1.611 -2.03,4.576 -1.067,4.957 m 2.525,2.574 c -0.238,0.488 -0.161,0.985 0.205,1.208 0.098,0.063 0.607,0.296 1.123,-0.424 0.844,-1.165 1.987,-1.579 4.394,-1.579 2.409,0 3.564,0.414 4.394,1.579 0.54,0.73 1.049,0.477 1.133,0.413 0.359,-0.212 0.443,-0.72 0.195,-1.197 -1.737,-3.4 -4.652,-3.368 -5.645,-3.4 h -0.259 c -1.06,0 -3.856,0.106 -5.54,3.4 m 7.298,-6.132 c 5.841,2.499 5.68,3.94 6.64,3.548 0.972,-0.371 0.906,-3.336 -1.078,-4.957 -0.401,-0.339 -3.327,-2.107 -5.237,-1.122 -1.922,0.973 -0.768,2.34 -0.325,2.531 m 7.33,12.254 c 0,1.387 2.462,2.054 4.439,2.054 3.529,0 4.006,-0.402 6.661,-0.634 3.434,-0.298 6.336,3.092 6.434,4.702 -0.981,-0.816 -2.71,0.391 -2.892,0.963 C 50.439,-3.4 50.818,0 54.606,0 c 3.909,0 4.32,-4.374 4.049,-6.62 -0.723,-6.185 -8.248,-8.738 -10.85,-8.738 -3.173,0 -4.438,0.954 -6.953,1.377 1.123,-0.943 1.534,-1.726 1.89,-3.007 0.182,-0.657 0.517,-3.866 -0.746,-4.194 -0.335,-0.086 -0.171,2.615 -0.485,3.315 -0.313,0.709 -1.37,1.758 -1.684,2.15 -0.293,0.359 -2.633,1.758 -3.076,2.509 -0.369,0.414 -0.467,0.477 -0.467,1.24 m 1.447,-11.164 c 0,1.346 0.638,2.246 0.638,3.496 0,1.239 -0.303,3.103 -0.303,3.103 0.356,-0.413 1.814,-2.542 1.814,-4.174 0,-1.63 -0.723,-3.229 -0.928,-3.431 -0.206,-0.2 -1.221,-0.339 -1.221,1.006 M 58.699,5.963 c -8.896,0 -15.417,6.778 -16.745,9.754 -1.059,2.362 -2.312,2.553 -3.651,1.896 -0.474,-0.223 -0.764,-4.543 -2.05,-4.533 -0.409,0.01 -3.443,0.275 -3.54,1.324 -0.195,2.054 3.271,5.475 4.91,6.513 1.782,1.134 2.483,1.726 6.793,1.271 0.614,-0.063 5.58,-1.344 7.211,-5.222 1.64,-3.876 2.655,-6.756 7.557,-8.08 2.117,-0.561 4.189,-0.191 6.305,1.419 0,0 -2.601,-4.342 -6.79,-4.342 M 34.624,22.782 c -0.303,-0.551 -1.998,-3.358 -2.451,-3.982 -0.377,-0.551 -0.984,-0.859 -1.49,-0.594 -0.508,0.254 -0.627,0.943 -0.345,1.536 0.506,1.059 1.629,3.59 1.995,4.237 0.422,0.708 1.231,1.059 1.859,0.73 0.635,-0.328 0.83,-1.197 0.432,-1.927 m -5.259,-6.557 c 0.185,-0.275 0.939,-0.55 1.35,-0.677 0.54,-0.169 0.54,-1.536 -0.15,-1.473 -0.411,0.033 -2.894,0.17 -3.25,0.191 -0.356,-0.021 -2.842,-0.158 -3.261,-0.191 -0.69,-0.063 -0.69,1.304 -0.153,1.473 0.422,0.127 1.168,0.402 1.36,0.677 0.509,0.763 3.596,0.763 4.104,0 m -0.69,8.346 c 0,-0.635 -0.164,-3.886 -0.261,-4.649 -0.074,-0.657 -0.464,-1.208 -1.036,-1.208 -0.572,-0.01 -0.994,0.541 -1.036,1.197 -0.052,1.165 -0.269,3.929 -0.258,4.66 0.031,0.826 0.582,1.493 1.294,1.493 0.725,0 1.307,-0.667 1.297,-1.493 m -4.6,-6.365 c -0.508,-0.265 -1.101,0.043 -1.489,0.594 -0.443,0.624 -2.138,3.431 -2.451,3.982 -0.401,0.73 -0.206,1.599 0.432,1.927 0.635,0.329 1.447,-0.022 1.866,-0.73 0.356,-0.647 1.492,-3.178 1.988,-4.237 0.292,-0.593 0.161,-1.282 -0.346,-1.536 M 13.116,8.833 C 13.031,8.578 12.739,8.621 12.631,8.79 c -0.108,0.18 -0.778,1.059 -0.195,2.077 0.585,1.038 1.858,2.996 2.019,3.166 0.034,0.032 0.076,0.075 0.108,0.106 0.163,0.148 0.379,0.297 0.551,0.159 0.118,-0.096 0.258,-0.212 0.4,-0.339 0.108,-0.361 0.237,-0.795 0.335,-1.144 0.084,-0.275 0.15,-0.487 0.171,-0.551 0.108,-0.265 0.087,-0.434 -0.01,-0.73 -0.119,-0.286 -0.388,-1.102 -0.506,-1.251 -0.119,-0.147 -0.303,-0.212 -0.39,0.149 -0.042,0.159 -0.151,0.572 -0.269,1.006 C 14.154,10.516 13.3,9.341 13.116,8.833 M 19.79,4.522 c -3.522,0 -6.165,0.635 -6.165,1.441 0,1.26 2.838,5.454 13.753,5.454 10.925,0 13.756,-4.194 13.756,-5.454 0,-0.806 -2.646,-1.441 -6.165,-1.441 -3.703,0 -3.379,0.582 -4.718,0.582 -0.474,0 -1.36,-0.359 -1.36,-1.218 0,-0.846 0.335,-0.995 0.377,-2.139 0.042,-1.143 -1.89,-1.143 -1.89,-1.143 0,0 -1.932,0 -1.89,1.143 0.055,1.144 0.39,1.293 0.39,2.139 0,0.859 -0.885,1.218 -1.37,1.218 -1.329,0 -1.005,-0.582 -4.718,-0.582 m 2.838,-12.169 c 0.464,1.187 0.994,0.901 1.835,2.382 0.282,0.498 0.477,2.511 1.049,2.85 0.582,0.349 0.669,0.773 1.866,0.773 1.21,0 1.286,-0.424 1.869,-0.773 0.572,-0.339 0.767,-2.352 1.057,-2.85 0.833,-1.481 1.36,-1.195 1.837,-2.382 0.311,-0.826 -0.422,-1.663 -1.384,-1.663 -1.684,0 -2.417,-0.975 -3.379,-0.975 -0.959,0 -1.684,0.975 -3.368,0.975 -0.97,0 -1.706,0.837 -1.382,1.663 m 10.731,-6.767 c -0.604,-0.647 -1.932,-0.816 -3.153,-0.901 -0.269,-0.021 -0.593,-0.074 -0.927,-0.127 -0.638,-0.106 -1.35,-0.255 -1.933,-0.202 h -0.184 c -0.496,0 -1.123,0.106 -1.674,0.202 -0.345,0.053 -0.656,0.106 -0.896,0.127 -1.252,0.085 -2.591,0.254 -3.195,0.901 -0.171,0.19 -0.582,0.624 -0.292,1.026 0.271,0.403 0.833,0.212 1.384,-0.01 0.205,-0.063 0.767,0.053 1.196,0.116 0.865,0.096 1.447,0.17 1.793,0.127 0.561,-0.063 1.447,-0.551 1.9,-0.826 0.464,0.275 1.35,0.763 1.911,0.826 0.324,0.032 0.928,-0.031 1.792,-0.127 0.464,-0.063 1.113,-0.116 1.231,-0.116 0.475,0.222 1.047,0.424 1.35,0.01 0.292,-0.391 -0.129,-0.836 -0.303,-1.026 M 42.104,8.79 C 42.007,8.61 41.717,8.568 41.63,8.823 c -0.185,0.508 -1.036,1.693 -1.727,2.615 -0.118,-0.434 -0.226,-0.847 -0.271,-1.006 -0.087,-0.361 -0.279,-0.308 -0.388,-0.159 -0.118,0.159 -0.4,0.965 -0.508,1.261 -0.108,0.296 -0.13,0.465 -0.011,0.72 0.021,0.063 0.087,0.286 0.164,0.551 0.108,0.349 0.237,0.793 0.345,1.144 0.129,0.126 0.279,0.253 0.387,0.338 0.185,0.138 0.39,0 0.562,-0.148 0.031,-0.043 0.076,-0.074 0.108,-0.106 0.163,-0.17 1.426,-2.14 2.008,-3.166 C 42.882,9.839 42.212,8.96 42.104,8.79 m 4.394,-11.407 c -0.324,-3.017 -1.154,-4.702 -5.517,-4.702 -2.179,0 -4.781,-1.079 -4.792,-0.857 -0.034,1.789 -2.743,2.562 -2.743,4.353 0,1.165 0.582,1.504 0.582,1.504 0.38,-0.583 1.827,-1.208 2.647,-1.208 0.819,0 2.277,0.021 3.508,0.869 1.059,0.73 1.112,1.249 2.504,1.344 1.405,0.096 1.081,1.017 0.972,1.377 -0.108,0.318 -1.642,1.345 -4.383,1.345 -2.741,0 -5.538,-1.885 -5.872,-2.224 -0.346,-0.339 -1.253,-0.975 -1.253,0.625 0,1.599 1.253,2.309 1.877,2.309 0.628,0 0.865,-0.053 1.977,-0.053 1.964,0 3.313,0.763 5.388,0.742 3.972,-0.032 5.332,-3.284 5.105,-5.424 M 22.035,14.404 C 21.938,13.355 18.893,13.09 18.493,13.08 17.209,13.07 16.917,17.39 16.442,17.623 15.103,18.27 13.851,18.09 12.794,15.728 11.455,12.741 4.945,5.983 -3.962,5.983 c -4.191,0 -6.792,4.343 -6.792,4.343 2.127,-1.609 4.188,-1.991 6.315,-1.419 4.903,1.313 5.918,4.205 7.56,8.071 1.629,3.876 6.595,5.157 7.211,5.22 4.307,0.445 5.008,-0.147 6.79,-1.281 1.642,-1.038 5.095,-4.459 4.913,-6.513 m -30.857,-19.7 c 0,-6.185 4.449,-10.666 13.226,-13.324 l 0.161,-0.053 c 0.206,-0.063 0.369,-0.106 0.467,-0.147 0.129,-0.065 0.722,-0.573 1.336,-1.124 3.424,-3.017 12.536,-11.036 20.72,-11.036 8.15,0 17.663,8.029 21.247,11.047 0.646,0.54 1.252,1.06 1.382,1.113 0.097,0.041 0.237,0.084 0.421,0.137 l 0.203,0.063 c 8.767,2.658 13.216,7.139 13.216,13.324 0,3.399 -1.199,6.006 -3.498,7.593 2.689,0.457 4.879,1.579 6.521,3.348 3.551,3.845 3.055,9.299 3.034,9.532 -0.108,1.059 -0.951,1.917 -1.966,2.001 -1.068,0.096 -2.009,-0.518 -2.267,-1.461 -0.398,-0.836 -2.451,-3.051 -3.669,-3.051 -3.835,0 -4.686,2.13 -5.67,4.598 -2.158,5.422 -7.264,8.928 -13.021,8.928 -1.802,0 -3.906,-0.128 -5.991,-1.081 -1.381,1.504 -4.373,3.823 -9.663,3.823 -5.485,0 -8.474,-2.541 -9.617,-3.802 -2.128,0.932 -4.244,1.06 -6.026,1.06 -5.754,0 -10.883,-3.549 -13.074,-9.024 -0.951,-2.415 -1.781,-4.502 -5.603,-4.502 -1.252,0 -3.292,2.236 -3.617,2.87 -0.282,1.018 -1.231,1.664 -2.311,1.579 -1.047,-0.096 -1.89,-0.9 -1.995,-1.938 -0.024,-0.233 -0.52,-5.687 3.044,-9.532 1.639,-1.769 3.822,-2.891 6.508,-3.348 -2.288,-1.587 -3.498,-4.194 -3.498,-7.593 m 63.958,62.054 c 0,0 2.354,0.943 2.354,3.674 0,2.744 -1.911,3.168 -1.911,3.168 2.765,0 4.264,1.302 4.944,2.001 0.928,0.975 1.75,2.711 1.803,4.268 0.119,3.082 -0.174,3.941 -0.174,3.941 -0.356,-0.869 -1.747,-3.411 -3.432,-4.957 -1.684,-1.557 -2.57,-1.97 -2.57,-1.97 l -0.139,1.568 c 2.462,1.577 4.362,6.365 4.61,11.501 0.248,5.148 -1.123,6.642 -1.123,6.642 C 58.752,75.207 54.456,70.865 54.456,70.865 l -1.026,1.06 c 2.322,2.329 4.471,9.373 4.007,14.382 -0.422,4.491 -1.685,6.164 -1.685,6.164 1.1,-12.487 -4.104,-18.449 -4.104,-18.449 l -1.165,0.995 c 4.038,6.989 3.303,15.314 3.303,15.314 -1.175,11.662 -9.694,12.647 -9.694,12.647 3.347,-1.695 6.5,-9.724 6.5,-16.437 0,-6.716 -2.647,-10.116 -2.647,-10.116 l -2.127,0.732 c 2.689,5.814 2.399,10.728 2.399,10.728 -1.363,18.259 -13.778,15.569 -13.778,15.569 9.436,-4.311 10.754,-12.688 10.754,-16.713 0,-4.035 -1.241,-6.163 -2.904,-8.219 -1.653,-2.054 -3.261,-1.863 -3.261,-1.863 0.97,1.641 0.377,2.351 -0.411,2.817 -2.061,1.207 -3.442,-1.091 -3.442,-1.091 0.548,-0.116 1.576,-1.101 1.576,-1.737 0,-1.143 0.182,-1.916 -1.545,-3.463 -1.813,-1.621 -1.729,-3.4 -1.729,-4.587 0,-5.253 2.831,-6.948 5.293,-6.948 2.459,0 2.385,0.753 4.621,0.753 2.245,0 3.344,-2.373 3.344,-3.803 0,-1.419 -1.241,-2.128 -1.911,-2.329 -3.107,-0.922 -7.599,-1.536 -10.796,-3.993 -2.699,-2.066 -3.669,-5.921 -3.669,-6.715 l 4.328,-1.26 c 0,0 0.108,2.658 2.755,2.955 1.629,0.169 8.874,1.726 10.493,1.863 4.08,0.371 4.404,3.39 4.784,4.184 1.36,2.945 2.999,1.006 2.999,1.006 0.52,0.869 -0.582,2.447 -0.582,2.447 M 27.542,52.839 v 0 h 0.01 0.01 0.011 -0.021 z m -0.143,-5.095 c 0.108,0.149 1.708,2.289 1.708,4.979 0,2.679 -1.6,2.732 -1.708,2.732 -0.118,0 -1.716,-0.053 -1.716,-2.732 0,-2.69 1.598,-4.83 1.716,-4.979 m 0.174,-1.938 -0.021,0.022 -0.01,-0.022 h 0.01 0.01 z m -0.031,-1.62 h 0.01 0.021 -0.011 -0.01 z m 7.448,-1.98 c -2.04,1.408 -7.33,1.97 -7.438,1.98 -0.097,-0.01 -5.398,-0.572 -7.428,-1.98 0,0 -0.659,-1.145 0.475,-2.373 0,0 3.002,1.186 6.953,1.186 3.962,0 6.953,-1.186 6.953,-1.186 1.144,1.228 0.485,2.373 0.485,2.373 M 8.376,58.6 c 0,1.43 1.102,3.803 3.348,3.803 2.235,0 2.159,-0.753 4.62,-0.753 2.452,0 5.28,1.695 5.28,6.948 0,1.187 0.098,2.966 -1.716,4.587 -1.729,1.547 -1.544,2.32 -1.544,3.463 0,0.636 1.025,1.621 1.576,1.737 0,0 -1.381,2.298 -3.456,1.091 -0.788,-0.466 -1.381,-1.176 -0.398,-2.817 0,0 -1.621,-0.191 -3.26,1.863 -1.663,2.056 -2.905,4.184 -2.905,8.219 0,4.025 1.318,12.402 10.754,16.713 0,0 -12.417,2.69 -13.777,-15.569 0,0 -0.29,-4.914 2.385,-10.728 L 7.156,76.425 c 0,0 -2.644,3.4 -2.644,10.116 0,6.713 3.163,14.742 6.511,16.437 0,0 -8.53,-0.985 -9.695,-12.647 0,0 -0.735,-8.325 3.303,-15.314 L 3.466,74.022 c 0,0 -5.206,5.962 -4.104,18.449 0,0 -1.262,-1.673 -1.684,-6.164 -0.475,-5.009 1.684,-12.053 4.006,-14.382 l -1.025,-1.06 c 0,0 -4.31,4.342 -5.042,15.729 0,0 -1.371,-1.494 -1.123,-6.642 0.247,-5.136 2.148,-9.924 4.61,-11.501 l -0.153,-1.568 c 0,0 -0.873,0.413 -2.557,1.97 -1.684,1.546 -3.079,4.088 -3.445,4.957 0,0 -0.279,-0.859 -0.171,-3.941 0.063,-1.557 0.872,-3.293 1.813,-4.268 0.67,-0.699 2.18,-2.001 4.945,-2.001 0,0 -1.911,-0.424 -1.911,-3.168 0,-2.731 2.354,-3.674 2.354,-3.674 0,0 -1.102,-1.578 -0.585,-2.447 0,0 1.642,1.939 3.002,-1.006 0.366,-0.794 0.701,-3.813 4.773,-4.184 1.619,-0.137 8.873,-1.694 10.504,-1.863 2.644,-0.297 2.741,-2.955 2.741,-2.955 l 4.331,1.26 c 0,0.794 -0.962,4.649 -3.672,6.715 -3.194,2.457 -7.686,3.071 -10.785,3.993 -0.67,0.201 -1.912,0.91 -1.912,2.329 M 5.366,37.249 c -0.076,0.657 -0.131,2.69 0.646,3.463 0.153,0.149 0.433,0.349 0.994,0.296 0.843,-0.084 1.405,-0.487 2.051,-0.963 0.648,-0.467 1.383,-1.006 2.43,-1.187 0.669,-0.126 3.076,-0.422 6.11,0.647 0.205,0.073 0.355,0.233 0.432,0.434 0.066,0.201 0.032,0.424 -0.087,0.604 l -0.67,0.995 c -0.203,0.297 -0.593,0.403 -0.917,0.243 -1.025,-0.518 -3.508,-0.497 -5.192,0.286 -0.412,0.202 -0.757,0.446 -1.113,0.7 C 9.349,43.264 8.551,43.826 7.169,44.07 5.451,44.376 4.491,43.562 3.854,43.011 3.682,42.852 3.508,42.714 3.379,42.65 3.076,42.491 2.591,42.555 2.093,42.799 c -0.656,0.328 -1.186,0.9 -1.273,1.377 -0.053,0.317 -0.335,0.561 -0.67,0.571 -0.324,0.043 -0.638,-0.212 -0.712,-0.53 -0.261,-1.026 -0.01,-3.092 2.56,-4.119 -0.024,-0.212 -0.034,-0.456 0.021,-0.72 0.182,-0.975 0.938,-1.917 2.246,-2.786 0.118,-0.084 0.258,-0.116 0.398,-0.116 0.129,0 0.247,0.032 0.369,0.095 0.237,0.148 0.366,0.413 0.334,0.678 m 13.873,-3.845 c -0.875,-0.837 -0.875,-1.388 -0.875,-1.938 0,-0.551 0.184,-1.546 1.792,-1.143 1.618,0.392 5.883,1.504 5.883,7.233 0,0.668 -0.074,1.494 -0.074,1.494 -1.436,0.2 -3.79,-0.594 -3.79,-0.594 0,-0.868 -1.618,-3.823 -2.936,-5.052 m 9.91,5.646 c 0,0 -0.076,-0.826 -0.076,-1.494 0,-5.729 4.254,-6.841 5.875,-7.233 1.618,-0.403 1.803,0.592 1.803,1.143 0,0.55 0,1.101 -0.886,1.938 -1.307,1.229 -2.936,4.184 -2.936,5.052 0,0 -2.343,0.794 -3.78,0.594 m 26.527,5.167 c -0.076,0.318 -0.345,0.563 -0.712,0.53 -0.334,-0.01 -0.616,-0.254 -0.682,-0.571 -0.074,-0.477 -0.615,-1.049 -1.263,-1.377 -0.506,-0.244 -0.98,-0.297 -1.294,-0.149 -0.119,0.064 -0.293,0.202 -0.475,0.361 -0.627,0.551 -1.578,1.376 -3.305,1.059 -1.381,-0.244 -2.18,-0.806 -2.894,-1.314 -0.356,-0.254 -0.701,-0.487 -1.099,-0.689 -1.684,-0.783 -4.181,-0.804 -5.195,-0.286 -0.322,0.16 -0.722,0.054 -0.917,-0.232 l -0.681,-1.006 c -0.118,-0.18 -0.15,-0.403 -0.073,-0.604 0.063,-0.201 0.226,-0.361 0.429,-0.434 3.034,-1.069 5.443,-0.773 6.102,-0.647 1.047,0.181 1.779,0.72 2.438,1.187 0.649,0.476 1.21,0.879 2.054,0.963 0.548,0.053 0.83,-0.147 0.991,-0.296 0.767,-0.773 0.724,-2.806 0.648,-3.463 -0.031,-0.276 0.098,-0.541 0.335,-0.678 0.108,-0.063 0.237,-0.095 0.366,-0.095 0.143,0 0.282,0.032 0.401,0.116 1.307,0.869 2.061,1.811 2.235,2.786 0.053,0.264 0.053,0.508 0.021,0.72 2.57,1.027 2.828,3.093 2.57,4.119 m -34.344,83.173 1.404,4.851 c -2.925,0.964 -5.667,1.483 -8.01,1.483 -7.515,0 -11.821,-3.76 -15.978,-7.403 -3.585,-3.135 -6.974,-6.091 -12.156,-6.091 -0.865,0 -3.522,0 -8.39,3.347 -0.282,0.192 -0.68,0.159 -0.917,-0.095 -0.325,-0.329 -7.892,-8.123 -11.348,-15.167 -0.087,-0.169 -0.097,-0.349 -0.031,-0.529 0.052,-0.159 1.207,-3.537 1.684,-4.883 -1.74,-1.758 -9.513,-10.23 -8.767,-21.14 0.021,-0.328 0.269,-0.583 0.594,-0.646 1.726,-0.286 3.682,-0.624 4.986,-0.826 -2.343,-2.636 -8.15,-10.294 -7.783,-21.32 0.087,-2.531 0.314,-4.914 0.691,-7.096 1.359,-7.943 4.177,-10.634 4.296,-10.75 0.261,-0.243 0.669,-0.254 0.951,-0.031 0.021,0.031 2.668,2.128 7.093,2.128 4.102,0 8.237,-2.467 8.237,-7.985 0,-5.391 -4.945,-7.827 -8.377,-7.827 -1.004,0.106 -2.245,0.275 -2.472,0.359 -0.237,0.075 -0.498,0.033 -0.69,-0.116 -0.195,-0.149 -0.293,-0.392 -0.261,-0.624 0.034,-0.265 2.925,-20.865 21.853,-29.55 0.203,1.144 0.517,2.224 0.981,3.209 -1.252,0.699 -2.365,1.589 -3.345,2.648 -0.659,0.72 -1.21,1.472 -1.674,2.235 -0.422,0.371 -0.854,0.763 -1.265,1.175 -0.053,0.053 -0.119,0.096 -0.182,0.127 -4.341,4.1 -7.341,9.564 -8.941,16.268 2.322,0.445 8.801,2.489 8.801,11.386 0,8.642 -6.112,14.669 -14.9,14.669 -0.279,-0.022 -2.406,-0.128 -3.648,-0.371 -0.335,0.604 -0.951,1.789 -1.534,3.4 -0.928,2.605 -1.402,5.231 -1.402,7.795 0,4.321 0.883,18.408 12.359,18.408 0.034,-0.012 3.111,0.041 5.324,-2.087 1.587,-1.515 2.386,-3.76 2.386,-6.694 0,-0.074 -0.282,-7.668 -6.553,-7.668 -5.063,0 -5.453,3.337 -5.453,4.395 0,0 0.034,3.686 2.667,3.686 0.52,0 1.199,-0.159 1.199,-1.515 0,-0.604 -0.239,-1.059 -0.658,-1.249 -0.293,-0.138 -0.617,-0.116 -0.823,0.053 -0.203,0.159 -0.485,0.201 -0.722,0.106 -0.237,-0.095 -0.411,-0.318 -0.443,-0.572 -0.01,-0.127 -0.097,-1.218 0.67,-2.055 0.529,-0.561 1.273,-0.847 2.245,-0.847 2.742,0 4.74,2.022 4.74,4.809 0,2.89 -1.933,5.824 -5.625,5.824 -3.627,0 -7.386,-3.272 -7.386,-8.748 0,-5.528 4.958,-10.57 10.398,-10.57 5.053,0 8.627,2.278 10.204,6.281 1.953,-12.095 7.881,-22.337 16.086,-29.306 1.877,-1.589 2.557,-1.207 0.928,0.751 -8.746,10.465 -12.352,27.357 -12.352,38.86 0,15.357 7.072,33.404 19.919,42.471 1.252,0.889 1.036,1.281 -0.324,0.614 -16.463,-8.103 -23.804,-26.933 -24.819,-41.231 -2.723,6.206 -9.244,11.554 -20.113,12.274 0.205,2.416 1.478,10.804 9.23,15.485 0.303,0.19 0.422,0.551 0.279,0.868 -0.809,1.854 -2.071,4.724 -2.438,5.593 1.49,2.637 5.161,8.62 7.341,10.189 1.284,-0.848 5.409,-3.411 8.377,-3.411 3.316,0 6.391,0.508 13.108,6.905 5.991,5.698 9.37,8.251 13.592,8.251 2.072,0 4.674,-0.964 7.157,-2.5 M 41.64,125.632 30.649,122.9 27.552,133.597 24.463,122.9 l -10.999,2.69 7.902,-7.933 -7.902,-7.943 11.033,2.701 3.055,-10.708 3.097,10.708 10.96,-2.744 -7.871,7.986 z m 45.95,-22.729 c 0.475,1.346 1.629,4.724 1.685,4.883 0.063,0.17 0.052,0.36 -0.035,0.529 -3.453,7.044 -11.022,14.838 -11.347,15.167 -0.237,0.254 -0.624,0.297 -0.917,0.095 -4.868,-3.347 -7.525,-3.347 -8.398,-3.347 -5.171,0 -8.563,2.956 -12.145,6.091 -4.157,3.643 -8.467,7.403 -15.979,7.403 -2.353,0 -5.129,-0.53 -8.065,-1.504 l 1.402,-4.861 c 2.493,1.557 5.119,2.531 7.211,2.531 4.223,0 7.602,-2.553 13.593,-8.251 6.716,-6.397 9.792,-6.905 13.108,-6.905 2.968,0 7.083,2.563 8.377,3.411 2.182,-1.569 5.851,-7.552 7.343,-10.179 -0.38,-0.91 -1.631,-3.76 -2.441,-5.603 -0.139,-0.317 -0.021,-0.678 0.28,-0.868 7.752,-4.681 9.027,-13.069 9.23,-15.485 -10.88,-0.72 -17.412,-6.079 -20.121,-12.296 -1.005,14.298 -8.348,33.15 -24.822,41.253 -1.349,0.667 -1.576,0.275 -0.324,-0.614 12.847,-9.067 19.919,-27.114 19.919,-42.471 0,-11.503 -3.606,-28.395 -12.352,-38.86 -1.628,-1.958 -0.948,-2.34 0.928,-0.751 8.219,6.969 14.144,17.211 16.089,29.326 1.576,-4.013 5.148,-6.301 10.211,-6.301 5.443,0 10.398,5.042 10.398,10.57 0,5.476 -3.758,8.748 -7.385,8.748 -3.693,0 -5.625,-2.934 -5.625,-5.824 0,-2.787 1.998,-4.809 4.739,-4.809 0.973,0 1.719,0.286 2.236,0.847 0.777,0.837 0.68,1.928 0.669,2.055 -0.021,0.254 -0.195,0.477 -0.432,0.572 -0.248,0.095 -0.527,0.053 -0.723,-0.106 -0.205,-0.169 -0.529,-0.191 -0.819,-0.053 -0.422,0.19 -0.659,0.645 -0.659,1.249 0,1.356 0.68,1.515 1.196,1.515 2.636,0 2.668,-3.686 2.668,-3.686 0,-1.058 -0.401,-4.395 -5.451,-4.395 -6.273,0 -6.555,7.594 -6.555,7.668 0,2.934 0.809,5.189 2.385,6.694 2.214,2.128 5.28,2.087 5.346,2.087 11.444,0 12.341,-14.087 12.341,-18.408 0,-2.552 -0.488,-5.253 -1.416,-7.795 -0.572,-1.611 -1.186,-2.796 -1.521,-3.39 -1.189,0.223 -3.207,0.339 -3.693,0.361 -8.745,0 -14.855,-6.027 -14.855,-14.669 0,-8.897 6.476,-10.941 8.798,-11.386 C 80.065,16.448 77.063,10.983 72.735,6.885 72.669,6.852 72.603,6.799 72.54,6.746 71.826,6.036 71.093,5.402 70.336,4.818 69.991,4.31 69.614,3.813 69.171,3.336 68.188,2.277 67.065,1.387 65.813,0.688 c 0.485,-1.038 0.82,-2.181 1.026,-3.389 19.294,8.578 22.22,29.465 22.251,29.73 0.032,0.232 -0.066,0.465 -0.258,0.624 -0.195,0.149 -0.454,0.191 -0.68,0.116 -0.237,-0.084 -1.482,-0.253 -2.409,-0.359 -3.509,0 -8.453,2.436 -8.453,7.827 0,5.518 4.135,7.985 8.237,7.985 4.417,0 7.071,-2.108 7.092,-2.118 0.282,-0.233 0.681,-0.222 0.952,0.021 0.119,0.116 2.936,2.807 4.296,10.75 0.367,2.119 0.593,4.502 0.691,7.096 0.356,11.026 -5.44,18.684 -7.784,21.32 1.308,0.202 3.261,0.54 4.987,0.826 0.324,0.063 0.572,0.318 0.596,0.646 0.743,10.92 -7.03,19.393 -8.767,21.14"
       style="fill:#231f20;fill-opacity:1;fill-rule:nonzero;stroke:none"
       transform="matrix(1.3333333,0,0,-1.3333333,253.958,202.45413)"
       clip-path="url(#clipPath2)" />
    <path
       id="path3"
       d="m 0,0 c -1.176,0 -2.03,-0.539 -2.03,-2.775 v -10.146 c 0,-1.081 0.269,-1.842 0.269,-2.456 0,-0.616 -0.387,-0.922 -1.046,-1.23 -5.28,-3.156 -10.818,-4.914 -19.11,-4.914 -6.768,0 -14.402,2.531 -18.904,8.759 -3.972,5.306 -6.001,11.83 -6.001,21.14 0,6.99 2.807,14.457 7.567,19.297 4.76,4.914 10.636,7.531 18.461,7.531 6.576,0 11.466,-2.15 13.625,-3.771 0.788,-0.541 1.231,-0.382 1.631,0.232 l 0.649,1.23 c 0.334,0.539 0.463,0.761 0.851,0.761 0.714,0 0.907,-0.528 0.907,-1.375 l 0.983,-15.835 c 0.066,-0.921 0,-1.312 -0.258,-1.387 L -4.23,14.605 c -0.391,-0.084 -0.596,0.074 -0.791,0.763 -0.322,1.165 -0.743,2.436 -1.252,3.728 l -0.011,-0.031 c -0.161,0.455 -0.334,0.879 -0.516,1.291 -0.056,0.106 -0.098,0.212 -0.153,0.339 -0.659,1.462 -1.458,2.743 -2.536,3.994 -1.081,1.26 -2.148,2.203 -3.487,3.049 -1.339,0.849 -2.667,1.483 -4.178,1.897 -1.502,0.433 -2.549,0.55 -4.062,0.55 -2.88,0 -4.478,-0.794 -6.542,-2.118 -2.061,-1.334 -4.826,-3.855 -6.898,-9.204 -1.025,-3.124 -1.663,-6.651 -1.663,-10.326 0,-2.987 0.227,-5.836 0.67,-8.474 0.258,-1.577 0.606,-3.092 0.993,-4.5 0.681,-2.013 1.664,-3.876 2.947,-5.581 1.555,-2.077 3.358,-3.591 5.398,-4.576 2.04,-0.985 4.321,-1.462 6.835,-1.462 0.401,0 1.036,0.032 1.89,0.116 0.851,0.075 1.705,0.223 2.57,0.435 0.851,0.212 1.608,0.519 2.256,0.953 0.324,0.201 0.562,0.446 0.733,0.721 0.195,1.206 0.226,2.795 0.226,4.755 v 2.373 3.166 c 0,2.764 -0.648,3.537 -2.287,3.537 h -2.731 c -0.401,0 -0.467,0.308 -0.467,0.689 v 1.917 c 0,0.307 0.066,0.54 0.467,0.54 0.582,0 3.777,-0.233 9.65,-0.233 5.993,0 8.41,0.233 8.93,0.233 0.527,0 0.582,-0.233 0.582,-0.615 V 0.604 C 2.343,0.149 2.288,0 1.89,0 Z"
       style="fill:#231f20;fill-opacity:1;fill-rule:nonzero;stroke:none"
       transform="matrix(1.3333333,0,0,-1.3333333,85.406933,320.68747)"
       clip-path="url(#clipPath4)" />
    <path
       id="path5"
       d="m 0,0 h -14.824 l 7.072,20.515 c 0.064,0.202 0.301,0.212 0.43,0.086 0.076,-0.202 0.132,-0.35 0.142,-0.392 z m 20.156,-20.526 v 1.018 c 0,0.147 -0.129,0.286 -0.282,0.286 -0.743,0.073 -2.309,0.391 -2.762,0.985 -0.519,0.667 -0.931,1.366 -1.221,2.107 l -19.51,51.473 c -0.108,0.298 -0.516,0.392 -0.777,0.18 -1.176,-1.016 -2.438,-1.916 -3.778,-2.711 h -0.01 c -0.282,-0.17 -0.562,-0.349 -0.854,-0.508 l -1.371,-0.753 c -0.258,-0.18 -0.4,-0.486 -0.334,-0.794 l 0.01,-0.042 c 0.185,-0.837 0.108,-1.706 -0.182,-2.51 l -16.4,-44.017 c -0.334,-0.901 -0.756,-1.652 -1.252,-2.256 -0.453,-0.571 -2.085,-0.942 -2.939,-1.122 -0.129,-0.032 -0.213,-0.128 -0.213,-0.255 v -1.081 c 0,-0.116 0.073,-0.21 0.192,-0.263 l 2.852,0.031 c 0.15,0.022 0.311,0.022 0.475,0.022 l 1.067,-0.022 c 0.778,0.042 1.555,0.063 2.312,0.085 h 0.01 c 0.614,0 1.221,0 1.835,-0.012 h 0.153 c 0.624,-0.02 1.252,-0.031 1.876,-0.073 l 1.88,-0.031 1.426,-0.012 c 0.171,0 0.289,0.128 0.289,0.275 v 1.018 c 0,0.159 -0.118,0.286 -0.279,0.286 -0.487,0 -0.928,0.042 -1.328,0.116 -0.496,0.074 -0.886,0.233 -1.155,0.477 -0.271,0.233 -0.421,0.582 -0.477,1.038 -0.053,0.433 0.056,1.037 0.303,1.779 l 3.543,10.008 H 0.377 1.932 l 3.616,-10.167 c 0.29,-0.742 0.412,-1.334 0.335,-1.779 -0.076,-0.456 -0.258,-0.785 -0.551,-0.995 -0.292,-0.212 -0.68,-0.351 -1.154,-0.404 -0.38,-0.053 -0.809,-0.073 -1.286,-0.073 L 2.86,-19.233 c -0.15,-0.022 -0.269,-0.128 -0.269,-0.275 v -1.018 c 0,-0.052 0.021,-0.094 0.042,-0.137 0.011,-0.01 0.021,-0.01 0.021,-0.022 0.032,-0.031 0.077,-0.073 0.119,-0.094 0.034,-0.01 0.087,-0.022 0.087,-0.022 l 0.519,0.032 4.091,0.084 c 1.081,0.043 2.18,0.043 3.271,0.022 1.07,0.021 2.148,0.021 3.229,-0.01 l 6.001,-0.106 c 0.109,0.053 0.185,0.137 0.185,0.253"
       style="fill:#231f20;fill-opacity:1;fill-rule:nonzero;stroke:none"
       transform="matrix(1.3333333,0,0,-1.3333333,130.30693,320.8532)"
       clip-path="url(#clipPath6)" />
    <path
       id="path7"
       d="m 0,0 c -0.195,-0.54 -2.807,-13.229 -3.195,-15.305 -0.551,0.053 -10.872,0.096 -20.114,0.127 h -5.15 v 0.011 c -5.322,0.011 -9.381,0.021 -9.381,0.021 -0.152,0 -0.271,0.116 -0.271,0.243 v 1.113 c 0,0.127 0.108,0.233 0.248,0.243 1.146,0.106 1.977,0.296 2.496,0.583 0.537,0.286 0.809,1.196 0.809,2.732 V 35.47 c 0,1.481 -0.293,2.383 -0.854,2.699 -0.54,0.298 -1.339,0.477 -2.451,0.551 -0.129,0 -0.248,0.106 -0.248,0.234 v 1.112 c 0,0.127 0.119,0.243 0.271,0.243 h 16.432 c 0.14,0 0.258,-0.116 0.258,-0.243 v -1.112 c 0,-0.128 -0.108,-0.234 -0.247,-0.244 -0.583,-0.053 -1.102,-0.095 -1.524,-0.137 -0.496,-0.053 -0.907,-0.18 -1.252,-0.361 -0.345,-0.18 -0.604,-0.488 -0.778,-0.921 -0.171,-0.424 -0.268,-1.048 -0.268,-1.896 V -9.163 h 11.518 c 1.621,0 2.981,0.159 4.059,0.446 1.081,0.297 2.009,0.752 2.776,1.388 0.669,0.561 1.273,1.291 1.813,2.17 1.35,2.373 2.42,4.778 2.828,5.995 0.195,0.466 0.401,0.699 0.799,0.466 L -0.129,0.688 C 0.066,0.529 0.066,0.455 0,0"
       style="fill:#231f20;fill-opacity:1;fill-rule:nonzero;stroke:none"
       transform="matrix(1.3333333,0,0,-1.3333333,212.7832,328.43613)"
       clip-path="url(#clipPath8)" />
    <path
       id="path9"
       d="m 0,0 -1.716,-0.403 v 0.022 l -1.782,-0.414 c -0.118,0.085 -0.227,0.212 -0.282,0.361 l -18.957,52.383 c -0.4,1.058 -0.819,1.78 -1.262,2.139 -0.411,0.349 -1.06,0.604 -1.935,0.763 -0.108,0.031 -0.203,0.116 -0.203,0.243 v 1.134 c 0,0.137 0.119,0.243 0.248,0.243 h 16.474 c 0.153,0 0.261,-0.106 0.261,-0.243 v -1.102 c 0,-0.138 -0.108,-0.232 -0.261,-0.232 -0.485,-0.012 -0.939,-0.033 -1.36,-0.086 -0.506,-0.053 -0.896,-0.169 -1.221,-0.349 -0.324,-0.191 -0.516,-0.497 -0.593,-0.922 -0.076,-0.423 0.011,-1.027 0.269,-1.821 L -1.468,19.688 v 0.011 l 1.402,-4.152 11.597,35.682 c 0.238,0.742 0.322,1.356 0.214,1.821 -0.095,0.477 -0.29,0.837 -0.593,1.081 -0.29,0.233 -0.68,0.402 -1.176,0.508 -0.421,0.096 -0.885,0.169 -1.394,0.222 -0.119,0.021 -0.227,0.106 -0.227,0.233 v 1.134 c 0,0.127 0.108,0.233 0.251,0.233 h 1.51 l 0.032,0.01 h 11.521 c 0.074,0 0.15,-0.031 0.192,-0.074 0.056,-0.042 0.077,-0.106 0.077,-0.169 v -1.134 c 0,-0.127 -0.098,-0.222 -0.227,-0.233 -0.917,-0.126 -1.576,-0.381 -1.987,-0.773 -0.443,-0.424 -0.862,-1.165 -1.252,-2.223 L 1.176,1.037 C 1.004,0.529 0.561,0.137 0,0"
       style="fill:#231f20;fill-opacity:1;fill-rule:nonzero;stroke:none"
       transform="matrix(1.3333333,0,0,-1.3333333,236.86747,349.9856)"
       clip-path="url(#clipPath10)" />
    <path
       id="path11"
       d="m 0,0 h -14.811 l 7.059,20.515 c 0.066,0.202 0.314,0.212 0.432,0.086 0.077,-0.202 0.13,-0.35 0.14,-0.392 z m 20.169,-20.526 v 1.018 c 0,0.147 -0.132,0.286 -0.293,0.286 -0.745,0.073 -2.298,0.391 -2.751,0.985 -0.53,0.667 -0.931,1.366 -1.221,2.107 l -19.51,51.473 c -0.108,0.298 -0.517,0.392 -0.777,0.18 -1.176,-1.016 -2.439,-1.916 -3.788,-2.711 -0.282,-0.17 -0.561,-0.349 -0.854,-0.508 l -1.371,-0.753 c -0.271,-0.18 -0.4,-0.486 -0.334,-0.794 v -0.042 c 0.195,-0.837 0.118,-1.706 -0.185,-2.51 l -16.389,-44.017 c -0.332,-0.901 -0.754,-1.652 -1.252,-2.256 -0.454,-0.571 -2.083,-0.942 -2.937,-1.122 -0.129,-0.032 -0.216,-0.128 -0.216,-0.255 v -1.081 c 0,-0.116 0.077,-0.21 0.195,-0.263 l 2.839,0.031 c 0.164,0.022 0.324,0.022 0.477,0.022 l 1.078,-0.022 c 0.767,0.042 1.545,0.063 2.312,0.085 h 0.01 c 0.604,0 1.221,0 1.835,-0.012 h 0.15 c 0.627,-0.02 1.255,-0.031 1.879,-0.073 l 1.869,-0.031 1.434,-0.012 c 0.163,0 0.293,0.128 0.293,0.275 v 1.018 c 0,0.159 -0.119,0.286 -0.293,0.286 -0.474,0 -0.917,0.042 -1.326,0.116 -0.487,0.074 -0.875,0.233 -1.144,0.477 -0.271,0.233 -0.432,0.582 -0.477,1.038 -0.052,0.433 0.045,1.037 0.293,1.779 l 3.55,10.008 H 0.39 1.945 l 3.617,-10.167 c 0.29,-0.742 0.408,-1.334 0.334,-1.779 -0.076,-0.456 -0.261,-0.785 -0.551,-0.995 -0.303,-0.212 -0.68,-0.351 -1.154,-0.404 -0.38,-0.053 -0.812,-0.073 -1.286,-0.073 L 2.873,-19.233 C 2.72,-19.255 2.602,-19.361 2.602,-19.508 v -1.018 c 0,-0.052 0.023,-0.094 0.055,-0.137 0,-0.01 0,-0.01 0.01,-0.022 0.032,-0.031 0.066,-0.073 0.108,-0.094 0.043,-0.01 0.088,-0.022 0.119,-0.022 l 0.485,0.032 4.093,0.084 c 1.089,0.043 2.191,0.043 3.282,0.022 1.078,0.021 2.138,0.021 3.229,-0.01 l 6.002,-0.106 c 0.097,0.053 0.184,0.137 0.184,0.253"
       style="fill:#231f20;fill-opacity:1;fill-rule:nonzero;stroke:none"
       transform="matrix(1.3333333,0,0,-1.3333333,290.6448,320.8532)"
       clip-path="url(#clipPath12)" />
    <path
       id="path13"
       d="M 0,0 C 0,-0.105 -0.087,-0.18 -0.185,-0.19 H -0.216 C -0.25,-0.211 -0.282,-0.233 -0.314,-0.233 -0.886,-0.286 -1.363,-0.37 -1.729,-0.486 -2.117,-0.614 -2.43,-0.815 -2.657,-1.08 c -0.248,-0.297 -0.422,-0.677 -0.519,-1.154 -0.098,-0.488 -0.15,-1.112 -0.15,-1.917 v -49.334 c 0,-0.328 -0.238,-0.593 -0.551,-0.689 -0.098,-0.053 -0.217,-0.094 -0.346,-0.094 H -7.04 c -1.123,0 -2.148,0.551 -2.731,1.44 l -26.171,40.765 v -36.169 c 0,-0.889 0.042,-1.62 0.14,-2.181 0.108,-0.551 0.303,-0.997 0.593,-1.313 0.303,-0.308 0.704,-0.52 1.22,-0.626 0.477,-0.106 1.06,-0.147 1.761,-0.169 0.097,0 0.195,-0.074 0.195,-0.18 v -1.112 c 0,-0.116 -0.087,-0.202 -0.195,-0.202 h -1.555 -12.07 c -0.118,0 -0.205,0.086 -0.205,0.202 v 1.133 c 0,0.085 0.087,0.169 0.184,0.181 0.701,0.053 1.263,0.147 1.695,0.263 0.464,0.128 0.841,0.361 1.113,0.679 0.268,0.318 0.453,0.731 0.561,1.271 0.084,0.529 0.14,1.239 0.14,2.14 v 43.794 c 0,1.112 -0.324,2.097 -0.962,2.944 -0.604,0.783 -1.392,1.197 -2.375,1.197 -0.119,0 -0.216,0.074 -0.216,0.18 v 1.197 c 0,0.105 0.097,0.19 0.216,0.19 h 7.741 0.011 2.148 c 1.695,0 3.218,-0.879 3.996,-2.277 3.389,-6.058 6.832,-11.629 10.332,-17.094 3.941,-6.154 7.805,-12.435 11.605,-18.842 l 0.119,-0.212 v 33.003 c 0,1.536 -0.292,2.584 -0.885,3.135 -0.562,0.529 -1.448,0.784 -2.668,0.773 -0.119,-0.011 -0.216,0.064 -0.216,0.18 v 1.197 c 0,0.094 0.097,0.18 0.206,0.18 H -0.206 C -0.098,1.399 0,1.313 0,1.219 Z"
       style="fill:#231f20;fill-opacity:1;fill-rule:nonzero;stroke:none"
       transform="matrix(1.3333333,0,0,-1.3333333,383.3268,276.50427)"
       clip-path="url(#clipPath14)" />
    <path
       id="path15"
       d="m 0,0 c 0,-0.147 -0.129,-0.253 -0.28,-0.253 h -7.612 -1.544 -7.557 c -0.161,0 -0.279,0.106 -0.279,0.253 v 1.081 c 0,0.138 0.105,0.255 0.258,0.255 0.53,0.053 1.004,0.094 1.436,0.137 0.485,0.063 0.897,0.191 1.218,0.413 0.314,0.201 0.551,0.519 0.704,0.943 0.14,0.423 0.216,1.038 0.216,1.832 v 45.7 c 0,0.785 -0.087,1.409 -0.261,1.864 -0.161,0.445 -0.419,0.773 -0.733,0.954 -0.324,0.191 -0.724,0.307 -1.22,0.35 -0.411,0.053 -0.896,0.084 -1.416,0.084 -0.16,0 -0.279,0.117 -0.279,0.254 v 1.07 c 0,0.138 0.119,0.265 0.269,0.265 h 7.644 1.544 7.536 c 0.161,0 0.28,-0.127 0.28,-0.265 v -1.09 c 0,-0.128 -0.109,-0.245 -0.248,-0.255 -0.541,-0.043 -1.026,-0.096 -1.437,-0.127 -0.506,-0.063 -0.906,-0.201 -1.218,-0.413 -0.324,-0.201 -0.561,-0.519 -0.714,-0.943 -0.15,-0.424 -0.216,-1.027 -0.216,-1.832 V 4.575 c 0,-0.793 0.087,-1.407 0.261,-1.863 C -3.487,2.256 -3.24,1.939 -2.915,1.758 -2.591,1.579 -2.19,1.452 -1.695,1.399 -1.273,1.346 -0.799,1.324 -0.28,1.314 -0.129,1.314 0,1.208 0,1.06 Z"
       style="fill:#231f20;fill-opacity:1;fill-rule:nonzero;stroke:none"
       transform="matrix(1.3333333,0,0,-1.3333333,415.76827,348.28427)"
       clip-path="url(#clipPath16)" />
    <path
       id="path17"
       d="M 0,0 C 0,-0.105 -0.084,-0.18 -0.182,-0.19 H -0.216 L -0.279,-0.233 C -0.883,-0.286 -1.36,-0.37 -1.727,-0.486 -2.103,-0.614 -2.417,-0.815 -2.654,-1.08 -2.902,-1.377 -3.065,-1.757 -3.174,-2.234 -3.26,-2.722 -3.313,-3.346 -3.313,-4.151 v -49.334 c 0,-0.328 -0.248,-0.593 -0.562,-0.689 -0.097,-0.053 -0.216,-0.094 -0.334,-0.094 h -2.829 c -1.122,0 -2.148,0.551 -2.73,1.44 l -26.171,40.765 v -36.169 c 0,-0.889 0.042,-1.62 0.15,-2.181 0.098,-0.551 0.293,-0.997 0.593,-1.313 0.293,-0.308 0.704,-0.52 1.22,-0.626 0.464,-0.106 1.049,-0.147 1.751,-0.169 0.108,0 0.205,-0.074 0.205,-0.18 v -1.112 c 0,-0.116 -0.097,-0.202 -0.205,-0.202 h -1.556 -12.069 c -0.108,0 -0.195,0.086 -0.195,0.202 v 1.133 c 0,0.085 0.076,0.169 0.185,0.181 0.69,0.053 1.262,0.147 1.694,0.263 0.464,0.128 0.831,0.361 1.1,0.679 0.271,0.318 0.466,0.731 0.561,1.271 0.098,0.529 0.142,1.239 0.142,2.14 v 43.794 c 0,1.112 -0.313,2.097 -0.962,2.944 -0.593,0.783 -1.381,1.197 -2.375,1.197 -0.118,0 -0.205,0.074 -0.205,0.18 v 1.197 c 0,0.105 0.087,0.19 0.195,0.19 h 7.762 2.159 c 1.684,0 3.218,-0.879 3.985,-2.277 3.39,-6.058 6.832,-11.629 10.343,-17.094 3.941,-6.154 7.805,-12.435 11.595,-18.842 l 0.119,-0.212 v 33.003 c 0,1.536 -0.293,2.584 -0.886,3.135 -0.551,0.529 -1.447,0.784 -2.667,0.773 -0.108,-0.011 -0.216,0.064 -0.216,0.18 v 1.197 c 0,0.094 0.097,0.18 0.205,0.18 H -0.203 C -0.084,1.399 0,1.313 0,1.219 Z"
       style="fill:#231f20;fill-opacity:1;fill-rule:nonzero;stroke:none"
       transform="matrix(1.3333333,0,0,-1.3333333,485.9544,276.50427)"
       clip-path="url(#clipPath18)" />
    <path
       id="path19"
       d="m 0,0 h -14.824 l 7.072,20.515 c 0.063,0.202 0.301,0.212 0.43,0.086 0.066,-0.202 0.132,-0.35 0.142,-0.392 z m 20.156,-20.526 v 1.018 c 0,0.147 -0.129,0.286 -0.292,0.286 -0.733,0.073 -2.299,0.391 -2.752,0.985 -0.53,0.667 -0.931,1.366 -1.221,2.107 l -19.51,51.473 c -0.108,0.298 -0.516,0.392 -0.777,0.18 -1.176,-1.016 -2.439,-1.916 -3.788,-2.711 -0.282,-0.17 -0.562,-0.349 -0.854,-0.508 l -1.371,-0.753 c -0.258,-0.18 -0.4,-0.486 -0.334,-0.794 l 0.01,-0.042 c 0.185,-0.837 0.119,-1.706 -0.182,-2.51 l -16.4,-44.017 c -0.335,-0.901 -0.756,-1.652 -1.252,-2.256 -0.453,-0.571 -2.085,-0.942 -2.926,-1.122 -0.142,-0.032 -0.226,-0.128 -0.226,-0.255 v -1.081 c 0,-0.116 0.073,-0.21 0.192,-0.263 l 2.852,0.031 c 0.15,0.022 0.311,0.022 0.475,0.022 l 1.067,-0.022 c 0.767,0.042 1.545,0.063 2.312,0.085 h 0.01 c 0.614,0 1.221,0 1.835,-0.012 h 0.153 c 0.624,-0.02 1.252,-0.031 1.876,-0.073 l 1.869,-0.031 1.437,-0.012 c 0.171,0 0.3,0.128 0.3,0.275 v 1.018 c 0,0.159 -0.129,0.286 -0.29,0.286 -0.487,0 -0.928,0.042 -1.328,0.116 -0.496,0.074 -0.886,0.233 -1.155,0.477 -0.271,0.233 -0.421,0.582 -0.477,1.038 -0.053,0.433 0.056,1.037 0.303,1.779 l 3.543,10.008 H 0.377 1.932 l 3.616,-10.167 c 0.293,-0.742 0.411,-1.334 0.335,-1.779 -0.076,-0.456 -0.258,-0.785 -0.551,-0.995 -0.292,-0.212 -0.68,-0.351 -1.154,-0.404 -0.38,-0.053 -0.809,-0.073 -1.286,-0.073 L 2.86,-19.233 c -0.15,-0.022 -0.269,-0.128 -0.269,-0.275 v -1.018 c 0,-0.052 0.021,-0.094 0.053,-0.137 0,-0.01 0,-0.01 0.01,-0.022 0.032,-0.031 0.066,-0.073 0.119,-0.094 0.034,-0.01 0.087,-0.022 0.119,-0.022 l 0.487,0.032 4.091,0.084 c 1.081,0.043 2.18,0.043 3.271,0.022 1.081,0.021 2.148,0.021 3.229,-0.01 l 6.001,-0.106 c 0.109,0.053 0.185,0.137 0.185,0.253"
       style="fill:#231f20;fill-opacity:1;fill-rule:nonzero;stroke:none"
       transform="matrix(1.3333333,0,0,-1.3333333,528.9004,320.8532)"
       clip-path="url(#clipPath20)" />
    <path
       id="path21"
       d="m 0,0 c 0.184,-3.219 3.121,-5.709 6.566,-5.528 1.674,0.084 3.205,0.773 4.317,1.927 1.112,1.165 1.674,2.658 1.576,4.215 C 12.385,2.182 11.65,3.611 10.409,4.649 9.178,5.698 7.581,6.217 5.907,6.142 4.244,6.069 2.699,5.38 1.589,4.215 0.477,3.05 -0.095,1.557 0,0 m 6.231,-6.937 c -4.08,0 -7.504,2.998 -7.731,6.863 -0.108,1.928 0.593,3.781 1.977,5.231 C 1.858,6.587 3.759,7.435 5.83,7.541 7.926,7.647 9.879,6.99 11.413,5.698 12.947,4.396 13.854,2.627 13.962,0.688 14.067,-1.24 13.377,-3.093 11.995,-4.533 10.614,-5.973 8.714,-6.821 6.653,-6.927 6.51,-6.937 6.371,-6.937 6.231,-6.937"
       style="fill:#231f20;fill-opacity:1;fill-rule:nonzero;stroke:none"
       transform="matrix(1.3333333,0,0,-1.3333333,539.8796,281.3188)"
       clip-path="url(#clipPath22)" />
    <path
       id="path23"
       d="m 0,0 -0.021,7.16 3.508,0.01 c 0.659,0 1.144,-0.063 1.5,-0.169 C 5.322,6.885 5.604,6.672 5.809,6.354 6.025,6.036 6.134,5.645 6.134,5.19 6.134,4.798 6.047,4.448 5.896,4.162 5.733,3.876 5.506,3.643 5.237,3.464 5.053,3.346 4.816,3.252 4.502,3.177 4.75,3.082 4.924,2.997 5.042,2.913 5.129,2.86 5.237,2.732 5.377,2.542 5.527,2.34 5.625,2.203 5.68,2.097 L 6.695,0.021 H 4.32 L 3.197,2.203 C 3.044,2.479 2.915,2.668 2.807,2.754 2.657,2.86 2.493,2.923 2.301,2.913 H 2.106 L 2.116,0.01 Z m 2.106,4.268 h 0.886 c 0.097,0 0.279,0.032 0.561,0.095 0.129,0.032 0.248,0.106 0.335,0.233 0.084,0.117 0.14,0.255 0.14,0.414 C 4.017,5.243 3.951,5.422 3.811,5.539 3.672,5.665 3.411,5.73 3.023,5.718 H 2.106 Z"
       style="fill:#231f20;fill-opacity:1;fill-rule:nonzero;stroke:none"
       transform="matrix(1.3333333,0,0,-1.3333333,544.15293,285.39413)"
       clip-path="url(#clipPath24)" />
  </g>
</svg>
